<?xml version="1.0" encoding="UTF-8" standalone="no"?>
<!DOCTYPE svg PUBLIC "-//W3C//DTD SVG 1.1//EN"
 "http://www.w3.org/Graphics/SVG/1.1/DTD/svg11.dtd">
<!-- Generated by graphviz version 2.36.0 (20140111.2315)
 -->
<!-- Title: IControl.h Pages: 1 -->
<svg width="3746pt" height="196pt"
 viewBox="0.00 0.00 3745.54 196.00" xmlns="http://www.w3.org/2000/svg" xmlns:xlink="http://www.w3.org/1999/xlink">
<g id="graph0" class="graph" transform="scale(1 1) rotate(0) translate(4 192)">
<title>IControl.h</title>
<polygon fill="white" stroke="none" points="-4,4 -4,-192 3741.54,-192 3741.54,4 -4,4"/>
<!-- Node1 -->
<g id="node1" class="node"><title>Node1</title>
<polygon fill="#bfbfbf" stroke="black" points="1505.04,-168.5 1505.04,-187.5 1564.04,-187.5 1564.04,-168.5 1505.04,-168.5"/>
<text text-anchor="middle" x="1534.54" y="-175.5" font-family="Helvetica,sans-Serif" font-size="10.00">IControl.h</text>
</g>
<!-- Node2 -->
<g id="node2" class="node"><title>Node2</title>
<g id="a_node2"><a xlink:href="_i_color_picker_control_8h.html" target="_top" xlink:title="A control for choosing a color. ">
<polygon fill="white" stroke="black" points="14.5442,-112.5 14.5442,-131.5 124.544,-131.5 124.544,-112.5 14.5442,-112.5"/>
<text text-anchor="middle" x="69.5442" y="-119.5" font-family="Helvetica,sans-Serif" font-size="10.00">IColorPickerControl.h</text>
</a>
</g>
</g>
<!-- Node1&#45;&gt;Node2 -->
<g id="edge1" class="edge"><title>Node1&#45;&gt;Node2</title>
<path fill="none" stroke="midnightblue" d="M1494.63,-177.287C1327.92,-178.154 670.911,-178.278 133.544,-132 130.638,-131.75 127.661,-131.457 124.659,-131.134"/>
<polygon fill="midnightblue" stroke="midnightblue" points="1494.92,-180.785 1504.9,-177.229 1494.88,-173.786 1494.92,-180.785"/>
</g>
<!-- Node3 -->
<g id="node3" class="node"><title>Node3</title>
<g id="a_node3"><a xlink:href="_i_controls_8h.html" target="_top" xlink:title="A collection of IControls for common UI widgets, such as knobs, sliders, switches. ">
<polygon fill="white" stroke="black" points="327.044,-56.5 327.044,-75.5 392.044,-75.5 392.044,-56.5 327.044,-56.5"/>
<text text-anchor="middle" x="359.544" y="-63.5" font-family="Helvetica,sans-Serif" font-size="10.00">IControls.h</text>
</a>
</g>
</g>
<!-- Node1&#45;&gt;Node3 -->
<g id="edge5" class="edge"><title>Node1&#45;&gt;Node3</title>
<path fill="none" stroke="midnightblue" d="M1494.64,-176.586C1256.49,-174.022 32.2622,-159.516 5.54421,-132 -40.4881,-84.593 231.167,-71.1523 327.001,-67.912"/>
<polygon fill="midnightblue" stroke="midnightblue" points="1494.88,-180.088 1504.91,-176.696 1494.95,-173.089 1494.88,-180.088"/>
</g>
<!-- Node5 -->
<g id="node5" class="node"><title>Node5</title>
<g id="a_node5"><a xlink:href="_i_graphics_8cpp_source.html" target="_top" xlink:title="IGraphics.cpp">
<polygon fill="white" stroke="black" points="861.044,-0.5 861.044,-19.5 938.044,-19.5 938.044,-0.5 861.044,-0.5"/>
<text text-anchor="middle" x="899.544" y="-7.5" font-family="Helvetica,sans-Serif" font-size="10.00">IGraphics.cpp</text>
</a>
</g>
</g>
<!-- Node1&#45;&gt;Node5 -->
<g id="edge68" class="edge"><title>Node1&#45;&gt;Node5</title>
<path fill="none" stroke="midnightblue" d="M1494.73,-177.231C1355.91,-177.647 894.014,-175.639 753.544,-132 737.166,-126.912 736.666,-117.85 720.544,-112 670.675,-93.9026 519.113,-116.242 484.544,-76 434.41,-17.6386 748.844,-11.3255 860.936,-10.9093"/>
<polygon fill="midnightblue" stroke="midnightblue" points="1494.93,-180.731 1504.92,-177.195 1494.9,-173.731 1494.93,-180.731"/>
</g>
<!-- Node6 -->
<g id="node6" class="node"><title>Node6</title>
<g id="a_node6"><a xlink:href="_i_v_keyboard_control_8h.html" target="_top" xlink:title="Vectorial keyboard control. ">
<polygon fill="white" stroke="black" points="143.044,-112.5 143.044,-131.5 250.044,-131.5 250.044,-112.5 143.044,-112.5"/>
<text text-anchor="middle" x="196.544" y="-119.5" font-family="Helvetica,sans-Serif" font-size="10.00">IVKeyboardControl.h</text>
</a>
</g>
</g>
<!-- Node1&#45;&gt;Node6 -->
<g id="edge6" class="edge"><title>Node1&#45;&gt;Node6</title>
<path fill="none" stroke="midnightblue" d="M1494.64,-177.173C1337.22,-177.52 744.129,-175.676 258.544,-132 255.836,-131.756 253.065,-131.475 250.271,-131.164"/>
<polygon fill="midnightblue" stroke="midnightblue" points="1494.8,-180.672 1504.8,-177.146 1494.79,-173.672 1494.8,-180.672"/>
</g>
<!-- Node7 -->
<g id="node7" class="node"><title>Node7</title>
<g id="a_node7"><a xlink:href="_i_v_meter_control_8h.html" target="_top" xlink:title="Vectorial multichannel capable meter control. ">
<polygon fill="white" stroke="black" points="268.044,-112.5 268.044,-131.5 359.044,-131.5 359.044,-112.5 268.044,-112.5"/>
<text text-anchor="middle" x="313.544" y="-119.5" font-family="Helvetica,sans-Serif" font-size="10.00">IVMeterControl.h</text>
</a>
</g>
</g>
<!-- Node1&#45;&gt;Node7 -->
<g id="edge8" class="edge"><title>Node1&#45;&gt;Node7</title>
<path fill="none" stroke="midnightblue" d="M1494.68,-177.243C1345.82,-177.775 808.475,-176.312 368.544,-132 365.464,-131.69 362.294,-131.316 359.105,-130.901"/>
<polygon fill="midnightblue" stroke="midnightblue" points="1494.73,-180.743 1504.72,-177.202 1494.71,-173.743 1494.73,-180.743"/>
</g>
<!-- Node8 -->
<g id="node8" class="node"><title>Node8</title>
<g id="a_node8"><a xlink:href="_i_v_scope_control_8h.html" target="_top" xlink:title="Vectorial multichannel capable oscilloscope control. ">
<polygon fill="white" stroke="black" points="377.544,-112.5 377.544,-131.5 471.544,-131.5 471.544,-112.5 377.544,-112.5"/>
<text text-anchor="middle" x="424.544" y="-119.5" font-family="Helvetica,sans-Serif" font-size="10.00">IVScopeControl.h</text>
</a>
</g>
</g>
<!-- Node1&#45;&gt;Node8 -->
<g id="edge10" class="edge"><title>Node1&#45;&gt;Node8</title>
<path fill="none" stroke="midnightblue" d="M1494.45,-176.97C1354.43,-176.508 874.356,-171.915 480.544,-132 477.605,-131.702 474.586,-131.35 471.546,-130.962"/>
<polygon fill="midnightblue" stroke="midnightblue" points="1494.68,-180.471 1504.69,-176.998 1494.7,-173.471 1494.68,-180.471"/>
</g>
<!-- Node9 -->
<g id="node9" class="node"><title>Node9</title>
<g id="a_node9"><a xlink:href="_i_v_multi_slider_control_8h.html" target="_top" xlink:title="A vectorial multi&#45;slider control. ">
<polygon fill="white" stroke="black" points="489.544,-112.5 489.544,-131.5 601.544,-131.5 601.544,-112.5 489.544,-112.5"/>
<text text-anchor="middle" x="545.544" y="-119.5" font-family="Helvetica,sans-Serif" font-size="10.00">IVMultiSliderControl.h</text>
</a>
</g>
</g>
<!-- Node1&#45;&gt;Node9 -->
<g id="edge12" class="edge"><title>Node1&#45;&gt;Node9</title>
<path fill="none" stroke="midnightblue" d="M1494.83,-176.327C1366.56,-173.886 951.951,-163.886 610.544,-132 607.708,-131.735 604.807,-131.436 601.879,-131.112"/>
<polygon fill="midnightblue" stroke="midnightblue" points="1494.89,-179.829 1504.96,-176.516 1495.02,-172.83 1494.89,-179.829"/>
</g>
<!-- Node10 -->
<g id="node10" class="node"><title>Node10</title>
<g id="a_node10"><a xlink:href="_i_r_t_text_control_8h.html" target="_top" xlink:title="A control to display some text in the UI, driven by values in the RT audio thread. ">
<polygon fill="white" stroke="black" points="619.544,-112.5 619.544,-131.5 711.544,-131.5 711.544,-112.5 619.544,-112.5"/>
<text text-anchor="middle" x="665.544" y="-119.5" font-family="Helvetica,sans-Serif" font-size="10.00">IRTTextControl.h</text>
</a>
</g>
</g>
<!-- Node1&#45;&gt;Node10 -->
<g id="edge14" class="edge"><title>Node1&#45;&gt;Node10</title>
<path fill="none" stroke="midnightblue" d="M1494.71,-176.1C1376.89,-173.157 1019.97,-162.204 725.544,-132 721.039,-131.538 716.354,-130.977 711.677,-130.364"/>
<polygon fill="midnightblue" stroke="midnightblue" points="1494.63,-179.599 1504.71,-176.345 1494.8,-172.601 1494.63,-179.599"/>
</g>
<!-- Node11 -->
<g id="node11" class="node"><title>Node11</title>
<g id="a_node11"><a xlink:href="_i_corner_resizer_control_8h.html" target="_top" xlink:title="A control for resizing the plug&#45;in window by clicking and dragging in the bottom right&#45;hand corner Th...">
<polygon fill="white" stroke="black" points="493.544,-56.5 493.544,-75.5 615.544,-75.5 615.544,-56.5 493.544,-56.5"/>
<text text-anchor="middle" x="554.544" y="-63.5" font-family="Helvetica,sans-Serif" font-size="10.00">ICornerResizerControl.h</text>
</a>
</g>
</g>
<!-- Node1&#45;&gt;Node11 -->
<g id="edge16" class="edge"><title>Node1&#45;&gt;Node11</title>
<path fill="none" stroke="midnightblue" d="M1494.55,-176.79C1360.14,-175.74 925.599,-169.46 791.544,-132 773.163,-126.864 771.45,-118.606 753.544,-112 706.522,-94.6522 650.683,-82.7336 610.141,-75.5425"/>
<polygon fill="midnightblue" stroke="midnightblue" points="1494.78,-180.292 1504.8,-176.864 1494.83,-173.292 1494.78,-180.292"/>
</g>
<!-- Node12 -->
<g id="node12" class="node"><title>Node12</title>
<g id="a_node12"><a xlink:href="_i_f_p_s_display_control_8h.html" target="_top" xlink:title="Performance display meter, based on code from NanoVG This is a special control that lives outside the...">
<polygon fill="white" stroke="black" points="1041.54,-56.5 1041.54,-75.5 1153.54,-75.5 1153.54,-56.5 1041.54,-56.5"/>
<text text-anchor="middle" x="1097.54" y="-63.5" font-family="Helvetica,sans-Serif" font-size="10.00">IFPSDisplayControl.h</text>
</a>
</g>
</g>
<!-- Node1&#45;&gt;Node12 -->
<g id="edge18" class="edge"><title>Node1&#45;&gt;Node12</title>
<path fill="none" stroke="midnightblue" d="M1494.82,-176.137C1387.66,-173.4 1098.84,-163.173 1070.54,-132 1055.43,-115.352 1075.99,-89.0563 1088.75,-75.5819"/>
<polygon fill="midnightblue" stroke="midnightblue" points="1494.82,-179.638 1504.9,-176.386 1494.99,-172.64 1494.82,-179.638"/>
</g>
<!-- Node13 -->
<g id="node13" class="node"><title>Node13</title>
<g id="a_node13"><a xlink:href="_i_popup_menu_control_8h.html" target="_top" xlink:title="A base control for a pop&#45;up menu/drop&#45;down list that stays within the bounds of the IGraphics context...">
<polygon fill="white" stroke="black" points="844.044,-112.5 844.044,-131.5 955.044,-131.5 955.044,-112.5 844.044,-112.5"/>
<text text-anchor="middle" x="899.544" y="-119.5" font-family="Helvetica,sans-Serif" font-size="10.00">IPopupMenuControl.h</text>
</a>
</g>
</g>
<!-- Node1&#45;&gt;Node13 -->
<g id="edge20" class="edge"><title>Node1&#45;&gt;Node13</title>
<path fill="none" stroke="midnightblue" d="M1494.76,-174.496C1402.39,-168.537 1166.27,-152.469 969.544,-132 964.913,-131.518 960.115,-130.981 955.3,-130.416"/>
<polygon fill="midnightblue" stroke="midnightblue" points="1494.58,-177.992 1504.79,-175.139 1495.03,-171.006 1494.58,-177.992"/>
</g>
<!-- Node15 -->
<g id="node15" class="node"><title>Node15</title>
<g id="a_node15"><a xlink:href="_i_graphics_web_8cpp_source.html" target="_top" xlink:title="IGraphicsWeb.cpp">
<polygon fill="white" stroke="black" points="633.544,-56.5 633.544,-75.5 731.544,-75.5 731.544,-56.5 633.544,-56.5"/>
<text text-anchor="middle" x="682.544" y="-63.5" font-family="Helvetica,sans-Serif" font-size="10.00">IGraphicsWeb.cpp</text>
</a>
</g>
</g>
<!-- Node1&#45;&gt;Node15 -->
<g id="edge72" class="edge"><title>Node1&#45;&gt;Node15</title>
<path fill="none" stroke="midnightblue" d="M1494.81,-176.372C1365.99,-174.035 960.938,-164.243 834.544,-132 814.121,-126.79 810.845,-120.468 791.544,-112 761.36,-98.7574 726.03,-84.3729 703.965,-75.5207"/>
<polygon fill="midnightblue" stroke="midnightblue" points="1494.95,-179.875 1505.01,-176.552 1495.07,-172.876 1494.95,-179.875"/>
</g>
<!-- Node16 -->
<g id="node16" class="node"><title>Node16</title>
<g id="a_node16"><a xlink:href="_i_graphics_win_8cpp_source.html" target="_top" xlink:title="IGraphicsWin.cpp">
<polygon fill="white" stroke="black" points="928.044,-56.5 928.044,-75.5 1023.04,-75.5 1023.04,-56.5 928.044,-56.5"/>
<text text-anchor="middle" x="975.544" y="-63.5" font-family="Helvetica,sans-Serif" font-size="10.00">IGraphicsWin.cpp</text>
</a>
</g>
</g>
<!-- Node1&#45;&gt;Node16 -->
<g id="edge73" class="edge"><title>Node1&#45;&gt;Node16</title>
<path fill="none" stroke="midnightblue" d="M1494.78,-175.995C1395.72,-173.049 1140.26,-162.625 1061.54,-132 1028.75,-119.243 997.744,-90.1678 983.583,-75.6218"/>
<polygon fill="midnightblue" stroke="midnightblue" points="1494.87,-179.499 1504.97,-176.287 1495.08,-172.502 1494.87,-179.499"/>
</g>
<!-- Node17 -->
<g id="node17" class="node"><title>Node17</title>
<g id="a_node17"><a xlink:href="_i_text_entry_control_8h.html" target="_top" xlink:title="A Text entry widget drawn by IGraphics to optionally override platform text entries. ">
<polygon fill="white" stroke="black" points="1087.54,-112.5 1087.54,-131.5 1189.54,-131.5 1189.54,-112.5 1087.54,-112.5"/>
<text text-anchor="middle" x="1138.54" y="-119.5" font-family="Helvetica,sans-Serif" font-size="10.00">ITextEntryControl.h</text>
</a>
</g>
</g>
<!-- Node1&#45;&gt;Node17 -->
<g id="edge25" class="edge"><title>Node1&#45;&gt;Node17</title>
<path fill="none" stroke="midnightblue" d="M1494.58,-171.854C1431.59,-163.698 1305.41,-147.17 1198.54,-132 1195.62,-131.585 1192.63,-131.154 1189.6,-130.714"/>
<polygon fill="midnightblue" stroke="midnightblue" points="1494.49,-175.372 1504.86,-173.184 1495.39,-168.43 1494.49,-175.372"/>
</g>
<!-- Node22 -->
<g id="node22" class="node"><title>Node22</title>
<g id="a_node22"><a xlink:href="_test_animation_control_8h.html" target="_top" xlink:title="Control to test animation. ">
<polygon fill="white" stroke="black" points="1621.04,-112.5 1621.04,-131.5 1740.04,-131.5 1740.04,-112.5 1621.04,-112.5"/>
<text text-anchor="middle" x="1680.54" y="-119.5" font-family="Helvetica,sans-Serif" font-size="10.00">TestAnimationControl.h</text>
</a>
</g>
</g>
<!-- Node1&#45;&gt;Node22 -->
<g id="edge31" class="edge"><title>Node1&#45;&gt;Node22</title>
<path fill="none" stroke="midnightblue" d="M1567.24,-164.906C1594.69,-154.754 1633.21,-140.506 1657.52,-131.516"/>
<polygon fill="midnightblue" stroke="midnightblue" points="1565.84,-161.692 1557.68,-168.444 1568.27,-168.257 1565.84,-161.692"/>
</g>
<!-- Node24 -->
<g id="node24" class="node"><title>Node24</title>
<g id="a_node24"><a xlink:href="_test_arc_control_8h.html" target="_top" xlink:title="Control to test drawing arcs. ">
<polygon fill="white" stroke="black" points="1758.04,-112.5 1758.04,-131.5 1849.04,-131.5 1849.04,-112.5 1758.04,-112.5"/>
<text text-anchor="middle" x="1803.54" y="-119.5" font-family="Helvetica,sans-Serif" font-size="10.00">TestArcControl.h</text>
</a>
</g>
</g>
<!-- Node1&#45;&gt;Node24 -->
<g id="edge33" class="edge"><title>Node1&#45;&gt;Node24</title>
<path fill="none" stroke="midnightblue" d="M1574.21,-169.038C1624.23,-158.997 1709.87,-141.805 1761.15,-131.511"/>
<polygon fill="midnightblue" stroke="midnightblue" points="1573.22,-165.667 1564.1,-171.067 1574.59,-172.53 1573.22,-165.667"/>
</g>
<!-- Node25 -->
<g id="node25" class="node"><title>Node25</title>
<g id="a_node25"><a xlink:href="_test_blend_control_8h.html" target="_top" xlink:title="Control to test blend methods. ">
<polygon fill="white" stroke="black" points="1867.04,-112.5 1867.04,-131.5 1968.04,-131.5 1968.04,-112.5 1867.04,-112.5"/>
<text text-anchor="middle" x="1917.54" y="-119.5" font-family="Helvetica,sans-Serif" font-size="10.00">TestBlendControl.h</text>
</a>
</g>
</g>
<!-- Node1&#45;&gt;Node25 -->
<g id="edge35" class="edge"><title>Node1&#45;&gt;Node25</title>
<path fill="none" stroke="midnightblue" d="M1574.37,-171.588C1635.37,-163.268 1755.58,-146.75 1857.54,-132 1860.57,-131.563 1863.68,-131.109 1866.81,-130.648"/>
<polygon fill="midnightblue" stroke="midnightblue" points="1573.83,-168.129 1564.39,-172.947 1574.78,-175.065 1573.83,-168.129"/>
</g>
<!-- Node26 -->
<g id="node26" class="node"><title>Node26</title>
<g id="a_node26"><a xlink:href="_test_color_control_8h.html" target="_top" xlink:title="Control to colors. ">
<polygon fill="white" stroke="black" points="1986.04,-112.5 1986.04,-131.5 2085.04,-131.5 2085.04,-112.5 1986.04,-112.5"/>
<text text-anchor="middle" x="2035.54" y="-119.5" font-family="Helvetica,sans-Serif" font-size="10.00">TestColorControl.h</text>
</a>
</g>
</g>
<!-- Node1&#45;&gt;Node26 -->
<g id="edge37" class="edge"><title>Node1&#45;&gt;Node26</title>
<path fill="none" stroke="midnightblue" d="M1574.36,-173.618C1651.9,-166.882 1828.56,-150.808 1976.54,-132 1979.63,-131.608 1982.8,-131.184 1985.99,-130.742"/>
<polygon fill="midnightblue" stroke="midnightblue" points="1573.75,-170.157 1564.09,-174.506 1574.35,-177.131 1573.75,-170.157"/>
</g>
<!-- Node27 -->
<g id="node27" class="node"><title>Node27</title>
<g id="a_node27"><a xlink:href="_test_dir_browse_control_8h.html" target="_top" xlink:title="Control to test IDirBrowseControlBase. ">
<polygon fill="white" stroke="black" points="2103.54,-112.5 2103.54,-131.5 2225.54,-131.5 2225.54,-112.5 2103.54,-112.5"/>
<text text-anchor="middle" x="2164.54" y="-119.5" font-family="Helvetica,sans-Serif" font-size="10.00">TestDirBrowseControl.h</text>
</a>
</g>
</g>
<!-- Node1&#45;&gt;Node27 -->
<g id="edge39" class="edge"><title>Node1&#45;&gt;Node27</title>
<path fill="none" stroke="midnightblue" d="M1574.51,-174.413C1666.32,-168.333 1899.31,-152.118 2093.54,-132 2096.76,-131.667 2100.05,-131.309 2103.37,-130.934"/>
<polygon fill="midnightblue" stroke="midnightblue" points="1574.03,-170.937 1564.28,-175.087 1574.49,-177.922 1574.03,-170.937"/>
</g>
<!-- Node28 -->
<g id="node28" class="node"><title>Node28</title>
<g id="a_node28"><a xlink:href="_test_gradient_control_8h.html" target="_top" xlink:title="Control to test drawing gradients with path based drawing backends. ">
<polygon fill="white" stroke="black" points="2244.04,-112.5 2244.04,-131.5 2357.04,-131.5 2357.04,-112.5 2244.04,-112.5"/>
<text text-anchor="middle" x="2300.54" y="-119.5" font-family="Helvetica,sans-Serif" font-size="10.00">TestGradientControl.h</text>
</a>
</g>
</g>
<!-- Node1&#45;&gt;Node28 -->
<g id="edge41" class="edge"><title>Node1&#45;&gt;Node28</title>
<path fill="none" stroke="midnightblue" d="M1574.31,-175.439C1681.25,-171.024 1983.89,-157.115 2234.54,-132 2237.54,-131.7 2240.6,-131.369 2243.69,-131.014"/>
<polygon fill="midnightblue" stroke="midnightblue" points="1574.13,-171.943 1564.29,-175.848 1574.42,-178.937 1574.13,-171.943"/>
</g>
<!-- Node29 -->
<g id="node29" class="node"><title>Node29</title>
<g id="a_node29"><a xlink:href="_test_layer_control_8h.html" target="_top" xlink:title="Control to test IGraphics layers. ">
<polygon fill="white" stroke="black" points="2375.54,-112.5 2375.54,-131.5 2475.54,-131.5 2475.54,-112.5 2375.54,-112.5"/>
<text text-anchor="middle" x="2425.54" y="-119.5" font-family="Helvetica,sans-Serif" font-size="10.00">TestLayerControl.h</text>
</a>
</g>
</g>
<!-- Node1&#45;&gt;Node29 -->
<g id="edge43" class="edge"><title>Node1&#45;&gt;Node29</title>
<path fill="none" stroke="midnightblue" d="M1574.22,-176.186C1693.94,-173.442 2062.07,-162.907 2365.54,-132 2368.79,-131.669 2372.13,-131.286 2375.5,-130.869"/>
<polygon fill="midnightblue" stroke="midnightblue" points="1573.98,-172.69 1564.06,-176.413 1574.14,-179.688 1573.98,-172.69"/>
</g>
<!-- Node30 -->
<g id="node30" class="node"><title>Node30</title>
<g id="a_node30"><a xlink:href="_test_multi_path_control_8h.html" target="_top" xlink:title="Control to test drawing paths in path&#45;based drawing backends. ">
<polygon fill="white" stroke="black" points="2494.04,-112.5 2494.04,-131.5 2611.04,-131.5 2611.04,-112.5 2494.04,-112.5"/>
<text text-anchor="middle" x="2552.54" y="-119.5" font-family="Helvetica,sans-Serif" font-size="10.00">TestMultiPathControl.h</text>
</a>
</g>
</g>
<!-- Node1&#45;&gt;Node30 -->
<g id="edge45" class="edge"><title>Node1&#45;&gt;Node30</title>
<path fill="none" stroke="midnightblue" d="M1574.48,-176.312C1705.28,-173.803 2132.64,-163.566 2484.54,-132 2487.63,-131.723 2490.79,-131.41 2493.97,-131.07"/>
<polygon fill="midnightblue" stroke="midnightblue" points="1574.09,-172.819 1564.16,-176.506 1574.22,-179.818 1574.09,-172.819"/>
</g>
<!-- Node31 -->
<g id="node31" class="node"><title>Node31</title>
<g id="a_node31"><a xlink:href="_test_poly_control_8h.html" target="_top" xlink:title="Control to test drawing polygons. ">
<polygon fill="white" stroke="black" points="2629.04,-112.5 2629.04,-131.5 2724.04,-131.5 2724.04,-112.5 2629.04,-112.5"/>
<text text-anchor="middle" x="2676.54" y="-119.5" font-family="Helvetica,sans-Serif" font-size="10.00">TestPolyControl.h</text>
</a>
</g>
</g>
<!-- Node1&#45;&gt;Node31 -->
<g id="edge47" class="edge"><title>Node1&#45;&gt;Node31</title>
<path fill="none" stroke="midnightblue" d="M1574.42,-177C1716.71,-176.65 2212.77,-172.414 2619.54,-132 2622.63,-131.693 2625.81,-131.328 2629.01,-130.924"/>
<polygon fill="midnightblue" stroke="midnightblue" points="1574.4,-173.5 1564.41,-177.02 1574.41,-180.5 1574.4,-173.5"/>
</g>
<!-- Node32 -->
<g id="node32" class="node"><title>Node32</title>
<g id="a_node32"><a xlink:href="_test_text_control_8h.html" target="_top" xlink:title="Control to test drawing text. ">
<polygon fill="white" stroke="black" points="2742.04,-112.5 2742.04,-131.5 2837.04,-131.5 2837.04,-112.5 2742.04,-112.5"/>
<text text-anchor="middle" x="2789.54" y="-119.5" font-family="Helvetica,sans-Serif" font-size="10.00">TestTextControl.h</text>
</a>
</g>
</g>
<!-- Node1&#45;&gt;Node32 -->
<g id="edge49" class="edge"><title>Node1&#45;&gt;Node32</title>
<path fill="none" stroke="midnightblue" d="M1574.47,-177.222C1725.94,-177.699 2279.4,-176.127 2732.54,-132 2735.64,-131.699 2738.81,-131.339 2742.01,-130.938"/>
<polygon fill="midnightblue" stroke="midnightblue" points="1574.28,-173.721 1564.27,-177.185 1574.26,-180.721 1574.28,-173.721"/>
</g>
<!-- Node33 -->
<g id="node33" class="node"><title>Node33</title>
<g id="a_node33"><a xlink:href="_test_draw_context_control_8h.html" target="_top" xlink:title="Control to test obtaining a drawing API (NanoVG, LICE, Cairo, AGG etc) context and using that API wit...">
<polygon fill="white" stroke="black" points="2855.54,-112.5 2855.54,-131.5 2989.54,-131.5 2989.54,-112.5 2855.54,-112.5"/>
<text text-anchor="middle" x="2922.54" y="-119.5" font-family="Helvetica,sans-Serif" font-size="10.00">TestDrawContextControl.h</text>
</a>
</g>
</g>
<!-- Node1&#45;&gt;Node33 -->
<g id="edge51" class="edge"><title>Node1&#45;&gt;Node33</title>
<path fill="none" stroke="midnightblue" d="M1574.44,-176.823C1734.41,-175.863 2344.95,-169.783 2845.54,-132 2848.77,-131.757 2852.06,-131.48 2855.38,-131.179"/>
<polygon fill="midnightblue" stroke="midnightblue" points="1574.11,-173.325 1564.13,-176.882 1574.15,-180.325 1574.11,-173.325"/>
</g>
<!-- Node34 -->
<g id="node34" class="node"><title>Node34</title>
<g id="a_node34"><a xlink:href="_test_size_control_8h.html" target="_top" xlink:title="Control to display the size of a region. ">
<polygon fill="white" stroke="black" points="3008.04,-112.5 3008.04,-131.5 3103.04,-131.5 3103.04,-112.5 3008.04,-112.5"/>
<text text-anchor="middle" x="3055.54" y="-119.5" font-family="Helvetica,sans-Serif" font-size="10.00">TestSizeControl.h</text>
</a>
</g>
</g>
<!-- Node1&#45;&gt;Node34 -->
<g id="edge53" class="edge"><title>Node1&#45;&gt;Node34</title>
<path fill="none" stroke="midnightblue" d="M1574.42,-176.454C1778.82,-173.553 2710.65,-159.045 2998.54,-132 3001.64,-131.71 3004.82,-131.357 3008.01,-130.963"/>
<polygon fill="midnightblue" stroke="midnightblue" points="1574.1,-172.958 1564.15,-176.599 1574.2,-179.958 1574.1,-172.958"/>
</g>
<!-- Node35 -->
<g id="node35" class="node"><title>Node35</title>
<g id="a_node35"><a xlink:href="_test_s_v_g_control_8h.html" target="_top" xlink:title="Control to test drawing SVGs. ">
<polygon fill="white" stroke="black" points="3121.04,-112.5 3121.04,-131.5 3218.04,-131.5 3218.04,-112.5 3121.04,-112.5"/>
<text text-anchor="middle" x="3169.54" y="-119.5" font-family="Helvetica,sans-Serif" font-size="10.00">TestSVGControl.h</text>
</a>
</g>
</g>
<!-- Node1&#45;&gt;Node35 -->
<g id="edge55" class="edge"><title>Node1&#45;&gt;Node35</title>
<path fill="none" stroke="midnightblue" d="M1574.39,-176.541C1788.05,-173.979 2799.9,-160.513 3111.54,-132 3114.59,-131.721 3117.72,-131.385 3120.86,-131.007"/>
<polygon fill="midnightblue" stroke="midnightblue" points="1574.22,-173.043 1564.26,-176.662 1574.3,-180.043 1574.22,-173.043"/>
</g>
<!-- Node36 -->
<g id="node36" class="node"><title>Node36</title>
<g id="a_node36"><a xlink:href="_test_image_control_8h.html" target="_top" xlink:title="Control to test drawing bitmaps. ">
<polygon fill="white" stroke="black" points="3236.04,-112.5 3236.04,-131.5 3339.04,-131.5 3339.04,-112.5 3236.04,-112.5"/>
<text text-anchor="middle" x="3287.54" y="-119.5" font-family="Helvetica,sans-Serif" font-size="10.00">TestImageControl.h</text>
</a>
</g>
</g>
<!-- Node1&#45;&gt;Node36 -->
<g id="edge57" class="edge"><title>Node1&#45;&gt;Node36</title>
<path fill="none" stroke="midnightblue" d="M1574.41,-176.59C1797.24,-174.198 2890.62,-161.143 3226.54,-132 3229.64,-131.732 3232.81,-131.409 3236.01,-131.047"/>
<polygon fill="midnightblue" stroke="midnightblue" points="1574.13,-173.093 1564.17,-176.699 1574.2,-180.092 1574.13,-173.093"/>
</g>
<!-- Node37 -->
<g id="node37" class="node"><title>Node37</title>
<g id="a_node37"><a xlink:href="_test_drop_shadow_control_8h.html" target="_top" xlink:title="Control to test layer drop shadows. ">
<polygon fill="white" stroke="black" points="3357.54,-112.5 3357.54,-131.5 3489.54,-131.5 3489.54,-112.5 3357.54,-112.5"/>
<text text-anchor="middle" x="3423.54" y="-119.5" font-family="Helvetica,sans-Serif" font-size="10.00">TestDropShadowControl.h</text>
</a>
</g>
</g>
<!-- Node1&#45;&gt;Node37 -->
<g id="edge59" class="edge"><title>Node1&#45;&gt;Node37</title>
<path fill="none" stroke="midnightblue" d="M1574.28,-176.518C1806.06,-173.629 2985.66,-157.862 3347.54,-132 3350.72,-131.773 3353.98,-131.509 3357.26,-131.217"/>
<polygon fill="midnightblue" stroke="midnightblue" points="1574.23,-173.018 1564.27,-176.642 1574.31,-180.018 1574.23,-173.018"/>
</g>
<!-- Node38 -->
<g id="node38" class="node"><title>Node38</title>
<g id="a_node38"><a xlink:href="_test_cursor_control_8h.html" target="_top" xlink:title="Control to test changing the platform cursor. ">
<polygon fill="white" stroke="black" points="1208.04,-112.5 1208.04,-131.5 1313.04,-131.5 1313.04,-112.5 1208.04,-112.5"/>
<text text-anchor="middle" x="1260.54" y="-119.5" font-family="Helvetica,sans-Serif" font-size="10.00">TestCursorControl.h</text>
</a>
</g>
</g>
<!-- Node1&#45;&gt;Node38 -->
<g id="edge61" class="edge"><title>Node1&#45;&gt;Node38</title>
<path fill="none" stroke="midnightblue" d="M1495.02,-169.211C1444.26,-159.208 1356.48,-141.906 1303.92,-131.549"/>
<polygon fill="midnightblue" stroke="midnightblue" points="1494.47,-172.67 1504.96,-171.17 1495.83,-165.802 1494.47,-172.67"/>
</g>
<!-- Node39 -->
<g id="node39" class="node"><title>Node39</title>
<g id="a_node39"><a xlink:href="_test_keyboard_control_8h.html" target="_top" xlink:title="Control to test keyboard input. ">
<polygon fill="white" stroke="black" points="1331.04,-112.5 1331.04,-131.5 1448.04,-131.5 1448.04,-112.5 1331.04,-112.5"/>
<text text-anchor="middle" x="1389.54" y="-119.5" font-family="Helvetica,sans-Serif" font-size="10.00">TestKeyboardControl.h</text>
</a>
</g>
</g>
<!-- Node1&#45;&gt;Node39 -->
<g id="edge63" class="edge"><title>Node1&#45;&gt;Node39</title>
<path fill="none" stroke="midnightblue" d="M1502.07,-164.906C1474.81,-154.754 1436.55,-140.506 1412.41,-131.516"/>
<polygon fill="midnightblue" stroke="midnightblue" points="1500.98,-168.233 1511.57,-168.444 1503.42,-161.674 1500.98,-168.233"/>
</g>
<!-- Node40 -->
<g id="node40" class="node"><title>Node40</title>
<g id="a_node40"><a xlink:href="_test_rotating_mask_control_8h_source.html" target="_top" xlink:title="TestRotatingMaskControl.h">
<polygon fill="white" stroke="black" points="1466.04,-112.5 1466.04,-131.5 1603.04,-131.5 1603.04,-112.5 1466.04,-112.5"/>
<text text-anchor="middle" x="1534.54" y="-119.5" font-family="Helvetica,sans-Serif" font-size="10.00">TestRotatingMaskControl.h</text>
</a>
</g>
</g>
<!-- Node1&#45;&gt;Node40 -->
<g id="edge65" class="edge"><title>Node1&#45;&gt;Node40</title>
<path fill="none" stroke="midnightblue" d="M1534.54,-157.805C1534.54,-148.91 1534.54,-138.78 1534.54,-131.751"/>
<polygon fill="midnightblue" stroke="midnightblue" points="1531.04,-158.083 1534.54,-168.083 1538.04,-158.083 1531.04,-158.083"/>
</g>
<!-- Node41 -->
<g id="node41" class="node"><title>Node41</title>
<g id="a_node41"><a xlink:href="_i_control_8cpp_source.html" target="_top" xlink:title="IControl.cpp">
<polygon fill="white" stroke="black" points="3507.54,-112.5 3507.54,-131.5 3577.54,-131.5 3577.54,-112.5 3507.54,-112.5"/>
<text text-anchor="middle" x="3542.54" y="-119.5" font-family="Helvetica,sans-Serif" font-size="10.00">IControl.cpp</text>
</a>
</g>
</g>
<!-- Node1&#45;&gt;Node41 -->
<g id="edge67" class="edge"><title>Node1&#45;&gt;Node41</title>
<path fill="none" stroke="midnightblue" d="M1574.49,-177.059C1818.12,-177.269 3106.36,-176.242 3498.54,-132 3501.33,-131.685 3504.21,-131.281 3507.09,-130.819"/>
<polygon fill="midnightblue" stroke="midnightblue" points="1574.33,-173.559 1564.33,-177.049 1574.32,-180.559 1574.33,-173.559"/>
</g>
<!-- Node42 -->
<g id="node42" class="node"><title>Node42</title>
<g id="a_node42"><a xlink:href="_i_graphics_live_edit_8h.html" target="_top" xlink:title="A control to enable live modification of control layout in an IGraphics context in debug builds This ...">
<polygon fill="white" stroke="black" points="1171.54,-56.5 1171.54,-75.5 1273.54,-75.5 1273.54,-56.5 1171.54,-56.5"/>
<text text-anchor="middle" x="1222.54" y="-63.5" font-family="Helvetica,sans-Serif" font-size="10.00">IGraphicsLiveEdit.h</text>
</a>
</g>
</g>
<!-- Node1&#45;&gt;Node42 -->
<g id="edge69" class="edge"><title>Node1&#45;&gt;Node42</title>
<path fill="none" stroke="midnightblue" d="M1494.44,-176.054C1388.3,-173.139 1106.24,-162.562 1078.54,-132 1072.58,-125.413 1073.28,-119.162 1078.54,-112 1090.22,-96.1201 1137.94,-83.3588 1175.28,-75.5376"/>
<polygon fill="midnightblue" stroke="midnightblue" points="1494.65,-179.561 1504.74,-176.328 1494.83,-172.563 1494.65,-179.561"/>
</g>
<!-- Node43 -->
<g id="node43" class="node"><title>Node43</title>
<g id="a_node43"><a xlink:href="_i_graphics_editor_delegate_8cpp_source.html" target="_top" xlink:title="IGraphicsEditorDelegate.cpp">
<polygon fill="white" stroke="black" points="3595.54,-112.5 3595.54,-131.5 3737.54,-131.5 3737.54,-112.5 3595.54,-112.5"/>
<text text-anchor="middle" x="3666.54" y="-119.5" font-family="Helvetica,sans-Serif" font-size="10.00">IGraphicsEditorDelegate.cpp</text>
</a>
</g>
</g>
<!-- Node1&#45;&gt;Node43 -->
<g id="edge71" class="edge"><title>Node1&#45;&gt;Node43</title>
<path fill="none" stroke="midnightblue" d="M1574.26,-176.618C1823.44,-174.15 3174.05,-159.669 3586.54,-132 3589.47,-131.804 3592.46,-131.579 3595.47,-131.332"/>
<polygon fill="midnightblue" stroke="midnightblue" points="1574.17,-173.119 1564.21,-176.717 1574.24,-180.119 1574.17,-173.119"/>
</g>
<!-- Node2&#45;&gt;Node3 -->
<g id="edge2" class="edge"><title>Node2&#45;&gt;Node3</title>
<path fill="none" stroke="midnightblue" d="M125.525,-110.576C185.302,-99.4452 278.004,-82.1834 326.858,-73.0865"/>
<polygon fill="midnightblue" stroke="midnightblue" points="124.686,-107.172 115.496,-112.444 125.967,-114.054 124.686,-107.172"/>
</g>
<!-- Node4 -->
<g id="node4" class="node"><title>Node4</title>
<g id="a_node4"><a xlink:href="_i_controls_8cpp.html" target="_top" xlink:title="IControls implementation. ">
<polygon fill="white" stroke="black" points="322.044,-0.5 322.044,-19.5 397.044,-19.5 397.044,-0.5 322.044,-0.5"/>
<text text-anchor="middle" x="359.544" y="-7.5" font-family="Helvetica,sans-Serif" font-size="10.00">IControls.cpp</text>
</a>
</g>
</g>
<!-- Node3&#45;&gt;Node4 -->
<g id="edge3" class="edge"><title>Node3&#45;&gt;Node4</title>
<path fill="none" stroke="midnightblue" d="M359.544,-45.8045C359.544,-36.9102 359.544,-26.7798 359.544,-19.7511"/>
<polygon fill="midnightblue" stroke="midnightblue" points="356.044,-46.083 359.544,-56.083 363.044,-46.083 356.044,-46.083"/>
</g>
<!-- Node3&#45;&gt;Node5 -->
<g id="edge4" class="edge"><title>Node3&#45;&gt;Node5</title>
<path fill="none" stroke="midnightblue" d="M402.078,-60.7467C504.333,-50.5211 762.731,-24.6813 860.897,-14.8647"/>
<polygon fill="midnightblue" stroke="midnightblue" points="401.71,-57.2659 392.108,-61.7437 402.406,-64.2312 401.71,-57.2659"/>
</g>
<!-- Node6&#45;&gt;Node3 -->
<g id="edge7" class="edge"><title>Node6&#45;&gt;Node3</title>
<path fill="none" stroke="midnightblue" d="M232.247,-109.172C262.94,-99.0039 306.463,-84.5852 333.837,-75.5164"/>
<polygon fill="midnightblue" stroke="midnightblue" points="230.764,-105.976 222.372,-112.444 232.965,-112.621 230.764,-105.976"/>
</g>
<!-- Node7&#45;&gt;Node3 -->
<g id="edge9" class="edge"><title>Node7&#45;&gt;Node3</title>
<path fill="none" stroke="midnightblue" d="M327.658,-104.431C335.72,-94.9673 345.503,-83.4827 352.09,-75.7511"/>
<polygon fill="midnightblue" stroke="midnightblue" points="324.961,-102.201 321.14,-112.083 330.289,-106.74 324.961,-102.201"/>
</g>
<!-- Node8&#45;&gt;Node3 -->
<g id="edge11" class="edge"><title>Node8&#45;&gt;Node3</title>
<path fill="none" stroke="midnightblue" d="M406.272,-105.82C394.626,-96.1452 379.945,-83.9481 370.178,-75.8339"/>
<polygon fill="midnightblue" stroke="midnightblue" points="404.172,-108.626 414.101,-112.324 408.645,-103.242 404.172,-108.626"/>
</g>
<!-- Node9&#45;&gt;Node3 -->
<g id="edge13" class="edge"><title>Node9&#45;&gt;Node3</title>
<path fill="none" stroke="midnightblue" d="M506.166,-109.568C471.079,-99.381 420.523,-84.7034 388.879,-75.5164"/>
<polygon fill="midnightblue" stroke="midnightblue" points="505.493,-113.017 516.072,-112.444 507.444,-106.294 505.493,-113.017"/>
</g>
<!-- Node10&#45;&gt;Node3 -->
<g id="edge15" class="edge"><title>Node10&#45;&gt;Node3</title>
<path fill="none" stroke="midnightblue" d="M609.535,-111.116C545.942,-99.8937 444.308,-81.9582 392.393,-72.7968"/>
<polygon fill="midnightblue" stroke="midnightblue" points="608.945,-114.566 619.402,-112.857 610.162,-107.673 608.945,-114.566"/>
</g>
<!-- Node11&#45;&gt;Node5 -->
<g id="edge17" class="edge"><title>Node11&#45;&gt;Node5</title>
<path fill="none" stroke="midnightblue" d="M619.387,-54.8508C690.429,-43.731 802.059,-26.2586 860.659,-17.0865"/>
<polygon fill="midnightblue" stroke="midnightblue" points="618.549,-51.4392 609.21,-56.4435 619.631,-58.355 618.549,-51.4392"/>
</g>
<!-- Node12&#45;&gt;Node5 -->
<g id="edge19" class="edge"><title>Node12&#45;&gt;Node5</title>
<path fill="none" stroke="midnightblue" d="M1056.11,-53.6986C1018.74,-43.507 964.601,-28.7429 930.771,-19.5164"/>
<polygon fill="midnightblue" stroke="midnightblue" points="1055.6,-57.189 1066.17,-56.4435 1057.44,-50.4356 1055.6,-57.189"/>
</g>
<!-- Node13&#45;&gt;Node5 -->
<g id="edge22" class="edge"><title>Node13&#45;&gt;Node5</title>
<path fill="none" stroke="midnightblue" d="M899.544,-102.348C899.544,-78.2538 899.544,-37.3079 899.544,-19.5914"/>
<polygon fill="midnightblue" stroke="midnightblue" points="896.044,-102.368 899.544,-112.368 903.044,-102.369 896.044,-102.368"/>
</g>
<!-- Node14 -->
<g id="node14" class="node"><title>Node14</title>
<g id="a_node14"><a xlink:href="_i_popup_menu_control_8cpp.html" target="_top" xlink:title="IPopupMenuControl implementation. ">
<polygon fill="white" stroke="black" points="749.544,-56.5 749.544,-75.5 871.544,-75.5 871.544,-56.5 749.544,-56.5"/>
<text text-anchor="middle" x="810.544" y="-63.5" font-family="Helvetica,sans-Serif" font-size="10.00">IPopupMenuControl.cpp</text>
</a>
</g>
</g>
<!-- Node13&#45;&gt;Node14 -->
<g id="edge21" class="edge"><title>Node13&#45;&gt;Node14</title>
<path fill="none" stroke="midnightblue" d="M876.306,-106.901C859.986,-96.9986 838.679,-84.0705 824.808,-75.6545"/>
<polygon fill="midnightblue" stroke="midnightblue" points="874.88,-110.129 885.245,-112.324 878.511,-104.144 874.88,-110.129"/>
</g>
<!-- Node13&#45;&gt;Node15 -->
<g id="edge23" class="edge"><title>Node13&#45;&gt;Node15</title>
<path fill="none" stroke="midnightblue" d="M855.436,-110.024C814.445,-99.8232 754.24,-84.8414 716.768,-75.5164"/>
<polygon fill="midnightblue" stroke="midnightblue" points="854.611,-113.425 865.16,-112.444 856.301,-106.632 854.611,-113.425"/>
</g>
<!-- Node13&#45;&gt;Node16 -->
<g id="edge24" class="edge"><title>Node13&#45;&gt;Node16</title>
<path fill="none" stroke="midnightblue" d="M920.12,-106.38C933.856,-96.6204 951.47,-84.1057 963.111,-75.8339"/>
<polygon fill="midnightblue" stroke="midnightblue" points="917.88,-103.679 911.755,-112.324 921.934,-109.385 917.88,-103.679"/>
</g>
<!-- Node17&#45;&gt;Node5 -->
<g id="edge30" class="edge"><title>Node17&#45;&gt;Node5</title>
<path fill="none" stroke="midnightblue" d="M1194.89,-110.364C1230.18,-102.429 1270.92,-90.4819 1281.54,-76 1286.8,-68.8331 1287.45,-62.6429 1281.54,-56 1258.97,-30.6109 1030.9,-17.1509 938.304,-12.6981"/>
<polygon fill="midnightblue" stroke="midnightblue" points="1194.14,-106.947 1185.11,-112.495 1195.63,-113.786 1194.14,-106.947"/>
</g>
<!-- Node18 -->
<g id="node18" class="node"><title>Node18</title>
<g id="a_node18"><a xlink:href="_i_text_entry_control_8cpp.html" target="_top" xlink:title="ITextEntryControl implementation. ">
<polygon fill="white" stroke="black" points="1330.04,-56.5 1330.04,-75.5 1443.04,-75.5 1443.04,-56.5 1330.04,-56.5"/>
<text text-anchor="middle" x="1386.54" y="-63.5" font-family="Helvetica,sans-Serif" font-size="10.00">ITextEntryControl.cpp</text>
</a>
</g>
</g>
<!-- Node17&#45;&gt;Node18 -->
<g id="edge26" class="edge"><title>Node17&#45;&gt;Node18</title>
<path fill="none" stroke="midnightblue" d="M1187.77,-110.281C1234.64,-100.077 1304.24,-84.9203 1347.43,-75.5164"/>
<polygon fill="midnightblue" stroke="midnightblue" points="1186.87,-106.896 1177.84,-112.444 1188.36,-113.736 1186.87,-106.896"/>
</g>
<!-- Node19 -->
<g id="node19" class="node"><title>Node19</title>
<g id="a_node19"><a xlink:href="_i_graphics_cairo_8cpp_source.html" target="_top" xlink:title="IGraphicsCairo.cpp">
<polygon fill="white" stroke="black" points="1461.04,-56.5 1461.04,-75.5 1562.04,-75.5 1562.04,-56.5 1461.04,-56.5"/>
<text text-anchor="middle" x="1511.54" y="-63.5" font-family="Helvetica,sans-Serif" font-size="10.00">IGraphicsCairo.cpp</text>
</a>
</g>
</g>
<!-- Node17&#45;&gt;Node19 -->
<g id="edge27" class="edge"><title>Node17&#45;&gt;Node19</title>
<path fill="none" stroke="midnightblue" d="M1199.69,-111.842C1312.59,-95.3867 1342.34,-91.959 1451.54,-76 1454.57,-75.5583 1457.67,-75.1011 1460.81,-74.6377"/>
<polygon fill="midnightblue" stroke="midnightblue" points="1198.99,-108.406 1189.6,-113.314 1200,-115.333 1198.99,-108.406"/>
</g>
<!-- Node20 -->
<g id="node20" class="node"><title>Node20</title>
<g id="a_node20"><a xlink:href="_i_graphics_lice_8cpp_source.html" target="_top" xlink:title="IGraphicsLice.cpp">
<polygon fill="white" stroke="black" points="1580.04,-56.5 1580.04,-75.5 1675.04,-75.5 1675.04,-56.5 1580.04,-56.5"/>
<text text-anchor="middle" x="1627.54" y="-63.5" font-family="Helvetica,sans-Serif" font-size="10.00">IGraphicsLice.cpp</text>
</a>
</g>
</g>
<!-- Node17&#45;&gt;Node20 -->
<g id="edge28" class="edge"><title>Node17&#45;&gt;Node20</title>
<path fill="none" stroke="midnightblue" d="M1199.62,-111.93C1365.1,-91.8695 1408.98,-96.5532 1570.54,-76 1573.63,-75.6081 1576.8,-75.1791 1579.99,-74.7277"/>
<polygon fill="midnightblue" stroke="midnightblue" points="1199.08,-108.469 1189.58,-113.158 1199.93,-115.417 1199.08,-108.469"/>
</g>
<!-- Node21 -->
<g id="node21" class="node"><title>Node21</title>
<g id="a_node21"><a xlink:href="_i_graphics_nano_v_g_8cpp_source.html" target="_top" xlink:title="IGraphicsNanoVG.cpp">
<polygon fill="white" stroke="black" points="1693.04,-56.5 1693.04,-75.5 1808.04,-75.5 1808.04,-56.5 1693.04,-56.5"/>
<text text-anchor="middle" x="1750.54" y="-63.5" font-family="Helvetica,sans-Serif" font-size="10.00">IGraphicsNanoVG.cpp</text>
</a>
</g>
</g>
<!-- Node17&#45;&gt;Node21 -->
<g id="edge29" class="edge"><title>Node17&#45;&gt;Node21</title>
<path fill="none" stroke="midnightblue" d="M1199.62,-111.963C1415.06,-88.2601 1471.81,-98.0591 1683.54,-76 1686.58,-75.6838 1689.69,-75.339 1692.83,-74.9746"/>
<polygon fill="midnightblue" stroke="midnightblue" points="1199.13,-108.497 1189.57,-113.08 1199.9,-115.454 1199.13,-108.497"/>
</g>
<!-- Node23 -->
<g id="node23" class="node"><title>Node23</title>
<g id="a_node23"><a xlink:href="_test_controls_8h.html" target="_top" xlink:title="Include all the test controls. ">
<polygon fill="white" stroke="black" points="2322.04,-56.5 2322.04,-75.5 2403.04,-75.5 2403.04,-56.5 2322.04,-56.5"/>
<text text-anchor="middle" x="2362.54" y="-63.5" font-family="Helvetica,sans-Serif" font-size="10.00">TestControls.h</text>
</a>
</g>
</g>
<!-- Node22&#45;&gt;Node23 -->
<g id="edge32" class="edge"><title>Node22&#45;&gt;Node23</title>
<path fill="none" stroke="midnightblue" d="M1750.57,-111.953C1972.58,-89.6151 2225.08,-74.5718 2321.95,-69.1858"/>
<polygon fill="midnightblue" stroke="midnightblue" points="1749.96,-108.498 1740.36,-112.988 1750.66,-115.462 1749.96,-108.498"/>
</g>
<!-- Node24&#45;&gt;Node23 -->
<g id="edge34" class="edge"><title>Node24&#45;&gt;Node23</title>
<path fill="none" stroke="midnightblue" d="M1859.23,-112.008C2037.84,-89.7646 2237.74,-75.2507 2321.93,-69.6137"/>
<polygon fill="midnightblue" stroke="midnightblue" points="1858.61,-108.558 1849.13,-113.278 1859.48,-115.504 1858.61,-108.558"/>
</g>
<!-- Node25&#45;&gt;Node23 -->
<g id="edge36" class="edge"><title>Node25&#45;&gt;Node23</title>
<path fill="none" stroke="midnightblue" d="M1978.55,-111.905C2110.46,-94.4419 2253.58,-78.652 2322.03,-71.2972"/>
<polygon fill="midnightblue" stroke="midnightblue" points="1977.72,-108.485 1968.27,-113.273 1978.64,-115.424 1977.72,-108.485"/>
</g>
<!-- Node26&#45;&gt;Node23 -->
<g id="edge38" class="edge"><title>Node26&#45;&gt;Node23</title>
<path fill="none" stroke="midnightblue" d="M2095.41,-111.113C2161.11,-100.264 2264.79,-83.1429 2321.73,-73.7393"/>
<polygon fill="midnightblue" stroke="midnightblue" points="2094.5,-107.716 2085.21,-112.799 2095.65,-114.622 2094.5,-107.716"/>
</g>
<!-- Node27&#45;&gt;Node23 -->
<g id="edge40" class="edge"><title>Node27&#45;&gt;Node23</title>
<path fill="none" stroke="midnightblue" d="M2205.98,-109.699C2243.35,-99.507 2297.49,-84.7429 2331.32,-75.5164"/>
<polygon fill="midnightblue" stroke="midnightblue" points="2204.64,-106.436 2195.92,-112.444 2206.49,-113.189 2204.64,-106.436"/>
</g>
<!-- Node28&#45;&gt;Node23 -->
<g id="edge42" class="edge"><title>Node28&#45;&gt;Node23</title>
<path fill="none" stroke="midnightblue" d="M2318.3,-105.537C2329.35,-95.9087 2343.18,-83.8694 2352.4,-75.8339"/>
<polygon fill="midnightblue" stroke="midnightblue" points="2315.75,-103.117 2310.51,-112.324 2320.35,-108.395 2315.75,-103.117"/>
</g>
<!-- Node29&#45;&gt;Node23 -->
<g id="edge44" class="edge"><title>Node29&#45;&gt;Node23</title>
<path fill="none" stroke="midnightblue" d="M2407.5,-105.537C2396.27,-95.9087 2382.23,-83.8694 2372.85,-75.8339"/>
<polygon fill="midnightblue" stroke="midnightblue" points="2405.55,-108.473 2415.42,-112.324 2410.11,-103.159 2405.55,-108.473"/>
</g>
<!-- Node30&#45;&gt;Node23 -->
<g id="edge46" class="edge"><title>Node30&#45;&gt;Node23</title>
<path fill="none" stroke="midnightblue" d="M2512.78,-109.699C2476.92,-99.507 2424.97,-84.7429 2392.51,-75.5164"/>
<polygon fill="midnightblue" stroke="midnightblue" points="2511.86,-113.076 2522.44,-112.444 2513.78,-106.343 2511.86,-113.076"/>
</g>
<!-- Node31&#45;&gt;Node23 -->
<g id="edge48" class="edge"><title>Node31&#45;&gt;Node23</title>
<path fill="none" stroke="midnightblue" d="M2618.75,-111.061C2556.2,-100.304 2458.06,-83.4262 2403.17,-73.9874"/>
<polygon fill="midnightblue" stroke="midnightblue" points="2618.41,-114.553 2628.85,-112.799 2619.59,-107.654 2618.41,-114.553"/>
</g>
<!-- Node32&#45;&gt;Node23 -->
<g id="edge50" class="edge"><title>Node32&#45;&gt;Node23</title>
<path fill="none" stroke="midnightblue" d="M2731.75,-111.935C2605.6,-94.4502 2469.48,-78.8498 2403.12,-71.4569"/>
<polygon fill="midnightblue" stroke="midnightblue" points="2731.59,-115.446 2741.98,-113.36 2732.56,-108.513 2731.59,-115.446"/>
</g>
<!-- Node33&#45;&gt;Node23 -->
<g id="edge52" class="edge"><title>Node33&#45;&gt;Node23</title>
<path fill="none" stroke="midnightblue" d="M2845.17,-111.986C2674.21,-94.1379 2484.84,-77.4891 2403.29,-70.4709"/>
<polygon fill="midnightblue" stroke="midnightblue" points="2845.05,-115.493 2855.36,-113.054 2845.78,-108.531 2845.05,-115.493"/>
</g>
<!-- Node34&#45;&gt;Node23 -->
<g id="edge54" class="edge"><title>Node34&#45;&gt;Node23</title>
<path fill="none" stroke="midnightblue" d="M2998.06,-112.052C2766.84,-86.0529 2502.77,-72.9945 2403.21,-68.663"/>
<polygon fill="midnightblue" stroke="midnightblue" points="2997.67,-115.53 3008,-113.18 2998.46,-108.575 2997.67,-115.53"/>
</g>
<!-- Node35&#45;&gt;Node23 -->
<g id="edge56" class="edge"><title>Node35&#45;&gt;Node23</title>
<path fill="none" stroke="midnightblue" d="M3110.63,-112.013C2834.2,-82.7864 2514.68,-71.403 2403.25,-68.1015"/>
<polygon fill="midnightblue" stroke="midnightblue" points="3110.54,-115.524 3120.85,-113.105 3111.28,-108.563 3110.54,-115.524"/>
</g>
<!-- Node36&#45;&gt;Node23 -->
<g id="edge58" class="edge"><title>Node36&#45;&gt;Node23</title>
<path fill="none" stroke="midnightblue" d="M3225.97,-112.052C2902.59,-80.3108 2525.64,-70.3136 2403.13,-67.7527"/>
<polygon fill="midnightblue" stroke="midnightblue" points="3225.71,-115.543 3236,-113.046 3226.4,-108.577 3225.71,-115.543"/>
</g>
<!-- Node37&#45;&gt;Node23 -->
<g id="edge60" class="edge"><title>Node37&#45;&gt;Node23</title>
<path fill="none" stroke="midnightblue" d="M3347.07,-112.034C2974.02,-81.8416 2537.18,-70.6844 2403.43,-67.8101"/>
<polygon fill="midnightblue" stroke="midnightblue" points="3347,-115.54 3357.25,-112.864 3347.57,-108.563 3347,-115.54"/>
</g>
<!-- Node38&#45;&gt;Node23 -->
<g id="edge62" class="edge"><title>Node38&#45;&gt;Node23</title>
<path fill="none" stroke="midnightblue" d="M1323.26,-111.935C1717.68,-74.9692 2183.21,-68.421 2321.76,-67.2505"/>
<polygon fill="midnightblue" stroke="midnightblue" points="1322.7,-108.472 1313.07,-112.898 1323.36,-115.441 1322.7,-108.472"/>
</g>
<!-- Node39&#45;&gt;Node23 -->
<g id="edge64" class="edge"><title>Node39&#45;&gt;Node23</title>
<path fill="none" stroke="midnightblue" d="M1458.36,-111.904C1797.67,-81.1852 2195.31,-70.5657 2321.82,-67.8054"/>
<polygon fill="midnightblue" stroke="midnightblue" points="1457.98,-108.424 1448.34,-112.818 1458.62,-115.395 1457.98,-108.424"/>
</g>
<!-- Node40&#45;&gt;Node23 -->
<g id="edge66" class="edge"><title>Node40&#45;&gt;Node23</title>
<path fill="none" stroke="midnightblue" d="M1613.68,-111.95C1890.76,-87.9538 2210.4,-73.3535 2321.84,-68.6549"/>
<polygon fill="midnightblue" stroke="midnightblue" points="1613.08,-108.489 1603.43,-112.844 1613.69,-115.462 1613.08,-108.489"/>
</g>
<!-- Node42&#45;&gt;Node5 -->
<g id="edge70" class="edge"><title>Node42&#45;&gt;Node5</title>
<path fill="none" stroke="midnightblue" d="M1161.16,-54.7379C1095.57,-43.7718 993.587,-26.7223 938.32,-17.4826"/>
<polygon fill="midnightblue" stroke="midnightblue" points="1160.92,-58.2466 1171.36,-56.4435 1162.08,-51.3424 1160.92,-58.2466"/>
</g>
</g>
</svg>
