<?xml version="1.0" encoding="UTF-8" standalone="no"?>
<!DOCTYPE svg PUBLIC "-//W3C//DTD SVG 1.1//EN"
 "http://www.w3.org/Graphics/SVG/1.1/DTD/svg11.dtd">
<!-- Generated by graphviz version 2.36.0 (20140111.2315)
 -->
<!-- Title: IGraphicsPathBase.h Pages: 1 -->
<svg width="1923pt" height="532pt"
 viewBox="0.00 0.00 1922.68 532.00" xmlns="http://www.w3.org/2000/svg" xmlns:xlink="http://www.w3.org/1999/xlink">
<g id="graph0" class="graph" transform="scale(1 1) rotate(0) translate(4 528)">
<title>IGraphicsPathBase.h</title>
<polygon fill="white" stroke="none" points="-4,4 -4,-528 1918.68,-528 1918.68,4 -4,4"/>
<!-- Node1 -->
<g id="node1" class="node"><title>Node1</title>
<polygon fill="#bfbfbf" stroke="black" points="192.14,-504.5 192.14,-523.5 302.14,-523.5 302.14,-504.5 192.14,-504.5"/>
<text text-anchor="middle" x="247.14" y="-511.5" font-family="Helvetica,sans-Serif" font-size="10.00">IGraphicsPathBase.h</text>
</g>
<!-- Node2 -->
<g id="node2" class="node"><title>Node2</title>
<polygon fill="white" stroke="#bfbfbf" points="671.14,-56.5 671.14,-75.5 727.14,-75.5 727.14,-56.5 671.14,-56.5"/>
<text text-anchor="middle" x="699.14" y="-63.5" font-family="Helvetica,sans-Serif" font-size="10.00">algorithm</text>
</g>
<!-- Node1&#45;&gt;Node2 -->
<g id="edge1" class="edge"><title>Node1&#45;&gt;Node2</title>
<path fill="none" stroke="midnightblue" d="M191.933,-511.738C119.404,-506.81 1.14008,-486.041 1.14008,-403 1.14008,-403 1.14008,-403 1.14008,-177 1.14008,-146.902 -3.42023,-130.729 20.1401,-112 75.1986,-68.2311 582.336,-84.633 652.14,-76 655,-75.6463 657.948,-75.2232 660.907,-74.756"/>
<polygon fill="midnightblue" stroke="midnightblue" points="661.642,-78.1811 670.903,-73.0345 660.454,-71.2827 661.642,-78.1811"/>
</g>
<!-- Node3 -->
<g id="node3" class="node"><title>Node3</title>
<polygon fill="white" stroke="#bfbfbf" points="253.64,-392.5 253.64,-411.5 294.64,-411.5 294.64,-392.5 253.64,-392.5"/>
<text text-anchor="middle" x="274.14" y="-399.5" font-family="Helvetica,sans-Serif" font-size="10.00">stack</text>
</g>
<!-- Node1&#45;&gt;Node3 -->
<g id="edge2" class="edge"><title>Node1&#45;&gt;Node3</title>
<path fill="none" stroke="midnightblue" d="M249.259,-504.368C253.616,-486.617 263.667,-445.666 269.575,-421.597"/>
<polygon fill="midnightblue" stroke="midnightblue" points="273.047,-422.137 272.031,-411.591 266.248,-420.469 273.047,-422.137"/>
</g>
<!-- Node4 -->
<g id="node4" class="node"><title>Node4</title>
<g id="a_node4"><a xlink:href="_i_graphics_8h.html" target="_top" xlink:title="The lowest level base class of an IGraphics context. ">
<polygon fill="white" stroke="black" points="423.64,-448.5 423.64,-467.5 490.64,-467.5 490.64,-448.5 423.64,-448.5"/>
<text text-anchor="middle" x="457.14" y="-455.5" font-family="Helvetica,sans-Serif" font-size="10.00">IGraphics.h</text>
</a>
</g>
</g>
<!-- Node1&#45;&gt;Node4 -->
<g id="edge3" class="edge"><title>Node1&#45;&gt;Node4</title>
<path fill="none" stroke="midnightblue" d="M280.415,-504.444C316.588,-495.142 374.517,-480.246 414.121,-470.062"/>
<polygon fill="midnightblue" stroke="midnightblue" points="415.207,-473.397 424.021,-467.516 413.464,-466.617 415.207,-473.397"/>
</g>
<!-- Node27 -->
<g id="node27" class="node"><title>Node27</title>
<polygon fill="white" stroke="#bfbfbf" points="503.14,-112.5 503.14,-131.5 565.14,-131.5 565.14,-112.5 503.14,-112.5"/>
<text text-anchor="middle" x="534.14" y="-119.5" font-family="Helvetica,sans-Serif" font-size="10.00">nanosvg.h</text>
</g>
<!-- Node1&#45;&gt;Node27 -->
<g id="edge82" class="edge"><title>Node1&#45;&gt;Node27</title>
<path fill="none" stroke="midnightblue" d="M244.53,-504.313C238.846,-483.75 227.163,-430.904 244.14,-392 273.335,-325.099 454.024,-183.809 514.468,-137.812"/>
<polygon fill="midnightblue" stroke="midnightblue" points="516.934,-140.335 522.789,-131.505 512.705,-134.756 516.934,-140.335"/>
</g>
<!-- Node4&#45;&gt;Node3 -->
<g id="edge80" class="edge"><title>Node4&#45;&gt;Node3</title>
<path fill="none" stroke="midnightblue" d="M428.143,-448.444C394.441,-438.499 339.067,-422.159 304.708,-412.02"/>
<polygon fill="midnightblue" stroke="midnightblue" points="305.348,-408.56 294.766,-409.086 303.367,-415.274 305.348,-408.56"/>
</g>
<!-- Node5 -->
<g id="node5" class="node"><title>Node5</title>
<g id="a_node5"><a xlink:href="_i_plug_constants_8h.html" target="_top" xlink:title="IPlug Constant definitions, Types, magic numbers. ">
<polygon fill="white" stroke="black" points="1791.14,-56.5 1791.14,-75.5 1883.14,-75.5 1883.14,-56.5 1791.14,-56.5"/>
<text text-anchor="middle" x="1837.14" y="-63.5" font-family="Helvetica,sans-Serif" font-size="10.00">IPlugConstants.h</text>
</a>
</g>
</g>
<!-- Node4&#45;&gt;Node5 -->
<g id="edge4" class="edge"><title>Node4&#45;&gt;Node5</title>
<path fill="none" stroke="midnightblue" d="M490.648,-456.336C652.098,-453.03 1350.82,-437.485 1567.14,-412 1706.52,-395.58 1876.14,-487.339 1876.14,-347 1876.14,-347 1876.14,-347 1876.14,-177 1876.14,-142.716 1859.1,-105.698 1847.55,-84.5372"/>
<polygon fill="midnightblue" stroke="midnightblue" points="1850.54,-82.7198 1842.56,-75.7504 1844.45,-86.175 1850.54,-82.7198"/>
</g>
<!-- Node6 -->
<g id="node6" class="node"><title>Node6</title>
<g id="a_node6"><a xlink:href="_i_plug_logger_8h.html" target="_top" xlink:title="IPlug logging a.k.a tracing functionality. ">
<polygon fill="white" stroke="black" points="1488.64,-168.5 1488.64,-187.5 1565.64,-187.5 1565.64,-168.5 1488.64,-168.5"/>
<text text-anchor="middle" x="1527.14" y="-175.5" font-family="Helvetica,sans-Serif" font-size="10.00">IPlugLogger.h</text>
</a>
</g>
</g>
<!-- Node4&#45;&gt;Node6 -->
<g id="edge5" class="edge"><title>Node4&#45;&gt;Node6</title>
<path fill="none" stroke="midnightblue" d="M490.934,-456.129C702.717,-450.456 1838.14,-416.787 1838.14,-347 1838.14,-347 1838.14,-347 1838.14,-289 1838.14,-234.048 1663.38,-199.67 1575.87,-185.9"/>
<polygon fill="midnightblue" stroke="midnightblue" points="1576.32,-182.428 1565.9,-184.361 1575.25,-189.346 1576.32,-182.428"/>
</g>
<!-- Node20 -->
<g id="node20" class="node"><title>Node20</title>
<g id="a_node20"><a xlink:href="_i_graphics_constants_8h_source.html" target="_top" xlink:title="IGraphicsConstants.h">
<polygon fill="white" stroke="black" points="29.1401,-112.5 29.1401,-131.5 141.14,-131.5 141.14,-112.5 29.1401,-112.5"/>
<text text-anchor="middle" x="85.1401" y="-119.5" font-family="Helvetica,sans-Serif" font-size="10.00">IGraphicsConstants.h</text>
</a>
</g>
</g>
<!-- Node4&#45;&gt;Node20 -->
<g id="edge28" class="edge"><title>Node4&#45;&gt;Node20</title>
<path fill="none" stroke="midnightblue" d="M435.522,-448.452C416.769,-440.497 389.374,-427.548 368.14,-412 249.44,-325.088 135.492,-186.882 98.0114,-139.54"/>
<polygon fill="midnightblue" stroke="midnightblue" points="100.668,-137.256 91.7368,-131.557 95.1646,-141.582 100.668,-137.256"/>
</g>
<!-- Node21 -->
<g id="node21" class="node"><title>Node21</title>
<g id="a_node21"><a xlink:href="_i_graphics_structs_8h_source.html" target="_top" xlink:title="IGraphicsStructs.h">
<polygon fill="white" stroke="black" points="311.14,-168.5 311.14,-187.5 409.14,-187.5 409.14,-168.5 311.14,-168.5"/>
<text text-anchor="middle" x="360.14" y="-175.5" font-family="Helvetica,sans-Serif" font-size="10.00">IGraphicsStructs.h</text>
</a>
</g>
</g>
<!-- Node4&#45;&gt;Node21 -->
<g id="edge30" class="edge"><title>Node4&#45;&gt;Node21</title>
<path fill="none" stroke="midnightblue" d="M447.471,-448.247C438.654,-439.772 425.861,-426.159 418.14,-412 403.731,-385.576 399.14,-377.098 399.14,-347 399.14,-347 399.14,-347 399.14,-289 399.14,-254.716 382.103,-217.698 370.55,-196.537"/>
<polygon fill="midnightblue" stroke="midnightblue" points="373.543,-194.72 365.563,-187.75 367.455,-198.175 373.543,-194.72"/>
</g>
<!-- Node28 -->
<g id="node28" class="node"><title>Node28</title>
<g id="a_node28"><a xlink:href="_i_graphics_utilities_8h_source.html" target="_top" xlink:title="IGraphicsUtilities.h">
<polygon fill="white" stroke="black" points="271.14,-224.5 271.14,-243.5 371.14,-243.5 371.14,-224.5 271.14,-224.5"/>
<text text-anchor="middle" x="321.14" y="-231.5" font-family="Helvetica,sans-Serif" font-size="10.00">IGraphicsUtilities.h</text>
</a>
</g>
</g>
<!-- Node4&#45;&gt;Node28 -->
<g id="edge43" class="edge"><title>Node4&#45;&gt;Node28</title>
<path fill="none" stroke="midnightblue" d="M436.175,-448.487C420.182,-441.023 398.665,-428.74 385.14,-412 345.841,-363.36 329.533,-288.532 323.804,-253.849"/>
<polygon fill="midnightblue" stroke="midnightblue" points="327.226,-253.074 322.248,-243.722 320.307,-254.137 327.226,-253.074"/>
</g>
<!-- Node29 -->
<g id="node29" class="node"><title>Node29</title>
<g id="a_node29"><a xlink:href="_i_graphics_popup_menu_8h.html" target="_top" xlink:title="A class for setting the contents of a pop up menu. ">
<polygon fill="white" stroke="black" points="831.64,-168.5 831.64,-187.5 950.64,-187.5 950.64,-168.5 831.64,-168.5"/>
<text text-anchor="middle" x="891.14" y="-175.5" font-family="Helvetica,sans-Serif" font-size="10.00">IGraphicsPopupMenu.h</text>
</a>
</g>
</g>
<!-- Node4&#45;&gt;Node29 -->
<g id="edge46" class="edge"><title>Node4&#45;&gt;Node29</title>
<path fill="none" stroke="midnightblue" d="M490.669,-451.168C514.858,-445.269 546.577,-433.78 566.14,-412 586.252,-389.609 585.14,-377.098 585.14,-347 585.14,-347 585.14,-347 585.14,-289 585.14,-238.532 734.407,-204.902 824.437,-189.209"/>
<polygon fill="midnightblue" stroke="midnightblue" points="825.035,-192.657 834.301,-187.519 823.854,-185.758 825.035,-192.657"/>
</g>
<!-- Node30 -->
<g id="node30" class="node"><title>Node30</title>
<g id="a_node30"><a xlink:href="_i_graphics_editor_delegate_8h.html" target="_top" xlink:title="An editor delgate base class for a SOMETHING that uses IGraphics for it&#39;s UI. ">
<polygon fill="white" stroke="black" points="818.64,-392.5 818.64,-411.5 949.64,-411.5 949.64,-392.5 818.64,-392.5"/>
<text text-anchor="middle" x="884.14" y="-399.5" font-family="Helvetica,sans-Serif" font-size="10.00">IGraphicsEditorDelegate.h</text>
</a>
</g>
</g>
<!-- Node4&#45;&gt;Node30 -->
<g id="edge53" class="edge"><title>Node4&#45;&gt;Node30</title>
<path fill="none" stroke="midnightblue" d="M490.646,-452.763C558.746,-444.151 714.798,-424.416 808.632,-412.549"/>
<polygon fill="midnightblue" stroke="midnightblue" points="809.152,-416.011 818.634,-411.284 808.274,-409.067 809.152,-416.011"/>
</g>
<!-- Node37 -->
<g id="node37" class="node"><title>Node37</title>
<polygon fill="white" stroke="#bfbfbf" points="427.64,-392.5 427.64,-411.5 486.64,-411.5 486.64,-392.5 427.64,-392.5"/>
<text text-anchor="middle" x="457.14" y="-399.5" font-family="Helvetica,sans-Serif" font-size="10.00">heapbuf.h</text>
</g>
<!-- Node4&#45;&gt;Node37 -->
<g id="edge79" class="edge"><title>Node4&#45;&gt;Node37</title>
<path fill="none" stroke="midnightblue" d="M457.14,-448.083C457.14,-441.006 457.14,-430.861 457.14,-421.986"/>
<polygon fill="midnightblue" stroke="midnightblue" points="460.64,-421.751 457.14,-411.751 453.64,-421.751 460.64,-421.751"/>
</g>
<!-- Node38 -->
<g id="node38" class="node"><title>Node38</title>
<polygon fill="white" stroke="#bfbfbf" points="505.14,-392.5 505.14,-411.5 557.14,-411.5 557.14,-392.5 505.14,-392.5"/>
<text text-anchor="middle" x="531.14" y="-399.5" font-family="Helvetica,sans-Serif" font-size="10.00">memory</text>
</g>
<!-- Node4&#45;&gt;Node38 -->
<g id="edge81" class="edge"><title>Node4&#45;&gt;Node38</title>
<path fill="none" stroke="midnightblue" d="M469.029,-448.324C480.29,-440.107 497.427,-427.602 510.849,-417.807"/>
<polygon fill="midnightblue" stroke="midnightblue" points="513.02,-420.556 519.034,-411.834 508.893,-414.901 513.02,-420.556"/>
</g>
<!-- Node6&#45;&gt;Node5 -->
<g id="edge15" class="edge"><title>Node6&#45;&gt;Node5</title>
<path fill="none" stroke="midnightblue" d="M1565.86,-177.364C1617.04,-176.265 1708.6,-168.719 1776.14,-132 1797.08,-120.614 1814.91,-99.3982 1825.78,-84.3032"/>
<polygon fill="midnightblue" stroke="midnightblue" points="1828.83,-86.0568 1831.62,-75.8381 1823.06,-82.0816 1828.83,-86.0568"/>
</g>
<!-- Node7 -->
<g id="node7" class="node"><title>Node7</title>
<polygon fill="white" stroke="#bfbfbf" points="1199.64,-56.5 1199.64,-75.5 1242.64,-75.5 1242.64,-56.5 1199.64,-56.5"/>
<text text-anchor="middle" x="1221.14" y="-63.5" font-family="Helvetica,sans-Serif" font-size="10.00">cstdio</text>
</g>
<!-- Node6&#45;&gt;Node7 -->
<g id="edge6" class="edge"><title>Node6&#45;&gt;Node7</title>
<path fill="none" stroke="midnightblue" d="M1521.51,-168.13C1511.88,-153.754 1490.76,-125.606 1465.14,-112 1383.16,-68.4614 1348.08,-95.4806 1252.77,-75.8109"/>
<polygon fill="midnightblue" stroke="midnightblue" points="1253.25,-72.3332 1242.74,-73.6144 1251.76,-79.1713 1253.25,-72.3332"/>
</g>
<!-- Node8 -->
<g id="node8" class="node"><title>Node8</title>
<polygon fill="white" stroke="#bfbfbf" points="1261.14,-56.5 1261.14,-75.5 1307.14,-75.5 1307.14,-56.5 1261.14,-56.5"/>
<text text-anchor="middle" x="1284.14" y="-63.5" font-family="Helvetica,sans-Serif" font-size="10.00">cctype</text>
</g>
<!-- Node6&#45;&gt;Node8 -->
<g id="edge7" class="edge"><title>Node6&#45;&gt;Node8</title>
<path fill="none" stroke="midnightblue" d="M1526.54,-168.349C1525.09,-154.288 1520.11,-126.582 1503.14,-112 1475.61,-88.343 1371.41,-75.2338 1317.27,-69.8874"/>
<polygon fill="midnightblue" stroke="midnightblue" points="1317.43,-66.3872 1307.14,-68.9208 1316.76,-73.3555 1317.43,-66.3872"/>
</g>
<!-- Node9 -->
<g id="node9" class="node"><title>Node9</title>
<polygon fill="white" stroke="#bfbfbf" points="1555.64,-112.5 1555.64,-131.5 1604.64,-131.5 1604.64,-112.5 1555.64,-112.5"/>
<text text-anchor="middle" x="1580.14" y="-119.5" font-family="Helvetica,sans-Serif" font-size="10.00">cstdarg</text>
</g>
<!-- Node6&#45;&gt;Node9 -->
<g id="edge8" class="edge"><title>Node6&#45;&gt;Node9</title>
<path fill="none" stroke="midnightblue" d="M1535.89,-168.083C1543.61,-160.22 1555.04,-148.569 1564.36,-139.081"/>
<polygon fill="midnightblue" stroke="midnightblue" points="1567.04,-141.34 1571.55,-131.751 1562.05,-136.436 1567.04,-141.34"/>
</g>
<!-- Node10 -->
<g id="node10" class="node"><title>Node10</title>
<polygon fill="white" stroke="#bfbfbf" points="1377.14,-112.5 1377.14,-131.5 1423.14,-131.5 1423.14,-112.5 1377.14,-112.5"/>
<text text-anchor="middle" x="1400.14" y="-119.5" font-family="Helvetica,sans-Serif" font-size="10.00">cstdint</text>
</g>
<!-- Node6&#45;&gt;Node10 -->
<g id="edge9" class="edge"><title>Node6&#45;&gt;Node10</title>
<path fill="none" stroke="midnightblue" d="M1507.02,-168.444C1486.12,-159.557 1453.21,-145.563 1429.42,-135.451"/>
<polygon fill="midnightblue" stroke="midnightblue" points="1430.74,-132.208 1420.17,-131.516 1428,-138.65 1430.74,-132.208"/>
</g>
<!-- Node11 -->
<g id="node11" class="node"><title>Node11</title>
<polygon fill="white" stroke="#bfbfbf" points="1230.14,-0.5 1230.14,-19.5 1276.14,-19.5 1276.14,-0.5 1230.14,-0.5"/>
<text text-anchor="middle" x="1253.14" y="-7.5" font-family="Helvetica,sans-Serif" font-size="10.00">cstring</text>
</g>
<!-- Node6&#45;&gt;Node11 -->
<g id="edge10" class="edge"><title>Node6&#45;&gt;Node11</title>
<path fill="none" stroke="midnightblue" d="M1565.73,-177.769C1640.03,-177.96 1791.5,-171.35 1743.14,-112 1684.97,-40.6194 1387.04,-18.1957 1286.4,-12.5981"/>
<polygon fill="midnightblue" stroke="midnightblue" points="1286.38,-9.09206 1276.21,-12.0517 1286,-16.082 1286.38,-9.09206"/>
</g>
<!-- Node12 -->
<g id="node12" class="node"><title>Node12</title>
<polygon fill="white" stroke="#bfbfbf" points="1622.64,-112.5 1622.64,-131.5 1663.64,-131.5 1663.64,-112.5 1622.64,-112.5"/>
<text text-anchor="middle" x="1643.14" y="-119.5" font-family="Helvetica,sans-Serif" font-size="10.00">ctime</text>
</g>
<!-- Node6&#45;&gt;Node12 -->
<g id="edge11" class="edge"><title>Node6&#45;&gt;Node12</title>
<path fill="none" stroke="midnightblue" d="M1545.52,-168.444C1564.36,-159.675 1593.87,-145.935 1615.52,-135.858"/>
<polygon fill="midnightblue" stroke="midnightblue" points="1617.26,-138.91 1624.85,-131.516 1614.3,-132.564 1617.26,-138.91"/>
</g>
<!-- Node13 -->
<g id="node13" class="node"><title>Node13</title>
<polygon fill="white" stroke="#bfbfbf" points="995.64,-112.5 995.64,-131.5 1044.64,-131.5 1044.64,-112.5 995.64,-112.5"/>
<text text-anchor="middle" x="1020.14" y="-119.5" font-family="Helvetica,sans-Serif" font-size="10.00">cassert</text>
</g>
<!-- Node6&#45;&gt;Node13 -->
<g id="edge12" class="edge"><title>Node6&#45;&gt;Node13</title>
<path fill="none" stroke="midnightblue" d="M1488.62,-172.897C1393.03,-162.717 1146.14,-136.42 1054.79,-126.691"/>
<polygon fill="midnightblue" stroke="midnightblue" points="1055.01,-123.194 1044.69,-125.615 1054.27,-130.155 1055.01,-123.194"/>
</g>
<!-- Node14 -->
<g id="node14" class="node"><title>Node14</title>
<polygon fill="white" stroke="#bfbfbf" points="1041.14,-56.5 1041.14,-75.5 1105.14,-75.5 1105.14,-56.5 1041.14,-56.5"/>
<text text-anchor="middle" x="1073.14" y="-63.5" font-family="Helvetica,sans-Serif" font-size="10.00">wdlstring.h</text>
</g>
<!-- Node6&#45;&gt;Node14 -->
<g id="edge13" class="edge"><title>Node6&#45;&gt;Node14</title>
<path fill="none" stroke="midnightblue" d="M1515.08,-168.275C1491.6,-151.36 1441.25,-115.454 1432.14,-112 1403.04,-100.969 1203.9,-80.0537 1115.39,-71.1648"/>
<polygon fill="midnightblue" stroke="midnightblue" points="1115.71,-67.6798 1105.41,-70.1669 1115.02,-74.645 1115.71,-67.6798"/>
</g>
<!-- Node15 -->
<g id="node15" class="node"><title>Node15</title>
<polygon fill="white" stroke="#bfbfbf" points="1682.14,-112.5 1682.14,-131.5 1734.14,-131.5 1734.14,-112.5 1682.14,-112.5"/>
<text text-anchor="middle" x="1708.14" y="-119.5" font-family="Helvetica,sans-Serif" font-size="10.00">mutex.h</text>
</g>
<!-- Node6&#45;&gt;Node15 -->
<g id="edge14" class="edge"><title>Node6&#45;&gt;Node15</title>
<path fill="none" stroke="midnightblue" d="M1555.82,-168.444C1587.39,-159.024 1638.19,-143.868 1672.35,-133.677"/>
<polygon fill="midnightblue" stroke="midnightblue" points="1673.36,-137.028 1681.95,-130.815 1671.36,-130.32 1673.36,-137.028"/>
</g>
<!-- Node16 -->
<g id="node16" class="node"><title>Node16</title>
<g id="a_node16"><a xlink:href="_i_plug_utilities_8h.html" target="_top" xlink:title="Utility functions and macros. ">
<polygon fill="white" stroke="black" points="1203.14,-112.5 1203.14,-131.5 1283.14,-131.5 1283.14,-112.5 1203.14,-112.5"/>
<text text-anchor="middle" x="1243.14" y="-119.5" font-family="Helvetica,sans-Serif" font-size="10.00">IPlugUtilities.h</text>
</a>
</g>
</g>
<!-- Node6&#45;&gt;Node16 -->
<g id="edge16" class="edge"><title>Node6&#45;&gt;Node16</title>
<path fill="none" stroke="midnightblue" d="M1488.54,-169.661C1438,-160.051 1349.29,-143.183 1293.5,-132.576"/>
<polygon fill="midnightblue" stroke="midnightblue" points="1293.97,-129.101 1283.49,-130.672 1292.66,-135.978 1293.97,-129.101"/>
</g>
<!-- Node16&#45;&gt;Node2 -->
<g id="edge17" class="edge"><title>Node16&#45;&gt;Node2</title>
<path fill="none" stroke="midnightblue" d="M1203.08,-113.335C1200.06,-112.851 1197.05,-112.399 1194.14,-112 1149.31,-105.858 845.599,-79.568 737.359,-70.2722"/>
<polygon fill="midnightblue" stroke="midnightblue" points="737.476,-66.7695 727.213,-69.4015 736.877,-73.7438 737.476,-66.7695"/>
</g>
<!-- Node16&#45;&gt;Node5 -->
<g id="edge24" class="edge"><title>Node16&#45;&gt;Node5</title>
<path fill="none" stroke="midnightblue" d="M1283.5,-117.331C1387.02,-107.92 1662.16,-82.9069 1781.09,-72.0958"/>
<polygon fill="midnightblue" stroke="midnightblue" points="1781.44,-75.5785 1791.08,-71.1875 1780.8,-68.6073 1781.44,-75.5785"/>
</g>
<!-- Node16&#45;&gt;Node7 -->
<g id="edge19" class="edge"><title>Node16&#45;&gt;Node7</title>
<path fill="none" stroke="midnightblue" d="M1239.51,-112.083C1236.53,-104.77 1232.21,-94.1814 1228.52,-85.1034"/>
<polygon fill="midnightblue" stroke="midnightblue" points="1231.72,-83.6914 1224.71,-75.7511 1225.24,-86.3326 1231.72,-83.6914"/>
</g>
<!-- Node16&#45;&gt;Node8 -->
<g id="edge22" class="edge"><title>Node16&#45;&gt;Node8</title>
<path fill="none" stroke="midnightblue" d="M1249.91,-112.083C1255.7,-104.455 1264.2,-93.2645 1271.28,-83.9408"/>
<polygon fill="midnightblue" stroke="midnightblue" points="1274.24,-85.8321 1277.5,-75.7511 1268.66,-81.5991 1274.24,-85.8321"/>
</g>
<!-- Node16&#45;&gt;Node11 -->
<g id="edge21" class="edge"><title>Node16&#45;&gt;Node11</title>
<path fill="none" stroke="midnightblue" d="M1227.08,-112.401C1207.53,-100.712 1178.48,-78.6569 1190.14,-56 1197.22,-42.2475 1210.66,-31.7663 1223.32,-24.3942"/>
<polygon fill="midnightblue" stroke="midnightblue" points="1225.14,-27.3888 1232.29,-19.5733 1221.83,-21.2221 1225.14,-27.3888"/>
</g>
<!-- Node16&#45;&gt;Node14 -->
<g id="edge23" class="edge"><title>Node16&#45;&gt;Node14</title>
<path fill="none" stroke="midnightblue" d="M1216.2,-112.444C1187.48,-103.32 1141.81,-88.8133 1109.82,-78.6509"/>
<polygon fill="midnightblue" stroke="midnightblue" points="1110.54,-75.2081 1099.95,-75.5164 1108.42,-81.8797 1110.54,-75.2081"/>
</g>
<!-- Node17 -->
<g id="node17" class="node"><title>Node17</title>
<polygon fill="white" stroke="#bfbfbf" points="819.14,-56.5 819.14,-75.5 863.14,-75.5 863.14,-56.5 819.14,-56.5"/>
<text text-anchor="middle" x="841.14" y="-63.5" font-family="Helvetica,sans-Serif" font-size="10.00">cmath</text>
</g>
<!-- Node16&#45;&gt;Node17 -->
<g id="edge18" class="edge"><title>Node16&#45;&gt;Node17</title>
<path fill="none" stroke="midnightblue" d="M1203.06,-113.453C1200.04,-112.942 1197.05,-112.452 1194.14,-112 1076.41,-93.6987 935.742,-77.4345 873.498,-70.5235"/>
<polygon fill="midnightblue" stroke="midnightblue" points="873.826,-67.0386 863.502,-69.4194 873.057,-73.9963 873.826,-67.0386"/>
</g>
<!-- Node18 -->
<g id="node18" class="node"><title>Node18</title>
<polygon fill="white" stroke="#bfbfbf" points="831.64,-0.5 831.64,-19.5 876.64,-19.5 876.64,-0.5 831.64,-0.5"/>
<text text-anchor="middle" x="854.14" y="-7.5" font-family="Helvetica,sans-Serif" font-size="10.00">cstdlib</text>
</g>
<!-- Node16&#45;&gt;Node18 -->
<g id="edge20" class="edge"><title>Node16&#45;&gt;Node18</title>
<path fill="none" stroke="midnightblue" d="M1229.41,-112.36C1206.46,-98.3147 1158.43,-70.6316 1114.14,-56 1035.12,-29.895 937.315,-18.1787 887.183,-13.5758"/>
<polygon fill="midnightblue" stroke="midnightblue" points="887.212,-10.0649 876.944,-12.6746 886.598,-17.0379 887.212,-10.0649"/>
</g>
<!-- Node19 -->
<g id="node19" class="node"><title>Node19</title>
<g id="a_node19"><a xlink:href="_i_plug_platform_8h.html" target="_top" xlink:title="Include to get consistently named preprocessor macros for different platforms and logging functionali...">
<polygon fill="white" stroke="black" points="560.14,-56.5 560.14,-75.5 644.14,-75.5 644.14,-56.5 560.14,-56.5"/>
<text text-anchor="middle" x="602.14" y="-63.5" font-family="Helvetica,sans-Serif" font-size="10.00">IPlugPlatform.h</text>
</a>
</g>
</g>
<!-- Node16&#45;&gt;Node19 -->
<g id="edge25" class="edge"><title>Node16&#45;&gt;Node19</title>
<path fill="none" stroke="midnightblue" d="M1203.09,-113.259C1200.07,-112.793 1197.06,-112.365 1194.14,-112 958.992,-82.5462 897.739,-101.598 662.14,-76 659.62,-75.7262 657.044,-75.4244 654.445,-75.1022"/>
<polygon fill="midnightblue" stroke="midnightblue" points="654.742,-71.6112 644.37,-73.7749 653.827,-78.5512 654.742,-71.6112"/>
</g>
<!-- Node19&#45;&gt;Node11 -->
<g id="edge26" class="edge"><title>Node19&#45;&gt;Node11</title>
<path fill="none" stroke="midnightblue" d="M644.375,-58.2699C650.331,-57.4362 656.383,-56.65 662.14,-56 873.884,-32.0901 1129.78,-17.4169 1219.84,-12.6823"/>
<polygon fill="midnightblue" stroke="midnightblue" points="1220.19,-16.1693 1229.99,-12.1542 1219.82,-9.17874 1220.19,-16.1693"/>
</g>
<!-- Node19&#45;&gt;Node18 -->
<g id="edge27" class="edge"><title>Node19&#45;&gt;Node18</title>
<path fill="none" stroke="midnightblue" d="M642.07,-56.4435C691.641,-45.8213 775.256,-27.9038 821.292,-18.039"/>
<polygon fill="midnightblue" stroke="midnightblue" points="822.287,-21.4052 831.331,-15.8876 820.82,-14.5606 822.287,-21.4052"/>
</g>
<!-- Node20&#45;&gt;Node19 -->
<g id="edge29" class="edge"><title>Node20&#45;&gt;Node19</title>
<path fill="none" stroke="midnightblue" d="M141.287,-113.643C145.972,-113.071 150.636,-112.516 155.14,-112 297.776,-95.654 466.395,-79.5492 549.888,-71.7898"/>
<polygon fill="midnightblue" stroke="midnightblue" points="550.248,-75.2715 559.882,-70.863 549.602,-68.3014 550.248,-75.2715"/>
</g>
<!-- Node21&#45;&gt;Node2 -->
<g id="edge34" class="edge"><title>Node21&#45;&gt;Node2</title>
<path fill="none" stroke="midnightblue" d="M372.083,-168.481C394.533,-152.609 442.446,-119.446 461.14,-112 541.391,-80.0334 567.275,-92.1232 652.14,-76 654.971,-75.4621 657.898,-74.9048 660.843,-74.3431"/>
<polygon fill="midnightblue" stroke="midnightblue" points="661.644,-77.7534 670.809,-72.4388 660.33,-70.8778 661.644,-77.7534"/>
</g>
<!-- Node21&#45;&gt;Node13 -->
<g id="edge32" class="edge"><title>Node21&#45;&gt;Node13</title>
<path fill="none" stroke="midnightblue" d="M409.208,-172.985C536.564,-162.565 875.378,-134.844 985.228,-125.856"/>
<polygon fill="midnightblue" stroke="midnightblue" points="985.743,-129.326 995.424,-125.022 985.172,-122.349 985.743,-129.326"/>
</g>
<!-- Node21&#45;&gt;Node14 -->
<g id="edge38" class="edge"><title>Node21&#45;&gt;Node14</title>
<path fill="none" stroke="midnightblue" d="M380.499,-168.403C400.698,-159.72 432.416,-145.672 459.14,-132 475.09,-123.84 477.015,-117.266 494.14,-112 544.999,-96.3592 905.68,-75.9148 1030.64,-69.2241"/>
<polygon fill="midnightblue" stroke="midnightblue" points="1031.16,-72.7018 1040.96,-68.6746 1030.78,-65.7117 1031.16,-72.7018"/>
</g>
<!-- Node21&#45;&gt;Node17 -->
<g id="edge31" class="edge"><title>Node21&#45;&gt;Node17</title>
<path fill="none" stroke="midnightblue" d="M310.802,-170.816C265.46,-163.999 203.089,-151.363 188.14,-132 182.708,-124.964 182.065,-118.488 188.14,-112 229.771,-67.5389 674.403,-80.5767 735.14,-76 759.875,-74.1361 787.833,-71.7507 808.823,-69.9041"/>
<polygon fill="midnightblue" stroke="midnightblue" points="809.164,-73.3877 818.816,-69.0194 808.546,-66.415 809.164,-73.3877"/>
</g>
<!-- Node21&#45;&gt;Node19 -->
<g id="edge41" class="edge"><title>Node21&#45;&gt;Node19</title>
<path fill="none" stroke="midnightblue" d="M366.017,-168.357C376.039,-154.307 397.826,-126.617 423.14,-112 462.202,-89.4447 512.427,-78.0883 549.729,-72.4347"/>
<polygon fill="midnightblue" stroke="midnightblue" points="550.481,-75.8629 559.887,-70.9867 549.493,-68.933 550.481,-75.8629"/>
</g>
<!-- Node21&#45;&gt;Node20 -->
<g id="edge42" class="edge"><title>Node21&#45;&gt;Node20</title>
<path fill="none" stroke="midnightblue" d="M316.566,-168.444C268.291,-158.964 190.428,-143.675 138.528,-133.483"/>
<polygon fill="midnightblue" stroke="midnightblue" points="138.998,-130.009 128.511,-131.516 137.649,-136.878 138.998,-130.009"/>
</g>
<!-- Node22 -->
<g id="node22" class="node"><title>Node22</title>
<polygon fill="white" stroke="#bfbfbf" points="765.64,-112.5 765.64,-131.5 824.64,-131.5 824.64,-112.5 765.64,-112.5"/>
<text text-anchor="middle" x="795.14" y="-119.5" font-family="Helvetica,sans-Serif" font-size="10.00">functional</text>
</g>
<!-- Node21&#45;&gt;Node22 -->
<g id="edge33" class="edge"><title>Node21&#45;&gt;Node22</title>
<path fill="none" stroke="midnightblue" d="M409.195,-170.91C496.167,-160.114 675.73,-137.823 755.479,-127.923"/>
<polygon fill="midnightblue" stroke="midnightblue" points="756.107,-131.372 765.6,-126.667 755.245,-124.426 756.107,-131.372"/>
</g>
<!-- Node23 -->
<g id="node23" class="node"><title>Node23</title>
<polygon fill="white" stroke="#bfbfbf" points="197.64,-112.5 197.64,-131.5 246.64,-131.5 246.64,-112.5 197.64,-112.5"/>
<text text-anchor="middle" x="222.14" y="-119.5" font-family="Helvetica,sans-Serif" font-size="10.00">random</text>
</g>
<!-- Node21&#45;&gt;Node23 -->
<g id="edge35" class="edge"><title>Node21&#45;&gt;Node23</title>
<path fill="none" stroke="midnightblue" d="M338.274,-168.444C315.361,-159.478 279.165,-145.314 253.274,-135.183"/>
<polygon fill="midnightblue" stroke="midnightblue" points="254.492,-131.901 243.904,-131.516 251.941,-138.42 254.492,-131.901"/>
</g>
<!-- Node24 -->
<g id="node24" class="node"><title>Node24</title>
<polygon fill="white" stroke="#bfbfbf" points="265.14,-112.5 265.14,-131.5 311.14,-131.5 311.14,-112.5 265.14,-112.5"/>
<text text-anchor="middle" x="288.14" y="-119.5" font-family="Helvetica,sans-Serif" font-size="10.00">chrono</text>
</g>
<!-- Node21&#45;&gt;Node24 -->
<g id="edge36" class="edge"><title>Node21&#45;&gt;Node24</title>
<path fill="none" stroke="midnightblue" d="M348.572,-168.324C337.72,-160.185 321.259,-147.839 308.257,-138.087"/>
<polygon fill="midnightblue" stroke="midnightblue" points="310.019,-135.034 299.919,-131.834 305.819,-140.634 310.019,-135.034"/>
</g>
<!-- Node25 -->
<g id="node25" class="node"><title>Node25</title>
<polygon fill="white" stroke="#bfbfbf" points="329.64,-112.5 329.64,-131.5 370.64,-131.5 370.64,-112.5 329.64,-112.5"/>
<text text-anchor="middle" x="350.14" y="-119.5" font-family="Helvetica,sans-Serif" font-size="10.00">string</text>
</g>
<!-- Node21&#45;&gt;Node25 -->
<g id="edge37" class="edge"><title>Node21&#45;&gt;Node25</title>
<path fill="none" stroke="midnightblue" d="M358.489,-168.083C357.164,-160.927 355.258,-150.635 353.601,-141.691"/>
<polygon fill="midnightblue" stroke="midnightblue" points="357.023,-140.947 351.761,-131.751 350.14,-142.221 357.023,-140.947"/>
</g>
<!-- Node26 -->
<g id="node26" class="node"><title>Node26</title>
<polygon fill="white" stroke="#bfbfbf" points="621.64,-112.5 621.64,-131.5 670.64,-131.5 670.64,-112.5 621.64,-112.5"/>
<text text-anchor="middle" x="646.14" y="-119.5" font-family="Helvetica,sans-Serif" font-size="10.00">ptrlist.h</text>
</g>
<!-- Node21&#45;&gt;Node26 -->
<g id="edge39" class="edge"><title>Node21&#45;&gt;Node26</title>
<path fill="none" stroke="midnightblue" d="M405.458,-168.444C462.632,-157.648 559.713,-139.318 611.377,-129.564"/>
<polygon fill="midnightblue" stroke="midnightblue" points="612.203,-132.97 621.38,-127.675 610.905,-126.091 612.203,-132.97"/>
</g>
<!-- Node21&#45;&gt;Node27 -->
<g id="edge40" class="edge"><title>Node21&#45;&gt;Node27</title>
<path fill="none" stroke="midnightblue" d="M387.711,-168.444C417.238,-159.28 464.258,-144.688 497.023,-134.519"/>
<polygon fill="midnightblue" stroke="midnightblue" points="498.185,-137.823 506.698,-131.516 496.11,-131.138 498.185,-137.823"/>
</g>
<!-- Node28&#45;&gt;Node20 -->
<g id="edge44" class="edge"><title>Node28&#45;&gt;Node20</title>
<path fill="none" stroke="midnightblue" d="M315.12,-224.387C304.869,-210.38 282.636,-182.752 257.14,-168 224.938,-149.369 184.931,-138.306 151.607,-131.815"/>
<polygon fill="midnightblue" stroke="midnightblue" points="151.965,-128.322 141.495,-129.944 150.691,-135.205 151.965,-128.322"/>
</g>
<!-- Node28&#45;&gt;Node21 -->
<g id="edge45" class="edge"><title>Node28&#45;&gt;Node21</title>
<path fill="none" stroke="midnightblue" d="M327.58,-224.083C333.089,-216.455 341.171,-205.264 347.905,-195.941"/>
<polygon fill="midnightblue" stroke="midnightblue" points="350.802,-197.907 353.82,-187.751 345.128,-193.809 350.802,-197.907"/>
</g>
<!-- Node29&#45;&gt;Node7 -->
<g id="edge49" class="edge"><title>Node29&#45;&gt;Node7</title>
<path fill="none" stroke="midnightblue" d="M903.219,-168.325C926.734,-151.499 977.147,-115.746 986.14,-112 1055.16,-83.2562 1143.28,-72.6865 1189.54,-68.9438"/>
<polygon fill="midnightblue" stroke="midnightblue" points="1189.85,-72.4305 1199.56,-68.188 1189.32,-65.4503 1189.85,-72.4305"/>
</g>
<!-- Node29&#45;&gt;Node11 -->
<g id="edge48" class="edge"><title>Node29&#45;&gt;Node11</title>
<path fill="none" stroke="midnightblue" d="M894.067,-168.419C899.027,-154.945 910.224,-128.65 927.14,-112 1009.14,-31.2872 1154.32,-14.9086 1219.64,-11.7048"/>
<polygon fill="midnightblue" stroke="midnightblue" points="1219.94,-15.1955 1229.79,-11.2834 1219.65,-8.20157 1219.94,-15.1955"/>
</g>
<!-- Node29&#45;&gt;Node13 -->
<g id="edge50" class="edge"><title>Node29&#45;&gt;Node13</title>
<path fill="none" stroke="midnightblue" d="M911.581,-168.444C932.81,-159.557 966.239,-145.563 990.395,-135.451"/>
<polygon fill="midnightblue" stroke="midnightblue" points="991.922,-138.606 999.795,-131.516 989.219,-132.149 991.922,-138.606"/>
</g>
<!-- Node29&#45;&gt;Node14 -->
<g id="edge51" class="edge"><title>Node29&#45;&gt;Node14</title>
<path fill="none" stroke="midnightblue" d="M897.413,-168.221C907.644,-154.477 929.199,-127.819 953.14,-112 976.936,-96.2766 1006.99,-85.0167 1031.07,-77.6926"/>
<polygon fill="midnightblue" stroke="midnightblue" points="1032.37,-80.9587 1040.98,-74.7931 1030.4,-74.24 1032.37,-80.9587"/>
</g>
<!-- Node29&#45;&gt;Node17 -->
<g id="edge47" class="edge"><title>Node29&#45;&gt;Node17</title>
<path fill="none" stroke="midnightblue" d="M887.217,-168.368C879.075,-150.456 860.196,-108.923 849.298,-84.9482"/>
<polygon fill="midnightblue" stroke="midnightblue" points="852.37,-83.2468 845.045,-75.5914 845.997,-86.1434 852.37,-83.2468"/>
</g>
<!-- Node29&#45;&gt;Node26 -->
<g id="edge52" class="edge"><title>Node29&#45;&gt;Node26</title>
<path fill="none" stroke="midnightblue" d="M852.319,-168.444C805.127,-158.042 726.197,-140.645 680.913,-130.664"/>
<polygon fill="midnightblue" stroke="midnightblue" points="681.493,-127.208 670.974,-128.474 679.986,-134.044 681.493,-127.208"/>
</g>
<!-- Node31 -->
<g id="node31" class="node"><title>Node31</title>
<g id="a_node31"><a xlink:href="_i_plug_editor_delegate_8h.html" target="_top" xlink:title="This pure virtual interface delegates communication in both directions between a UI editor and someth...">
<polygon fill="white" stroke="black" points="1073.14,-336.5 1073.14,-355.5 1185.14,-355.5 1185.14,-336.5 1073.14,-336.5"/>
<text text-anchor="middle" x="1129.14" y="-343.5" font-family="Helvetica,sans-Serif" font-size="10.00">IPlugEditorDelegate.h</text>
</a>
</g>
</g>
<!-- Node30&#45;&gt;Node31 -->
<g id="edge54" class="edge"><title>Node30&#45;&gt;Node31</title>
<path fill="none" stroke="midnightblue" d="M922.961,-392.444C965.701,-383.023 1034.47,-367.866 1080.71,-357.675"/>
<polygon fill="midnightblue" stroke="midnightblue" points="1081.49,-361.087 1090.5,-355.516 1079.98,-354.251 1081.49,-361.087"/>
</g>
<!-- Node31&#45;&gt;Node11 -->
<g id="edge56" class="edge"><title>Node31&#45;&gt;Node11</title>
<path fill="none" stroke="midnightblue" d="M1185.28,-345.099C1364.95,-343.925 1914.14,-328.137 1914.14,-179 1914.14,-179 1914.14,-179 1914.14,-121 1914.14,-90.5013 1916.28,-74.6359 1892.14,-56 1843.97,-18.8166 1411.08,-12.3208 1286.53,-11.2187"/>
<polygon fill="midnightblue" stroke="midnightblue" points="1286.47,-7.71819 1276.44,-11.1355 1286.41,-14.7179 1286.47,-7.71819"/>
</g>
<!-- Node31&#45;&gt;Node13 -->
<g id="edge55" class="edge"><title>Node31&#45;&gt;Node13</title>
<path fill="none" stroke="midnightblue" d="M1094.16,-336.429C1074.75,-329.791 1052,-318.509 1039.14,-300 1005.4,-251.423 1011.49,-176.564 1016.71,-141.861"/>
<polygon fill="midnightblue" stroke="midnightblue" points="1020.21,-142.165 1018.39,-131.727 1013.3,-141.021 1020.21,-142.165"/>
</g>
<!-- Node31&#45;&gt;Node26 -->
<g id="edge58" class="edge"><title>Node31&#45;&gt;Node26</title>
<path fill="none" stroke="midnightblue" d="M1073.1,-339.792C962.98,-328.472 723.869,-298.193 664.14,-244 635.789,-218.277 638.438,-168.79 642.488,-141.756"/>
<polygon fill="midnightblue" stroke="midnightblue" points="645.976,-142.129 644.224,-131.68 639.077,-140.941 645.976,-142.129"/>
</g>
<!-- Node32 -->
<g id="node32" class="node"><title>Node32</title>
<polygon fill="white" stroke="#bfbfbf" points="1145.64,-280.5 1145.64,-299.5 1194.64,-299.5 1194.64,-280.5 1145.64,-280.5"/>
<text text-anchor="middle" x="1170.14" y="-287.5" font-family="Helvetica,sans-Serif" font-size="10.00">stdint.h</text>
</g>
<!-- Node31&#45;&gt;Node32 -->
<g id="edge57" class="edge"><title>Node31&#45;&gt;Node32</title>
<path fill="none" stroke="midnightblue" d="M1135.91,-336.083C1141.7,-328.455 1150.2,-317.264 1157.28,-307.941"/>
<polygon fill="midnightblue" stroke="midnightblue" points="1160.24,-309.832 1163.5,-299.751 1154.66,-305.599 1160.24,-309.832"/>
</g>
<!-- Node33 -->
<g id="node33" class="node"><title>Node33</title>
<g id="a_node33"><a xlink:href="_i_plug_parameter_8h.html" target="_top" xlink:title="IPlug&#39;s parameter class. ">
<polygon fill="white" stroke="black" points="1132.14,-168.5 1132.14,-187.5 1224.14,-187.5 1224.14,-168.5 1132.14,-168.5"/>
<text text-anchor="middle" x="1178.14" y="-175.5" font-family="Helvetica,sans-Serif" font-size="10.00">IPlugParameter.h</text>
</a>
</g>
</g>
<!-- Node31&#45;&gt;Node33 -->
<g id="edge59" class="edge"><title>Node31&#45;&gt;Node33</title>
<path fill="none" stroke="midnightblue" d="M1156.07,-336.356C1172.86,-329.411 1193.12,-317.825 1203.14,-300 1221.9,-266.64 1202.37,-221.007 1188.8,-196.412"/>
<polygon fill="midnightblue" stroke="midnightblue" points="1191.7,-194.426 1183.66,-187.531 1185.64,-197.937 1191.7,-194.426"/>
</g>
<!-- Node35 -->
<g id="node35" class="node"><title>Node35</title>
<g id="a_node35"><a xlink:href="_i_plug_midi_8h.html" target="_top" xlink:title="MIDI and sysex structs/utilites. ">
<polygon fill="white" stroke="black" points="1283.64,-224.5 1283.64,-243.5 1348.64,-243.5 1348.64,-224.5 1283.64,-224.5"/>
<text text-anchor="middle" x="1316.14" y="-231.5" font-family="Helvetica,sans-Serif" font-size="10.00">IPlugMidi.h</text>
</a>
</g>
</g>
<!-- Node31&#45;&gt;Node35 -->
<g id="edge65" class="edge"><title>Node31&#45;&gt;Node35</title>
<path fill="none" stroke="midnightblue" d="M1181.31,-336.436C1209.33,-329.915 1243.31,-318.746 1269.14,-300 1286.17,-287.637 1299.47,-267.219 1307.51,-252.564"/>
<polygon fill="midnightblue" stroke="midnightblue" points="1310.71,-253.996 1312.22,-243.509 1304.5,-250.768 1310.71,-253.996"/>
</g>
<!-- Node36 -->
<g id="node36" class="node"><title>Node36</title>
<g id="a_node36"><a xlink:href="_i_plug_structs_8h_source.html" target="_top" xlink:title="IPlugStructs.h">
<polygon fill="white" stroke="black" points="1048.64,-280.5 1048.64,-299.5 1127.64,-299.5 1127.64,-280.5 1048.64,-280.5"/>
<text text-anchor="middle" x="1088.14" y="-287.5" font-family="Helvetica,sans-Serif" font-size="10.00">IPlugStructs.h</text>
</a>
</g>
</g>
<!-- Node31&#45;&gt;Node36 -->
<g id="edge71" class="edge"><title>Node31&#45;&gt;Node36</title>
<path fill="none" stroke="midnightblue" d="M1122.37,-336.083C1116.58,-328.455 1108.08,-317.264 1101,-307.941"/>
<polygon fill="midnightblue" stroke="midnightblue" points="1103.62,-305.599 1094.78,-299.751 1098.04,-309.832 1103.62,-305.599"/>
</g>
<!-- Node33&#45;&gt;Node11 -->
<g id="edge61" class="edge"><title>Node33&#45;&gt;Node11</title>
<path fill="none" stroke="midnightblue" d="M1221.6,-168.425C1244.99,-161.874 1272.91,-150.681 1292.14,-132 1317.55,-107.318 1332.35,-87.4961 1316.14,-56 1309.06,-42.2475 1295.62,-31.7663 1282.96,-24.3942"/>
<polygon fill="midnightblue" stroke="midnightblue" points="1284.45,-21.2221 1273.99,-19.5733 1281.14,-27.3888 1284.45,-21.2221"/>
</g>
<!-- Node33&#45;&gt;Node14 -->
<g id="edge63" class="edge"><title>Node33&#45;&gt;Node14</title>
<path fill="none" stroke="midnightblue" d="M1168.31,-168.304C1158.42,-159.43 1142.85,-145.136 1130.14,-132 1114.73,-116.071 1098.14,-96.8931 1086.85,-83.5133"/>
<polygon fill="midnightblue" stroke="midnightblue" points="1089.37,-81.0695 1080.26,-75.6506 1084,-85.5642 1089.37,-81.0695"/>
</g>
<!-- Node33&#45;&gt;Node16 -->
<g id="edge64" class="edge"><title>Node33&#45;&gt;Node16</title>
<path fill="none" stroke="midnightblue" d="M1188.58,-168.324C1198.29,-160.263 1212.96,-148.077 1224.64,-138.369"/>
<polygon fill="midnightblue" stroke="midnightblue" points="1227.05,-140.916 1232.51,-131.834 1222.58,-135.532 1227.05,-140.916"/>
</g>
<!-- Node33&#45;&gt;Node22 -->
<g id="edge62" class="edge"><title>Node33&#45;&gt;Node22</title>
<path fill="none" stroke="midnightblue" d="M1131.94,-170.486C1056.09,-159.792 906.453,-138.694 834.975,-128.616"/>
<polygon fill="midnightblue" stroke="midnightblue" points="835.405,-125.142 825.014,-127.212 834.427,-132.074 835.405,-125.142"/>
</g>
<!-- Node34 -->
<g id="node34" class="node"><title>Node34</title>
<polygon fill="white" stroke="#bfbfbf" points="1139.14,-112.5 1139.14,-131.5 1185.14,-131.5 1185.14,-112.5 1139.14,-112.5"/>
<text text-anchor="middle" x="1162.14" y="-119.5" font-family="Helvetica,sans-Serif" font-size="10.00">atomic</text>
</g>
<!-- Node33&#45;&gt;Node34 -->
<g id="edge60" class="edge"><title>Node33&#45;&gt;Node34</title>
<path fill="none" stroke="midnightblue" d="M1175.5,-168.083C1173.35,-160.849 1170.26,-150.409 1167.59,-141.397"/>
<polygon fill="midnightblue" stroke="midnightblue" points="1170.93,-140.345 1164.73,-131.751 1164.22,-142.333 1170.93,-140.345"/>
</g>
<!-- Node35&#45;&gt;Node2 -->
<g id="edge69" class="edge"><title>Node35&#45;&gt;Node2</title>
<path fill="none" stroke="midnightblue" d="M1283.48,-232.576C1187.19,-230.927 905.921,-223.149 822.14,-188 770.745,-166.438 729.084,-112.301 710.157,-84.3303"/>
<polygon fill="midnightblue" stroke="midnightblue" points="712.85,-82.0563 704.431,-75.6243 707.002,-85.9026 712.85,-82.0563"/>
</g>
<!-- Node35&#45;&gt;Node6 -->
<g id="edge70" class="edge"><title>Node35&#45;&gt;Node6</title>
<path fill="none" stroke="midnightblue" d="M1348.65,-224.681C1384.99,-215.381 1443.99,-200.28 1484.13,-190.008"/>
<polygon fill="midnightblue" stroke="midnightblue" points="1485.08,-193.377 1493.9,-187.507 1483.34,-186.596 1485.08,-193.377"/>
</g>
<!-- Node35&#45;&gt;Node7 -->
<g id="edge68" class="edge"><title>Node35&#45;&gt;Node7</title>
<path fill="none" stroke="midnightblue" d="M1316.64,-224.2C1317.41,-202.933 1316.72,-147.86 1292.14,-112 1282.33,-97.6818 1266.3,-86.9542 1251.96,-79.5718"/>
<polygon fill="midnightblue" stroke="midnightblue" points="1253.39,-76.3754 1242.86,-75.1993 1250.36,-82.6849 1253.39,-76.3754"/>
</g>
<!-- Node35&#45;&gt;Node10 -->
<g id="edge67" class="edge"><title>Node35&#45;&gt;Node10</title>
<path fill="none" stroke="midnightblue" d="M1326.7,-224.453C1336.83,-215.918 1352.16,-202.075 1363.14,-188 1374.59,-173.313 1384.83,-154.678 1391.61,-141.13"/>
<polygon fill="midnightblue" stroke="midnightblue" points="1394.87,-142.436 1396.09,-131.912 1388.57,-139.376 1394.87,-142.436"/>
</g>
<!-- Node35&#45;&gt;Node13 -->
<g id="edge66" class="edge"><title>Node35&#45;&gt;Node13</title>
<path fill="none" stroke="midnightblue" d="M1283.35,-228.764C1244.11,-222.929 1176.94,-210.495 1123.14,-188 1091.67,-174.844 1058.97,-152.462 1039.08,-137.703"/>
<polygon fill="midnightblue" stroke="midnightblue" points="1040.98,-134.754 1030.89,-131.519 1036.76,-140.339 1040.98,-134.754"/>
</g>
<!-- Node36&#45;&gt;Node2 -->
<g id="edge72" class="edge"><title>Node36&#45;&gt;Node2</title>
<path fill="none" stroke="midnightblue" d="M1048.15,-281.987C987.445,-270.012 870.027,-241.558 784.14,-188 754.539,-169.541 748.964,-160.705 729.14,-132 719.109,-117.475 710.974,-99.059 705.719,-85.541"/>
<polygon fill="midnightblue" stroke="midnightblue" points="708.907,-84.0709 702.141,-75.9176 702.345,-86.5105 708.907,-84.0709"/>
</g>
<!-- Node36&#45;&gt;Node5 -->
<g id="edge75" class="edge"><title>Node36&#45;&gt;Node5</title>
<path fill="none" stroke="midnightblue" d="M1127.68,-281.509C1130.54,-280.991 1133.38,-280.483 1136.14,-280 1234.16,-262.829 1259.68,-264.137 1357.14,-244 1557.29,-202.645 1642.62,-258.506 1803.14,-132 1818.11,-120.201 1827.2,-99.9807 1832.16,-85.2188"/>
<polygon fill="midnightblue" stroke="midnightblue" points="1835.52,-86.2188 1835.08,-75.6332 1828.82,-84.1835 1835.52,-86.2188"/>
</g>
<!-- Node36&#45;&gt;Node14 -->
<g id="edge73" class="edge"><title>Node36&#45;&gt;Node14</title>
<path fill="none" stroke="midnightblue" d="M1087.55,-280.297C1085.34,-247.633 1077.52,-131.866 1074.42,-85.9573"/>
<polygon fill="midnightblue" stroke="midnightblue" points="1077.91,-85.625 1073.74,-75.8837 1070.92,-86.097 1077.91,-85.625"/>
</g>
<!-- Node36&#45;&gt;Node16 -->
<g id="edge78" class="edge"><title>Node36&#45;&gt;Node16</title>
<path fill="none" stroke="midnightblue" d="M1110.08,-280.438C1142.77,-266.44 1203.6,-235.38 1233.14,-188 1241.73,-174.224 1243.86,-155.699 1244.06,-141.95"/>
<polygon fill="midnightblue" stroke="midnightblue" points="1247.56,-141.667 1243.87,-131.734 1240.56,-141.797 1247.56,-141.667"/>
</g>
<!-- Node36&#45;&gt;Node19 -->
<g id="edge76" class="edge"><title>Node36&#45;&gt;Node19</title>
<path fill="none" stroke="midnightblue" d="M1048.31,-289.639C954.918,-290.382 725.1,-287.605 664.14,-244 612.301,-206.919 603.489,-123.056 602.212,-85.6357"/>
<polygon fill="midnightblue" stroke="midnightblue" points="605.711,-85.5471 602.019,-75.6166 598.712,-85.6824 605.711,-85.5471"/>
</g>
<!-- Node36&#45;&gt;Node26 -->
<g id="edge74" class="edge"><title>Node36&#45;&gt;Node26</title>
<path fill="none" stroke="midnightblue" d="M1048.45,-286.996C952.344,-281.805 712.943,-266.718 685.14,-244 654.334,-218.827 647.574,-169.116 646.271,-141.901"/>
<polygon fill="midnightblue" stroke="midnightblue" points="649.766,-141.652 645.993,-131.752 642.769,-141.844 649.766,-141.652"/>
</g>
<!-- Node36&#45;&gt;Node35 -->
<g id="edge77" class="edge"><title>Node36&#45;&gt;Node35</title>
<path fill="none" stroke="midnightblue" d="M1124.27,-280.444C1164.84,-270.835 1230.61,-255.257 1273.63,-245.069"/>
<polygon fill="midnightblue" stroke="midnightblue" points="1274.58,-248.44 1283.51,-242.729 1272.97,-241.628 1274.58,-248.44"/>
</g>
</g>
</svg>
