<?xml version="1.0" encoding="UTF-8" standalone="no"?>
<!DOCTYPE svg PUBLIC "-//W3C//DTD SVG 1.1//EN"
 "http://www.w3.org/Graphics/SVG/1.1/DTD/svg11.dtd">
<!-- Generated by graphviz version 2.36.0 (20140111.2315)
 -->
<!-- Title: IGraphicsPopupMenu.h Pages: 1 -->
<svg width="4278pt" height="308pt"
 viewBox="0.00 0.00 4278.09 308.00" xmlns="http://www.w3.org/2000/svg" xmlns:xlink="http://www.w3.org/1999/xlink">
<g id="graph0" class="graph" transform="scale(1 1) rotate(0) translate(4 304)">
<title>IGraphicsPopupMenu.h</title>
<polygon fill="white" stroke="none" points="-4,4 -4,-304 4274.09,-304 4274.09,4 -4,4"/>
<!-- Node1 -->
<g id="node1" class="node"><title>Node1</title>
<polygon fill="#bfbfbf" stroke="black" points="3729.5,-280.5 3729.5,-299.5 3848.5,-299.5 3848.5,-280.5 3729.5,-280.5"/>
<text text-anchor="middle" x="3789" y="-287.5" font-family="Helvetica,sans-Serif" font-size="10.00">IGraphicsPopupMenu.h</text>
</g>
<!-- Node2 -->
<g id="node2" class="node"><title>Node2</title>
<g id="a_node2"><a xlink:href="_i_graphics_8h.html" target="_top" xlink:title="The lowest level base class of an IGraphics context. ">
<polygon fill="white" stroke="black" points="3755.5,-224.5 3755.5,-243.5 3822.5,-243.5 3822.5,-224.5 3755.5,-224.5"/>
<text text-anchor="middle" x="3789" y="-231.5" font-family="Helvetica,sans-Serif" font-size="10.00">IGraphics.h</text>
</a>
</g>
</g>
<!-- Node1&#45;&gt;Node2 -->
<g id="edge1" class="edge"><title>Node1&#45;&gt;Node2</title>
<path fill="none" stroke="midnightblue" d="M3789,-269.805C3789,-260.91 3789,-250.78 3789,-243.751"/>
<polygon fill="midnightblue" stroke="midnightblue" points="3785.5,-270.083 3789,-280.083 3792.5,-270.083 3785.5,-270.083"/>
</g>
<!-- Node3 -->
<g id="node3" class="node"><title>Node3</title>
<g id="a_node3"><a xlink:href="_i_graphics_lice_8h_source.html" target="_top" xlink:title="IGraphicsLice.h">
<polygon fill="white" stroke="black" points="3746.5,-168.5 3746.5,-187.5 3831.5,-187.5 3831.5,-168.5 3746.5,-168.5"/>
<text text-anchor="middle" x="3789" y="-175.5" font-family="Helvetica,sans-Serif" font-size="10.00">IGraphicsLice.h</text>
</a>
</g>
</g>
<!-- Node2&#45;&gt;Node3 -->
<g id="edge2" class="edge"><title>Node2&#45;&gt;Node3</title>
<path fill="none" stroke="midnightblue" d="M3789,-213.805C3789,-204.91 3789,-194.78 3789,-187.751"/>
<polygon fill="midnightblue" stroke="midnightblue" points="3785.5,-214.083 3789,-224.083 3792.5,-214.083 3785.5,-214.083"/>
</g>
<!-- Node5 -->
<g id="node5" class="node"><title>Node5</title>
<g id="a_node5"><a xlink:href="_i_control_8h.html" target="_top" xlink:title="This file contains the base IControl implementation, along with some base classes for specific types ...">
<polygon fill="white" stroke="black" points="1769.5,-168.5 1769.5,-187.5 1828.5,-187.5 1828.5,-168.5 1769.5,-168.5"/>
<text text-anchor="middle" x="1799" y="-175.5" font-family="Helvetica,sans-Serif" font-size="10.00">IControl.h</text>
</a>
</g>
</g>
<!-- Node2&#45;&gt;Node5 -->
<g id="edge4" class="edge"><title>Node2&#45;&gt;Node5</title>
<path fill="none" stroke="midnightblue" d="M3745.13,-231.81C3475.96,-224.506 2052.08,-185.867 1828.54,-179.802"/>
<polygon fill="midnightblue" stroke="midnightblue" points="3745.2,-235.313 3755.29,-232.085 3745.39,-228.315 3745.2,-235.313"/>
</g>
<!-- Node9 -->
<g id="node9" class="node"><title>Node9</title>
<g id="a_node9"><a xlink:href="_i_graphics_8cpp_source.html" target="_top" xlink:title="IGraphics.cpp">
<polygon fill="white" stroke="black" points="1642.5,-0.5 1642.5,-19.5 1719.5,-19.5 1719.5,-0.5 1642.5,-0.5"/>
<text text-anchor="middle" x="1681" y="-7.5" font-family="Helvetica,sans-Serif" font-size="10.00">IGraphics.cpp</text>
</a>
</g>
</g>
<!-- Node2&#45;&gt;Node9 -->
<g id="edge60" class="edge"><title>Node2&#45;&gt;Node9</title>
<path fill="none" stroke="midnightblue" d="M3832.89,-229.655C3960.58,-219.051 4319.45,-182.644 4264,-112 4199.31,-29.5805 4138.9,-69.528 4035,-56 3796.49,-24.9449 2006.59,-12.9549 1719.73,-11.2245"/>
<polygon fill="midnightblue" stroke="midnightblue" points="3832.36,-226.186 3822.68,-230.488 3832.93,-233.162 3832.36,-226.186"/>
</g>
<!-- Node45 -->
<g id="node45" class="node"><title>Node45</title>
<g id="a_node45"><a xlink:href="_i_graphics_editor_delegate_8cpp_source.html" target="_top" xlink:title="IGraphicsEditorDelegate.cpp">
<polygon fill="white" stroke="black" points="3619,-112.5 3619,-131.5 3761,-131.5 3761,-112.5 3619,-112.5"/>
<text text-anchor="middle" x="3690" y="-119.5" font-family="Helvetica,sans-Serif" font-size="10.00">IGraphicsEditorDelegate.cpp</text>
</a>
</g>
</g>
<!-- Node2&#45;&gt;Node45 -->
<g id="edge61" class="edge"><title>Node2&#45;&gt;Node45</title>
<path fill="none" stroke="midnightblue" d="M3770.06,-217.941C3760.06,-209.59 3747.85,-198.744 3738,-188 3720.94,-169.386 3704.14,-144.813 3695.67,-131.863"/>
<polygon fill="midnightblue" stroke="midnightblue" points="3767.89,-220.686 3777.84,-224.312 3772.32,-215.269 3767.89,-220.686"/>
</g>
<!-- Node46 -->
<g id="node46" class="node"><title>Node46</title>
<g id="a_node46"><a xlink:href="_i_graphics_path_base_8h.html" target="_top" xlink:title="A base class to share implementations of IGraphics.h functionality across different path based graphi...">
<polygon fill="white" stroke="black" points="3922,-168.5 3922,-187.5 4032,-187.5 4032,-168.5 3922,-168.5"/>
<text text-anchor="middle" x="3977" y="-175.5" font-family="Helvetica,sans-Serif" font-size="10.00">IGraphicsPathBase.h</text>
</a>
</g>
</g>
<!-- Node2&#45;&gt;Node46 -->
<g id="edge62" class="edge"><title>Node2&#45;&gt;Node46</title>
<path fill="none" stroke="midnightblue" d="M3828.8,-221.568C3864.27,-211.381 3915.37,-196.703 3947.35,-187.516"/>
<polygon fill="midnightblue" stroke="midnightblue" points="3827.43,-218.319 3818.79,-224.444 3829.37,-225.047 3827.43,-218.319"/>
</g>
<!-- Node4 -->
<g id="node4" class="node"><title>Node4</title>
<g id="a_node4"><a xlink:href="_i_graphics_lice_8cpp_source.html" target="_top" xlink:title="IGraphicsLice.cpp">
<polygon fill="white" stroke="black" points="3632.5,-56.5 3632.5,-75.5 3727.5,-75.5 3727.5,-56.5 3632.5,-56.5"/>
<text text-anchor="middle" x="3680" y="-63.5" font-family="Helvetica,sans-Serif" font-size="10.00">IGraphicsLice.cpp</text>
</a>
</g>
</g>
<!-- Node3&#45;&gt;Node4 -->
<g id="edge3" class="edge"><title>Node3&#45;&gt;Node4</title>
<path fill="none" stroke="midnightblue" d="M3787.55,-158.371C3785.58,-144.25 3780.94,-125.102 3770,-112 3754.88,-93.8982 3730.68,-82.374 3711.18,-75.5241"/>
<polygon fill="midnightblue" stroke="midnightblue" points="3784.08,-158.837 3788.63,-168.408 3791.04,-158.092 3784.08,-158.837"/>
</g>
<!-- Node6 -->
<g id="node6" class="node"><title>Node6</title>
<g id="a_node6"><a xlink:href="_i_color_picker_control_8h.html" target="_top" xlink:title="A control for choosing a color. ">
<polygon fill="white" stroke="black" points="1398,-112.5 1398,-131.5 1508,-131.5 1508,-112.5 1398,-112.5"/>
<text text-anchor="middle" x="1453" y="-119.5" font-family="Helvetica,sans-Serif" font-size="10.00">IColorPickerControl.h</text>
</a>
</g>
</g>
<!-- Node5&#45;&gt;Node6 -->
<g id="edge5" class="edge"><title>Node5&#45;&gt;Node6</title>
<path fill="none" stroke="midnightblue" d="M1759.03,-170.763C1697.01,-161.083 1577.46,-142.424 1507.55,-131.513"/>
<polygon fill="midnightblue" stroke="midnightblue" points="1758.78,-174.265 1769.2,-172.349 1759.86,-167.349 1758.78,-174.265"/>
</g>
<!-- Node7 -->
<g id="node7" class="node"><title>Node7</title>
<g id="a_node7"><a xlink:href="_i_controls_8h.html" target="_top" xlink:title="A collection of IControls for common UI widgets, such as knobs, sliders, switches. ">
<polygon fill="white" stroke="black" points="1203.5,-56.5 1203.5,-75.5 1268.5,-75.5 1268.5,-56.5 1203.5,-56.5"/>
<text text-anchor="middle" x="1236" y="-63.5" font-family="Helvetica,sans-Serif" font-size="10.00">IControls.h</text>
</a>
</g>
</g>
<!-- Node5&#45;&gt;Node7 -->
<g id="edge9" class="edge"><title>Node5&#45;&gt;Node7</title>
<path fill="none" stroke="midnightblue" d="M1759.1,-177.51C1684.64,-177.401 1520.18,-172.134 1389,-132 1370.75,-126.417 1368.36,-119.934 1351,-112 1320.19,-97.9178 1283.61,-84.0769 1260.11,-75.5437"/>
<polygon fill="midnightblue" stroke="midnightblue" points="1759.42,-181.009 1769.42,-177.492 1759.41,-174.009 1759.42,-181.009"/>
</g>
<!-- Node5&#45;&gt;Node9 -->
<g id="edge54" class="edge"><title>Node5&#45;&gt;Node9</title>
<path fill="none" stroke="midnightblue" d="M1758.8,-175.078C1700.66,-169.741 1596.8,-149.823 1567,-76 1552.97,-41.2462 1604.04,-24.3175 1642.34,-16.656"/>
<polygon fill="midnightblue" stroke="midnightblue" points="1758.85,-178.593 1769.1,-175.915 1759.42,-171.616 1758.85,-178.593"/>
</g>
<!-- Node10 -->
<g id="node10" class="node"><title>Node10</title>
<g id="a_node10"><a xlink:href="_i_v_keyboard_control_8h.html" target="_top" xlink:title="Vectorial keyboard control. ">
<polygon fill="white" stroke="black" points="773.5,-112.5 773.5,-131.5 880.5,-131.5 880.5,-112.5 773.5,-112.5"/>
<text text-anchor="middle" x="827" y="-119.5" font-family="Helvetica,sans-Serif" font-size="10.00">IVKeyboardControl.h</text>
</a>
</g>
</g>
<!-- Node5&#45;&gt;Node10 -->
<g id="edge10" class="edge"><title>Node5&#45;&gt;Node10</title>
<path fill="none" stroke="midnightblue" d="M1759.44,-176.382C1632.6,-174.112 1224.75,-164.596 889,-132 886.294,-131.737 883.524,-131.44 880.731,-131.117"/>
<polygon fill="midnightblue" stroke="midnightblue" points="1759.41,-179.881 1769.47,-176.556 1759.53,-172.882 1759.41,-179.881"/>
</g>
<!-- Node11 -->
<g id="node11" class="node"><title>Node11</title>
<g id="a_node11"><a xlink:href="_i_v_meter_control_8h.html" target="_top" xlink:title="Vectorial multichannel capable meter control. ">
<polygon fill="white" stroke="black" points="898.5,-112.5 898.5,-131.5 989.5,-131.5 989.5,-112.5 898.5,-112.5"/>
<text text-anchor="middle" x="944" y="-119.5" font-family="Helvetica,sans-Serif" font-size="10.00">IVMeterControl.h</text>
</a>
</g>
</g>
<!-- Node5&#45;&gt;Node11 -->
<g id="edge12" class="edge"><title>Node5&#45;&gt;Node11</title>
<path fill="none" stroke="midnightblue" d="M1759.23,-176.254C1642.32,-173.74 1289.65,-163.864 999,-132 995.922,-131.663 992.755,-131.269 989.568,-130.838"/>
<polygon fill="midnightblue" stroke="midnightblue" points="1759.42,-179.758 1769.49,-176.468 1759.56,-172.76 1759.42,-179.758"/>
</g>
<!-- Node12 -->
<g id="node12" class="node"><title>Node12</title>
<g id="a_node12"><a xlink:href="_i_v_scope_control_8h.html" target="_top" xlink:title="Vectorial multichannel capable oscilloscope control. ">
<polygon fill="white" stroke="black" points="1008,-112.5 1008,-131.5 1102,-131.5 1102,-112.5 1008,-112.5"/>
<text text-anchor="middle" x="1055" y="-119.5" font-family="Helvetica,sans-Serif" font-size="10.00">IVScopeControl.h</text>
</a>
</g>
</g>
<!-- Node5&#45;&gt;Node12 -->
<g id="edge14" class="edge"><title>Node5&#45;&gt;Node12</title>
<path fill="none" stroke="midnightblue" d="M1759.19,-175.706C1653.39,-171.985 1356.52,-159.696 1111,-132 1108.06,-131.669 1105.05,-131.292 1102.01,-130.884"/>
<polygon fill="midnightblue" stroke="midnightblue" points="1759.29,-179.212 1769.41,-176.06 1759.53,-172.216 1759.29,-179.212"/>
</g>
<!-- Node13 -->
<g id="node13" class="node"><title>Node13</title>
<g id="a_node13"><a xlink:href="_i_v_multi_slider_control_8h.html" target="_top" xlink:title="A vectorial multi&#45;slider control. ">
<polygon fill="white" stroke="black" points="1120,-112.5 1120,-131.5 1232,-131.5 1232,-112.5 1120,-112.5"/>
<text text-anchor="middle" x="1176" y="-119.5" font-family="Helvetica,sans-Serif" font-size="10.00">IVMultiSliderControl.h</text>
</a>
</g>
</g>
<!-- Node5&#45;&gt;Node13 -->
<g id="edge16" class="edge"><title>Node5&#45;&gt;Node13</title>
<path fill="none" stroke="midnightblue" d="M1759.09,-174.567C1667.41,-168.806 1434.76,-153.21 1241,-132 1238.17,-131.69 1235.27,-131.355 1232.35,-131.002"/>
<polygon fill="midnightblue" stroke="midnightblue" points="1759.1,-178.075 1769.3,-175.205 1759.54,-171.088 1759.1,-178.075"/>
</g>
<!-- Node14 -->
<g id="node14" class="node"><title>Node14</title>
<g id="a_node14"><a xlink:href="_i_r_t_text_control_8h.html" target="_top" xlink:title="A control to display some text in the UI, driven by values in the RT audio thread. ">
<polygon fill="white" stroke="black" points="1250,-112.5 1250,-131.5 1342,-131.5 1342,-112.5 1250,-112.5"/>
<text text-anchor="middle" x="1296" y="-119.5" font-family="Helvetica,sans-Serif" font-size="10.00">IRTTextControl.h</text>
</a>
</g>
</g>
<!-- Node5&#45;&gt;Node14 -->
<g id="edge18" class="edge"><title>Node5&#45;&gt;Node14</title>
<path fill="none" stroke="midnightblue" d="M1759.1,-173.589C1681.39,-166.804 1504.34,-150.649 1356,-132 1351.51,-131.435 1346.83,-130.806 1342.16,-130.15"/>
<polygon fill="midnightblue" stroke="midnightblue" points="1759.13,-177.105 1769.39,-174.484 1759.73,-170.131 1759.13,-177.105"/>
</g>
<!-- Node15 -->
<g id="node15" class="node"><title>Node15</title>
<g id="a_node15"><a xlink:href="_i_corner_resizer_control_8h.html" target="_top" xlink:title="A control for resizing the plug&#45;in window by clicking and dragging in the bottom right&#45;hand corner Th...">
<polygon fill="white" stroke="black" points="1576,-56.5 1576,-75.5 1698,-75.5 1698,-56.5 1576,-56.5"/>
<text text-anchor="middle" x="1637" y="-63.5" font-family="Helvetica,sans-Serif" font-size="10.00">ICornerResizerControl.h</text>
</a>
</g>
</g>
<!-- Node5&#45;&gt;Node15 -->
<g id="edge20" class="edge"><title>Node5&#45;&gt;Node15</title>
<path fill="none" stroke="midnightblue" d="M1759.24,-171.936C1714.65,-165.345 1646.52,-152.223 1631,-132 1618.31,-115.457 1626.96,-89.1157 1632.83,-75.607"/>
<polygon fill="midnightblue" stroke="midnightblue" points="1758.8,-175.409 1769.2,-173.358 1759.79,-168.479 1758.8,-175.409"/>
</g>
<!-- Node16 -->
<g id="node16" class="node"><title>Node16</title>
<g id="a_node16"><a xlink:href="_i_f_p_s_display_control_8h.html" target="_top" xlink:title="Performance display meter, based on code from NanoVG This is a special control that lives outside the...">
<polygon fill="white" stroke="black" points="2352,-56.5 2352,-75.5 2464,-75.5 2464,-56.5 2352,-56.5"/>
<text text-anchor="middle" x="2408" y="-63.5" font-family="Helvetica,sans-Serif" font-size="10.00">IFPSDisplayControl.h</text>
</a>
</g>
</g>
<!-- Node5&#45;&gt;Node16 -->
<g id="edge22" class="edge"><title>Node5&#45;&gt;Node16</title>
<path fill="none" stroke="midnightblue" d="M1839.1,-176.233C1996.53,-173.03 2564.94,-159.584 2591,-132 2631.4,-89.2348 2531.7,-74.5694 2464.12,-69.566"/>
<polygon fill="midnightblue" stroke="midnightblue" points="1838.84,-172.737 1828.91,-176.438 1838.98,-179.736 1838.84,-172.737"/>
</g>
<!-- Node17 -->
<g id="node17" class="node"><title>Node17</title>
<g id="a_node17"><a xlink:href="_i_popup_menu_control_8h.html" target="_top" xlink:title="A base control for a pop&#45;up menu/drop&#45;down list that stays within the bounds of the IGraphics context...">
<polygon fill="white" stroke="black" points="1640.5,-112.5 1640.5,-131.5 1751.5,-131.5 1751.5,-112.5 1640.5,-112.5"/>
<text text-anchor="middle" x="1696" y="-119.5" font-family="Helvetica,sans-Serif" font-size="10.00">IPopupMenuControl.h</text>
</a>
</g>
</g>
<!-- Node5&#45;&gt;Node17 -->
<g id="edge24" class="edge"><title>Node5&#45;&gt;Node17</title>
<path fill="none" stroke="midnightblue" d="M1773.42,-163.59C1754.38,-153.605 1728.94,-140.267 1712.51,-131.655"/>
<polygon fill="midnightblue" stroke="midnightblue" points="1771.97,-166.78 1782.45,-168.324 1775.22,-160.581 1771.97,-166.78"/>
</g>
<!-- Node19 -->
<g id="node19" class="node"><title>Node19</title>
<g id="a_node19"><a xlink:href="_i_graphics_web_8cpp_source.html" target="_top" xlink:title="IGraphicsWeb.cpp">
<polygon fill="white" stroke="black" points="1894,-56.5 1894,-75.5 1992,-75.5 1992,-56.5 1894,-56.5"/>
<text text-anchor="middle" x="1943" y="-63.5" font-family="Helvetica,sans-Serif" font-size="10.00">IGraphicsWeb.cpp</text>
</a>
</g>
</g>
<!-- Node5&#45;&gt;Node19 -->
<g id="edge58" class="edge"><title>Node5&#45;&gt;Node19</title>
<path fill="none" stroke="midnightblue" d="M1795.28,-158.262C1793.59,-144.082 1793.83,-124.908 1804,-112 1816.05,-96.7075 1863.62,-83.5751 1899.79,-75.5106"/>
<polygon fill="midnightblue" stroke="midnightblue" points="1791.86,-159.032 1796.91,-168.349 1798.77,-157.92 1791.86,-159.032"/>
</g>
<!-- Node20 -->
<g id="node20" class="node"><title>Node20</title>
<g id="a_node20"><a xlink:href="_i_graphics_win_8cpp_source.html" target="_top" xlink:title="IGraphicsWin.cpp">
<polygon fill="white" stroke="black" points="2010.5,-56.5 2010.5,-75.5 2105.5,-75.5 2105.5,-56.5 2010.5,-56.5"/>
<text text-anchor="middle" x="2058" y="-63.5" font-family="Helvetica,sans-Serif" font-size="10.00">IGraphicsWin.cpp</text>
</a>
</g>
</g>
<!-- Node5&#45;&gt;Node20 -->
<g id="edge59" class="edge"><title>Node5&#45;&gt;Node20</title>
<path fill="none" stroke="midnightblue" d="M1804.99,-158.569C1810.8,-143.679 1821.09,-123.389 1837,-112 1850.97,-102 1949.65,-84.5619 2010.33,-74.584"/>
<polygon fill="midnightblue" stroke="midnightblue" points="1801.6,-157.658 1801.54,-168.253 1808.19,-160.009 1801.6,-157.658"/>
</g>
<!-- Node21 -->
<g id="node21" class="node"><title>Node21</title>
<g id="a_node21"><a xlink:href="_i_text_entry_control_8h.html" target="_top" xlink:title="A Text entry widget drawn by IGraphics to optionally override platform text entries. ">
<polygon fill="white" stroke="black" points="3499,-112.5 3499,-131.5 3601,-131.5 3601,-112.5 3499,-112.5"/>
<text text-anchor="middle" x="3550" y="-119.5" font-family="Helvetica,sans-Serif" font-size="10.00">ITextEntryControl.h</text>
</a>
</g>
</g>
<!-- Node5&#45;&gt;Node21 -->
<g id="edge29" class="edge"><title>Node5&#45;&gt;Node21</title>
<path fill="none" stroke="midnightblue" d="M1838.84,-176.602C2061.55,-174.279 3154.31,-161.532 3490,-132 3492.94,-131.742 3495.95,-131.432 3498.99,-131.086"/>
<polygon fill="midnightblue" stroke="midnightblue" points="1838.57,-173.105 1828.61,-176.708 1838.64,-180.105 1838.57,-173.105"/>
</g>
<!-- Node25 -->
<g id="node25" class="node"><title>Node25</title>
<g id="a_node25"><a xlink:href="_test_animation_control_8h.html" target="_top" xlink:title="Control to test animation. ">
<polygon fill="white" stroke="red" points="1846.5,-112.5 1846.5,-131.5 1965.5,-131.5 1965.5,-112.5 1846.5,-112.5"/>
<text text-anchor="middle" x="1906" y="-119.5" font-family="Helvetica,sans-Serif" font-size="10.00">TestAnimationControl.h</text>
</a>
</g>
</g>
<!-- Node5&#45;&gt;Node25 -->
<g id="edge35" class="edge"><title>Node5&#45;&gt;Node25</title>
<path fill="none" stroke="midnightblue" d="M1825.3,-163.726C1845.11,-153.727 1871.71,-140.307 1888.85,-131.655"/>
<polygon fill="midnightblue" stroke="midnightblue" points="1823.54,-160.694 1816.19,-168.324 1826.7,-166.943 1823.54,-160.694"/>
</g>
<!-- Node26 -->
<g id="node26" class="node"><title>Node26</title>
<g id="a_node26"><a xlink:href="_test_arc_control_8h.html" target="_top" xlink:title="Control to test drawing arcs. ">
<polygon fill="white" stroke="red" points="1983.5,-112.5 1983.5,-131.5 2074.5,-131.5 2074.5,-112.5 1983.5,-112.5"/>
<text text-anchor="middle" x="2029" y="-119.5" font-family="Helvetica,sans-Serif" font-size="10.00">TestArcControl.h</text>
</a>
</g>
</g>
<!-- Node5&#45;&gt;Node26 -->
<g id="edge36" class="edge"><title>Node5&#45;&gt;Node26</title>
<path fill="none" stroke="midnightblue" d="M1838.49,-167.728C1881.8,-157.56 1950.7,-141.382 1992.7,-131.522"/>
<polygon fill="midnightblue" stroke="midnightblue" points="1837.53,-164.358 1828.6,-170.051 1839.13,-171.173 1837.53,-164.358"/>
</g>
<!-- Node27 -->
<g id="node27" class="node"><title>Node27</title>
<g id="a_node27"><a xlink:href="_test_blend_control_8h.html" target="_top" xlink:title="Control to test blend methods. ">
<polygon fill="white" stroke="red" points="2092.5,-112.5 2092.5,-131.5 2193.5,-131.5 2193.5,-112.5 2092.5,-112.5"/>
<text text-anchor="middle" x="2143" y="-119.5" font-family="Helvetica,sans-Serif" font-size="10.00">TestBlendControl.h</text>
</a>
</g>
</g>
<!-- Node5&#45;&gt;Node27 -->
<g id="edge37" class="edge"><title>Node5&#45;&gt;Node27</title>
<path fill="none" stroke="midnightblue" d="M1838.53,-170.795C1901.23,-160.952 2023.46,-141.766 2092.45,-130.935"/>
<polygon fill="midnightblue" stroke="midnightblue" points="1837.96,-167.341 1828.63,-172.349 1839.05,-174.256 1837.96,-167.341"/>
</g>
<!-- Node28 -->
<g id="node28" class="node"><title>Node28</title>
<g id="a_node28"><a xlink:href="_test_color_control_8h.html" target="_top" xlink:title="Control to colors. ">
<polygon fill="white" stroke="red" points="2211.5,-112.5 2211.5,-131.5 2310.5,-131.5 2310.5,-112.5 2211.5,-112.5"/>
<text text-anchor="middle" x="2261" y="-119.5" font-family="Helvetica,sans-Serif" font-size="10.00">TestColorControl.h</text>
</a>
</g>
</g>
<!-- Node5&#45;&gt;Node28 -->
<g id="edge38" class="edge"><title>Node5&#45;&gt;Node28</title>
<path fill="none" stroke="midnightblue" d="M1838.66,-173.105C1910.99,-165.883 2069.12,-149.546 2202,-132 2205.08,-131.593 2208.25,-131.158 2211.45,-130.707"/>
<polygon fill="midnightblue" stroke="midnightblue" points="1838.23,-169.631 1828.63,-174.103 1838.92,-176.596 1838.23,-169.631"/>
</g>
<!-- Node29 -->
<g id="node29" class="node"><title>Node29</title>
<g id="a_node29"><a xlink:href="_test_dir_browse_control_8h.html" target="_top" xlink:title="Control to test IDirBrowseControlBase. ">
<polygon fill="white" stroke="red" points="2329,-112.5 2329,-131.5 2451,-131.5 2451,-112.5 2329,-112.5"/>
<text text-anchor="middle" x="2390" y="-119.5" font-family="Helvetica,sans-Serif" font-size="10.00">TestDirBrowseControl.h</text>
</a>
</g>
</g>
<!-- Node5&#45;&gt;Node29 -->
<g id="edge39" class="edge"><title>Node5&#45;&gt;Node29</title>
<path fill="none" stroke="midnightblue" d="M1838.88,-174.092C1926.07,-167.616 2140.17,-151.065 2319,-132 2322.21,-131.658 2325.5,-131.292 2328.83,-130.911"/>
<polygon fill="midnightblue" stroke="midnightblue" points="1838.36,-170.621 1828.65,-174.849 1838.88,-177.602 1838.36,-170.621"/>
</g>
<!-- Node30 -->
<g id="node30" class="node"><title>Node30</title>
<g id="a_node30"><a xlink:href="_test_gradient_control_8h.html" target="_top" xlink:title="Control to test drawing gradients with path based drawing backends. ">
<polygon fill="white" stroke="red" points="2469.5,-112.5 2469.5,-131.5 2582.5,-131.5 2582.5,-112.5 2469.5,-112.5"/>
<text text-anchor="middle" x="2526" y="-119.5" font-family="Helvetica,sans-Serif" font-size="10.00">TestGradientControl.h</text>
</a>
</g>
</g>
<!-- Node5&#45;&gt;Node30 -->
<g id="edge40" class="edge"><title>Node5&#45;&gt;Node30</title>
<path fill="none" stroke="midnightblue" d="M1838.96,-175.222C1942.02,-170.433 2225.15,-155.979 2460,-132 2462.99,-131.695 2466.06,-131.358 2469.15,-131.001"/>
<polygon fill="midnightblue" stroke="midnightblue" points="1838.54,-171.738 1828.71,-175.694 1838.86,-178.73 1838.54,-171.738"/>
</g>
<!-- Node31 -->
<g id="node31" class="node"><title>Node31</title>
<g id="a_node31"><a xlink:href="_test_layer_control_8h.html" target="_top" xlink:title="Control to test IGraphics layers. ">
<polygon fill="white" stroke="red" points="2639,-112.5 2639,-131.5 2739,-131.5 2739,-112.5 2639,-112.5"/>
<text text-anchor="middle" x="2689" y="-119.5" font-family="Helvetica,sans-Serif" font-size="10.00">TestLayerControl.h</text>
</a>
</g>
</g>
<!-- Node5&#45;&gt;Node31 -->
<g id="edge41" class="edge"><title>Node5&#45;&gt;Node31</title>
<path fill="none" stroke="midnightblue" d="M1838.83,-176.035C1958.23,-172.882 2323.56,-161.352 2625,-132 2629.47,-131.565 2634.1,-131.046 2638.74,-130.48"/>
<polygon fill="midnightblue" stroke="midnightblue" points="1838.61,-172.539 1828.7,-176.297 1838.79,-179.537 1838.61,-172.539"/>
</g>
<!-- Node32 -->
<g id="node32" class="node"><title>Node32</title>
<g id="a_node32"><a xlink:href="_test_multi_path_control_8h.html" target="_top" xlink:title="Control to test drawing paths in path&#45;based drawing backends. ">
<polygon fill="white" stroke="red" points="2757.5,-112.5 2757.5,-131.5 2874.5,-131.5 2874.5,-112.5 2757.5,-112.5"/>
<text text-anchor="middle" x="2816" y="-119.5" font-family="Helvetica,sans-Serif" font-size="10.00">TestMultiPathControl.h</text>
</a>
</g>
</g>
<!-- Node5&#45;&gt;Node32 -->
<g id="edge42" class="edge"><title>Node5&#45;&gt;Node32</title>
<path fill="none" stroke="midnightblue" d="M1838.89,-176.31C1969.55,-173.795 2396.46,-163.542 2748,-132 2751.08,-131.723 2754.24,-131.41 2757.43,-131.07"/>
<polygon fill="midnightblue" stroke="midnightblue" points="1838.51,-172.817 1828.58,-176.504 1838.64,-179.815 1838.51,-172.817"/>
</g>
<!-- Node33 -->
<g id="node33" class="node"><title>Node33</title>
<g id="a_node33"><a xlink:href="_test_poly_control_8h.html" target="_top" xlink:title="Control to test drawing polygons. ">
<polygon fill="white" stroke="red" points="2892.5,-112.5 2892.5,-131.5 2987.5,-131.5 2987.5,-112.5 2892.5,-112.5"/>
<text text-anchor="middle" x="2940" y="-119.5" font-family="Helvetica,sans-Serif" font-size="10.00">TestPolyControl.h</text>
</a>
</g>
</g>
<!-- Node5&#45;&gt;Node33 -->
<g id="edge43" class="edge"><title>Node5&#45;&gt;Node33</title>
<path fill="none" stroke="midnightblue" d="M1838.84,-176.998C1981,-176.641 2476.6,-172.384 2883,-132 2886.09,-131.693 2889.27,-131.328 2892.47,-130.924"/>
<polygon fill="midnightblue" stroke="midnightblue" points="1838.83,-173.498 1828.83,-177.018 1838.84,-180.498 1838.83,-173.498"/>
</g>
<!-- Node34 -->
<g id="node34" class="node"><title>Node34</title>
<g id="a_node34"><a xlink:href="_test_text_control_8h.html" target="_top" xlink:title="Control to test drawing text. ">
<polygon fill="white" stroke="red" points="3005.5,-112.5 3005.5,-131.5 3100.5,-131.5 3100.5,-112.5 3005.5,-112.5"/>
<text text-anchor="middle" x="3053" y="-119.5" font-family="Helvetica,sans-Serif" font-size="10.00">TestTextControl.h</text>
</a>
</g>
</g>
<!-- Node5&#45;&gt;Node34 -->
<g id="edge44" class="edge"><title>Node5&#45;&gt;Node34</title>
<path fill="none" stroke="midnightblue" d="M1838.9,-177.22C1990.24,-177.69 2543.23,-176.098 2996,-132 2999.09,-131.699 3002.27,-131.339 3005.47,-130.938"/>
<polygon fill="midnightblue" stroke="midnightblue" points="1838.71,-173.719 1828.7,-177.183 1838.69,-180.719 1838.71,-173.719"/>
</g>
<!-- Node35 -->
<g id="node35" class="node"><title>Node35</title>
<g id="a_node35"><a xlink:href="_test_draw_context_control_8h.html" target="_top" xlink:title="Control to test obtaining a drawing API (NanoVG, LICE, Cairo, AGG etc) context and using that API wit...">
<polygon fill="white" stroke="red" points="3119,-112.5 3119,-131.5 3253,-131.5 3253,-112.5 3119,-112.5"/>
<text text-anchor="middle" x="3186" y="-119.5" font-family="Helvetica,sans-Serif" font-size="10.00">TestDrawContextControl.h</text>
</a>
</g>
</g>
<!-- Node5&#45;&gt;Node35 -->
<g id="edge45" class="edge"><title>Node5&#45;&gt;Node35</title>
<path fill="none" stroke="midnightblue" d="M1838.86,-176.822C1998.72,-175.857 2608.79,-169.76 3109,-132 3112.22,-131.757 3115.51,-131.48 3118.84,-131.178"/>
<polygon fill="midnightblue" stroke="midnightblue" points="1838.54,-173.324 1828.56,-176.881 1838.58,-180.324 1838.54,-173.324"/>
</g>
<!-- Node36 -->
<g id="node36" class="node"><title>Node36</title>
<g id="a_node36"><a xlink:href="_test_size_control_8h.html" target="_top" xlink:title="Control to display the size of a region. ">
<polygon fill="white" stroke="red" points="3271.5,-112.5 3271.5,-131.5 3366.5,-131.5 3366.5,-112.5 3271.5,-112.5"/>
<text text-anchor="middle" x="3319" y="-119.5" font-family="Helvetica,sans-Serif" font-size="10.00">TestSizeControl.h</text>
</a>
</g>
</g>
<!-- Node5&#45;&gt;Node36 -->
<g id="edge46" class="edge"><title>Node5&#45;&gt;Node36</title>
<path fill="none" stroke="midnightblue" d="M1838.85,-176.454C2043.1,-173.549 2974.3,-159.029 3262,-132 3265.09,-131.709 3268.27,-131.357 3271.47,-130.963"/>
<polygon fill="midnightblue" stroke="midnightblue" points="1838.54,-172.958 1828.59,-176.598 1838.64,-179.957 1838.54,-172.958"/>
</g>
<!-- Node37 -->
<g id="node37" class="node"><title>Node37</title>
<g id="a_node37"><a xlink:href="_test_s_v_g_control_8h.html" target="_top" xlink:title="Control to test drawing SVGs. ">
<polygon fill="white" stroke="red" points="3384.5,-112.5 3384.5,-131.5 3481.5,-131.5 3481.5,-112.5 3384.5,-112.5"/>
<text text-anchor="middle" x="3433" y="-119.5" font-family="Helvetica,sans-Serif" font-size="10.00">TestSVGControl.h</text>
</a>
</g>
</g>
<!-- Node5&#45;&gt;Node37 -->
<g id="edge47" class="edge"><title>Node5&#45;&gt;Node37</title>
<path fill="none" stroke="midnightblue" d="M1838.82,-176.541C2052.35,-173.975 3063.55,-160.497 3375,-132 3378.04,-131.721 3381.17,-131.385 3384.32,-131.007"/>
<polygon fill="midnightblue" stroke="midnightblue" points="1838.65,-173.042 1828.7,-176.661 1838.74,-180.042 1838.65,-173.042"/>
</g>
<!-- Node38 -->
<g id="node38" class="node"><title>Node38</title>
<g id="a_node38"><a xlink:href="_test_image_control_8h.html" target="_top" xlink:title="Control to test drawing bitmaps. ">
<polygon fill="white" stroke="red" points="-0.5,-112.5 -0.5,-131.5 102.5,-131.5 102.5,-112.5 -0.5,-112.5"/>
<text text-anchor="middle" x="51" y="-119.5" font-family="Helvetica,sans-Serif" font-size="10.00">TestImageControl.h</text>
</a>
</g>
</g>
<!-- Node5&#45;&gt;Node38 -->
<g id="edge48" class="edge"><title>Node5&#45;&gt;Node38</title>
<path fill="none" stroke="midnightblue" d="M1759.25,-176.587C1537.08,-174.183 446.93,-161.07 112,-132 108.907,-131.732 105.732,-131.408 102.534,-131.047"/>
<polygon fill="midnightblue" stroke="midnightblue" points="1759.43,-180.089 1769.46,-176.697 1759.5,-173.09 1759.43,-180.089"/>
</g>
<!-- Node39 -->
<g id="node39" class="node"><title>Node39</title>
<g id="a_node39"><a xlink:href="_test_drop_shadow_control_8h.html" target="_top" xlink:title="Control to test layer drop shadows. ">
<polygon fill="white" stroke="red" points="121,-112.5 121,-131.5 253,-131.5 253,-112.5 121,-112.5"/>
<text text-anchor="middle" x="187" y="-119.5" font-family="Helvetica,sans-Serif" font-size="10.00">TestDropShadowControl.h</text>
</a>
</g>
</g>
<!-- Node5&#45;&gt;Node39 -->
<g id="edge49" class="edge"><title>Node5&#45;&gt;Node39</title>
<path fill="none" stroke="midnightblue" d="M1759.3,-177.152C1583.37,-177.55 856.498,-176.282 262,-132 259.123,-131.786 256.186,-131.542 253.222,-131.275"/>
<polygon fill="midnightblue" stroke="midnightblue" points="1759.4,-180.652 1769.39,-177.126 1759.38,-173.652 1759.4,-180.652"/>
</g>
<!-- Node40 -->
<g id="node40" class="node"><title>Node40</title>
<g id="a_node40"><a xlink:href="_test_cursor_control_8h.html" target="_top" xlink:title="Control to test changing the platform cursor. ">
<polygon fill="white" stroke="red" points="271.5,-112.5 271.5,-131.5 376.5,-131.5 376.5,-112.5 271.5,-112.5"/>
<text text-anchor="middle" x="324" y="-119.5" font-family="Helvetica,sans-Serif" font-size="10.00">TestCursorControl.h</text>
</a>
</g>
</g>
<!-- Node5&#45;&gt;Node40 -->
<g id="edge50" class="edge"><title>Node5&#45;&gt;Node40</title>
<path fill="none" stroke="midnightblue" d="M1758.96,-177.403C1591.08,-178.739 927.464,-180.489 385,-132 382.228,-131.752 379.389,-131.462 376.527,-131.14"/>
<polygon fill="midnightblue" stroke="midnightblue" points="1759.1,-180.902 1769.07,-177.318 1759.04,-173.902 1759.1,-180.902"/>
</g>
<!-- Node41 -->
<g id="node41" class="node"><title>Node41</title>
<g id="a_node41"><a xlink:href="_test_keyboard_control_8h.html" target="_top" xlink:title="Control to test keyboard input. ">
<polygon fill="white" stroke="red" points="394.5,-112.5 394.5,-131.5 511.5,-131.5 511.5,-112.5 394.5,-112.5"/>
<text text-anchor="middle" x="453" y="-119.5" font-family="Helvetica,sans-Serif" font-size="10.00">TestKeyboardControl.h</text>
</a>
</g>
</g>
<!-- Node5&#45;&gt;Node41 -->
<g id="edge51" class="edge"><title>Node5&#45;&gt;Node41</title>
<path fill="none" stroke="midnightblue" d="M1759.02,-177.024C1601.27,-176.814 1006.95,-173.172 520,-132 517.31,-131.773 514.563,-131.513 511.79,-131.23"/>
<polygon fill="midnightblue" stroke="midnightblue" points="1759.19,-180.524 1769.19,-177.033 1759.19,-173.524 1759.19,-180.524"/>
</g>
<!-- Node42 -->
<g id="node42" class="node"><title>Node42</title>
<g id="a_node42"><a xlink:href="_test_rotating_mask_control_8h_source.html" target="_top" xlink:title="TestRotatingMaskControl.h">
<polygon fill="white" stroke="red" points="529.5,-112.5 529.5,-131.5 666.5,-131.5 666.5,-112.5 529.5,-112.5"/>
<text text-anchor="middle" x="598" y="-119.5" font-family="Helvetica,sans-Serif" font-size="10.00">TestRotatingMaskControl.h</text>
</a>
</g>
</g>
<!-- Node5&#45;&gt;Node42 -->
<g id="edge52" class="edge"><title>Node5&#45;&gt;Node42</title>
<path fill="none" stroke="midnightblue" d="M1759.26,-176.483C1614.15,-174.366 1099.23,-164.85 676,-132 673.01,-131.768 669.958,-131.509 666.876,-131.23"/>
<polygon fill="midnightblue" stroke="midnightblue" points="1759.41,-179.985 1769.45,-176.628 1759.51,-172.986 1759.41,-179.985"/>
</g>
<!-- Node43 -->
<g id="node43" class="node"><title>Node43</title>
<g id="a_node43"><a xlink:href="_i_control_8cpp_source.html" target="_top" xlink:title="IControl.cpp">
<polygon fill="white" stroke="black" points="685,-112.5 685,-131.5 755,-131.5 755,-112.5 685,-112.5"/>
<text text-anchor="middle" x="720" y="-119.5" font-family="Helvetica,sans-Serif" font-size="10.00">IControl.cpp</text>
</a>
</g>
</g>
<!-- Node5&#45;&gt;Node43 -->
<g id="edge53" class="edge"><title>Node5&#45;&gt;Node43</title>
<path fill="none" stroke="midnightblue" d="M1759.09,-177.53C1620.78,-178.884 1149.35,-179.485 764,-132 761.214,-131.657 758.342,-131.232 755.462,-130.756"/>
<polygon fill="midnightblue" stroke="midnightblue" points="1759.25,-181.028 1769.22,-177.423 1759.18,-174.029 1759.25,-181.028"/>
</g>
<!-- Node44 -->
<g id="node44" class="node"><title>Node44</title>
<g id="a_node44"><a xlink:href="_i_graphics_live_edit_8h.html" target="_top" xlink:title="A control to enable live modification of control layout in an IGraphics context in debug builds This ...">
<polygon fill="white" stroke="black" points="1418,-56.5 1418,-75.5 1520,-75.5 1520,-56.5 1418,-56.5"/>
<text text-anchor="middle" x="1469" y="-63.5" font-family="Helvetica,sans-Serif" font-size="10.00">IGraphicsLiveEdit.h</text>
</a>
</g>
</g>
<!-- Node5&#45;&gt;Node44 -->
<g id="edge55" class="edge"><title>Node5&#45;&gt;Node44</title>
<path fill="none" stroke="midnightblue" d="M1759.38,-174.777C1710.7,-170.884 1626.39,-160.32 1560,-132 1526.78,-117.832 1493.8,-89.9387 1478.24,-75.744"/>
<polygon fill="midnightblue" stroke="midnightblue" points="1759.27,-178.278 1769.5,-175.531 1759.79,-171.298 1759.27,-178.278"/>
</g>
<!-- Node5&#45;&gt;Node45 -->
<g id="edge57" class="edge"><title>Node5&#45;&gt;Node45</title>
<path fill="none" stroke="midnightblue" d="M1838.63,-177.273C2032.5,-178.344 2900.34,-180.09 3609,-132 3612.25,-131.78 3615.56,-131.526 3618.91,-131.248"/>
<polygon fill="midnightblue" stroke="midnightblue" points="1838.64,-173.773 1828.62,-177.215 1838.6,-180.773 1838.64,-173.773"/>
</g>
<!-- Node6&#45;&gt;Node7 -->
<g id="edge6" class="edge"><title>Node6&#45;&gt;Node7</title>
<path fill="none" stroke="midnightblue" d="M1408.77,-109.994C1367.26,-99.6641 1306.12,-84.4502 1268.8,-75.1629"/>
<polygon fill="midnightblue" stroke="midnightblue" points="1408.07,-113.425 1418.62,-112.444 1409.76,-106.632 1408.07,-113.425"/>
</g>
<!-- Node8 -->
<g id="node8" class="node"><title>Node8</title>
<g id="a_node8"><a xlink:href="_i_controls_8cpp.html" target="_top" xlink:title="IControls implementation. ">
<polygon fill="white" stroke="black" points="1198.5,-0.5 1198.5,-19.5 1273.5,-19.5 1273.5,-0.5 1198.5,-0.5"/>
<text text-anchor="middle" x="1236" y="-7.5" font-family="Helvetica,sans-Serif" font-size="10.00">IControls.cpp</text>
</a>
</g>
</g>
<!-- Node7&#45;&gt;Node8 -->
<g id="edge7" class="edge"><title>Node7&#45;&gt;Node8</title>
<path fill="none" stroke="midnightblue" d="M1236,-45.8045C1236,-36.9102 1236,-26.7798 1236,-19.7511"/>
<polygon fill="midnightblue" stroke="midnightblue" points="1232.5,-46.083 1236,-56.083 1239.5,-46.083 1232.5,-46.083"/>
</g>
<!-- Node7&#45;&gt;Node9 -->
<g id="edge8" class="edge"><title>Node7&#45;&gt;Node9</title>
<path fill="none" stroke="midnightblue" d="M1278.71,-59.8176C1365.09,-49.3353 1559.37,-25.7597 1642.3,-15.6967"/>
<polygon fill="midnightblue" stroke="midnightblue" points="1278.23,-56.35 1268.72,-61.0293 1279.07,-63.299 1278.23,-56.35"/>
</g>
<!-- Node10&#45;&gt;Node7 -->
<g id="edge11" class="edge"><title>Node10&#45;&gt;Node7</title>
<path fill="none" stroke="midnightblue" d="M890.945,-111.748C1012.01,-95.179 1143.64,-78.5381 1203.45,-71.0541"/>
<polygon fill="midnightblue" stroke="midnightblue" points="890.193,-108.318 880.761,-113.145 891.144,-115.253 890.193,-108.318"/>
</g>
<!-- Node11&#45;&gt;Node7 -->
<g id="edge13" class="edge"><title>Node11&#45;&gt;Node7</title>
<path fill="none" stroke="midnightblue" d="M999.731,-110.694C1060.01,-99.5469 1154.06,-82.1531 1203.35,-73.0373"/>
<polygon fill="midnightblue" stroke="midnightblue" points="998.822,-107.302 989.625,-112.562 1000.09,-114.186 998.822,-107.302"/>
</g>
<!-- Node12&#45;&gt;Node7 -->
<g id="edge15" class="edge"><title>Node12&#45;&gt;Node7</title>
<path fill="none" stroke="midnightblue" d="M1093.32,-109.568C1127.46,-99.381 1176.66,-84.7034 1207.45,-75.5164"/>
<polygon fill="midnightblue" stroke="midnightblue" points="1092.26,-106.231 1083.68,-112.444 1094.26,-112.938 1092.26,-106.231"/>
</g>
<!-- Node13&#45;&gt;Node7 -->
<g id="edge17" class="edge"><title>Node13&#45;&gt;Node7</title>
<path fill="none" stroke="midnightblue" d="M1193.18,-105.537C1203.88,-95.9087 1217.26,-83.8694 1226.18,-75.8339"/>
<polygon fill="midnightblue" stroke="midnightblue" points="1190.73,-103.033 1185.64,-112.324 1195.41,-108.236 1190.73,-103.033"/>
</g>
<!-- Node14&#45;&gt;Node7 -->
<g id="edge19" class="edge"><title>Node14&#45;&gt;Node7</title>
<path fill="none" stroke="midnightblue" d="M1278.82,-105.537C1268.12,-95.9087 1254.74,-83.8694 1245.82,-75.8339"/>
<polygon fill="midnightblue" stroke="midnightblue" points="1276.59,-108.236 1286.36,-112.324 1281.27,-103.033 1276.59,-108.236"/>
</g>
<!-- Node15&#45;&gt;Node9 -->
<g id="edge21" class="edge"><title>Node15&#45;&gt;Node9</title>
<path fill="none" stroke="midnightblue" d="M1650.73,-48.144C1658.4,-38.7357 1667.63,-27.4046 1673.87,-19.7511"/>
<polygon fill="midnightblue" stroke="midnightblue" points="1647.87,-46.1198 1644.27,-56.083 1653.3,-50.5415 1647.87,-46.1198"/>
</g>
<!-- Node16&#45;&gt;Node9 -->
<g id="edge23" class="edge"><title>Node16&#45;&gt;Node9</title>
<path fill="none" stroke="midnightblue" d="M2341.53,-60.0625C2192.96,-49.0274 1837.81,-22.6478 1719.84,-13.8849"/>
<polygon fill="midnightblue" stroke="midnightblue" points="2341.63,-63.5796 2351.86,-60.83 2342.15,-56.5988 2341.63,-63.5796"/>
</g>
<!-- Node17&#45;&gt;Node9 -->
<g id="edge26" class="edge"><title>Node17&#45;&gt;Node9</title>
<path fill="none" stroke="midnightblue" d="M1703.23,-102.765C1707.44,-89.626 1711.17,-71.5457 1707,-56 1703.31,-42.2304 1694.27,-28.3162 1687.89,-19.6811"/>
<polygon fill="midnightblue" stroke="midnightblue" points="1699.83,-101.882 1699.74,-112.476 1706.42,-104.247 1699.83,-101.882"/>
</g>
<!-- Node18 -->
<g id="node18" class="node"><title>Node18</title>
<g id="a_node18"><a xlink:href="_i_popup_menu_control_8cpp.html" target="_top" xlink:title="IPopupMenuControl implementation. ">
<polygon fill="white" stroke="black" points="1754,-56.5 1754,-75.5 1876,-75.5 1876,-56.5 1754,-56.5"/>
<text text-anchor="middle" x="1815" y="-63.5" font-family="Helvetica,sans-Serif" font-size="10.00">IPopupMenuControl.cpp</text>
</a>
</g>
</g>
<!-- Node17&#45;&gt;Node18 -->
<g id="edge25" class="edge"><title>Node17&#45;&gt;Node18</title>
<path fill="none" stroke="midnightblue" d="M1724.14,-108.232C1746.4,-98.1312 1776.86,-84.3091 1796.23,-75.5164"/>
<polygon fill="midnightblue" stroke="midnightblue" points="1722.52,-105.124 1714.86,-112.444 1725.41,-111.498 1722.52,-105.124"/>
</g>
<!-- Node17&#45;&gt;Node19 -->
<g id="edge27" class="edge"><title>Node17&#45;&gt;Node19</title>
<path fill="none" stroke="midnightblue" d="M1745.03,-110.281C1791.7,-100.077 1861.03,-84.9203 1904.05,-75.5164"/>
<polygon fill="midnightblue" stroke="midnightblue" points="1744.16,-106.888 1735.14,-112.444 1745.65,-113.727 1744.16,-106.888"/>
</g>
<!-- Node17&#45;&gt;Node20 -->
<g id="edge28" class="edge"><title>Node17&#45;&gt;Node20</title>
<path fill="none" stroke="midnightblue" d="M1761.74,-111.404C1823.32,-102.383 1917.93,-88.4421 2000,-76 2003.32,-75.496 2006.76,-74.9724 2010.21,-74.4426"/>
<polygon fill="midnightblue" stroke="midnightblue" points="1761.16,-107.952 1751.77,-112.864 1762.17,-114.878 1761.16,-107.952"/>
</g>
<!-- Node21&#45;&gt;Node4 -->
<g id="edge32" class="edge"><title>Node21&#45;&gt;Node4</title>
<path fill="none" stroke="midnightblue" d="M3580.09,-108.503C3604.46,-98.3795 3638.14,-84.388 3659.5,-75.5164"/>
<polygon fill="midnightblue" stroke="midnightblue" points="3578.49,-105.375 3570.6,-112.444 3581.18,-111.84 3578.49,-105.375"/>
</g>
<!-- Node21&#45;&gt;Node9 -->
<g id="edge34" class="edge"><title>Node21&#45;&gt;Node9</title>
<path fill="none" stroke="midnightblue" d="M3488.99,-111.993C2773.6,-39.0463 1910.63,-16.1678 1719.61,-11.8223"/>
<polygon fill="midnightblue" stroke="midnightblue" points="3488.67,-115.479 3498.98,-113.016 3489.39,-108.516 3488.67,-115.479"/>
</g>
<!-- Node22 -->
<g id="node22" class="node"><title>Node22</title>
<g id="a_node22"><a xlink:href="_i_text_entry_control_8cpp.html" target="_top" xlink:title="ITextEntryControl implementation. ">
<polygon fill="white" stroke="black" points="3493.5,-56.5 3493.5,-75.5 3606.5,-75.5 3606.5,-56.5 3493.5,-56.5"/>
<text text-anchor="middle" x="3550" y="-63.5" font-family="Helvetica,sans-Serif" font-size="10.00">ITextEntryControl.cpp</text>
</a>
</g>
</g>
<!-- Node21&#45;&gt;Node22 -->
<g id="edge30" class="edge"><title>Node21&#45;&gt;Node22</title>
<path fill="none" stroke="midnightblue" d="M3550,-101.805C3550,-92.9102 3550,-82.7798 3550,-75.7511"/>
<polygon fill="midnightblue" stroke="midnightblue" points="3546.5,-102.083 3550,-112.083 3553.5,-102.083 3546.5,-102.083"/>
</g>
<!-- Node23 -->
<g id="node23" class="node"><title>Node23</title>
<g id="a_node23"><a xlink:href="_i_graphics_cairo_8cpp_source.html" target="_top" xlink:title="IGraphicsCairo.cpp">
<polygon fill="white" stroke="black" points="3761.5,-56.5 3761.5,-75.5 3862.5,-75.5 3862.5,-56.5 3761.5,-56.5"/>
<text text-anchor="middle" x="3812" y="-63.5" font-family="Helvetica,sans-Serif" font-size="10.00">IGraphicsCairo.cpp</text>
</a>
</g>
</g>
<!-- Node21&#45;&gt;Node23 -->
<g id="edge31" class="edge"><title>Node21&#45;&gt;Node23</title>
<path fill="none" stroke="midnightblue" d="M3601.38,-110.41C3650.9,-100.204 3724.86,-84.9597 3770.68,-75.5164"/>
<polygon fill="midnightblue" stroke="midnightblue" points="3600.6,-106.997 3591.51,-112.444 3602.02,-113.853 3600.6,-106.997"/>
</g>
<!-- Node24 -->
<g id="node24" class="node"><title>Node24</title>
<g id="a_node24"><a xlink:href="_i_graphics_nano_v_g_8cpp_source.html" target="_top" xlink:title="IGraphicsNanoVG.cpp">
<polygon fill="white" stroke="black" points="3911.5,-56.5 3911.5,-75.5 4026.5,-75.5 4026.5,-56.5 3911.5,-56.5"/>
<text text-anchor="middle" x="3969" y="-63.5" font-family="Helvetica,sans-Serif" font-size="10.00">IGraphicsNanoVG.cpp</text>
</a>
</g>
</g>
<!-- Node21&#45;&gt;Node24 -->
<g id="edge33" class="edge"><title>Node21&#45;&gt;Node24</title>
<path fill="none" stroke="midnightblue" d="M3611.2,-111.863C3723.49,-96.4928 3842.56,-81.9914 3911.43,-73.7813"/>
<polygon fill="midnightblue" stroke="midnightblue" points="3610.48,-108.428 3601.05,-113.257 3611.43,-115.363 3610.48,-108.428"/>
</g>
<!-- Node44&#45;&gt;Node9 -->
<g id="edge56" class="edge"><title>Node44&#45;&gt;Node9</title>
<path fill="none" stroke="midnightblue" d="M1512.35,-53.959C1552.39,-43.7598 1611.03,-28.8217 1647.57,-19.5164"/>
<polygon fill="midnightblue" stroke="midnightblue" points="1511.42,-50.5834 1502.59,-56.4435 1513.15,-57.3668 1511.42,-50.5834"/>
</g>
<!-- Node47 -->
<g id="node47" class="node"><title>Node47</title>
<g id="a_node47"><a xlink:href="_i_graphics_a_g_g_8h_source.html" target="_top" xlink:title="IGraphicsAGG.h">
<polygon fill="white" stroke="red" points="4047.5,-112.5 4047.5,-131.5 4136.5,-131.5 4136.5,-112.5 4047.5,-112.5"/>
<text text-anchor="middle" x="4092" y="-119.5" font-family="Helvetica,sans-Serif" font-size="10.00">IGraphicsAGG.h</text>
</a>
</g>
</g>
<!-- Node46&#45;&gt;Node47 -->
<g id="edge63" class="edge"><title>Node46&#45;&gt;Node47</title>
<path fill="none" stroke="midnightblue" d="M4004.48,-164.096C4025.97,-154.007 4055.22,-140.27 4073.86,-131.516"/>
<polygon fill="midnightblue" stroke="midnightblue" points="4002.79,-161.025 3995.22,-168.444 4005.76,-167.361 4002.79,-161.025"/>
</g>
<!-- Node48 -->
<g id="node48" class="node"><title>Node48</title>
<g id="a_node48"><a xlink:href="_i_graphics_cairo_8h_source.html" target="_top" xlink:title="IGraphicsCairo.h">
<polygon fill="white" stroke="black" points="3817,-112.5 3817,-131.5 3907,-131.5 3907,-112.5 3817,-112.5"/>
<text text-anchor="middle" x="3862" y="-119.5" font-family="Helvetica,sans-Serif" font-size="10.00">IGraphicsCairo.h</text>
</a>
</g>
</g>
<!-- Node46&#45;&gt;Node48 -->
<g id="edge64" class="edge"><title>Node46&#45;&gt;Node48</title>
<path fill="none" stroke="midnightblue" d="M3949.52,-164.096C3928.03,-154.007 3898.78,-140.27 3880.14,-131.516"/>
<polygon fill="midnightblue" stroke="midnightblue" points="3948.24,-167.361 3958.78,-168.444 3951.21,-161.025 3948.24,-167.361"/>
</g>
<!-- Node49 -->
<g id="node49" class="node"><title>Node49</title>
<g id="a_node49"><a xlink:href="_i_graphics_canvas_8h_source.html" target="_top" xlink:title="IGraphicsCanvas.h">
<polygon fill="white" stroke="red" points="4154.5,-112.5 4154.5,-131.5 4255.5,-131.5 4255.5,-112.5 4154.5,-112.5"/>
<text text-anchor="middle" x="4205" y="-119.5" font-family="Helvetica,sans-Serif" font-size="10.00">IGraphicsCanvas.h</text>
</a>
</g>
</g>
<!-- Node46&#45;&gt;Node49 -->
<g id="edge66" class="edge"><title>Node46&#45;&gt;Node49</title>
<path fill="none" stroke="midnightblue" d="M4023.07,-166.088C4066.15,-155.887 4129.59,-140.861 4169.04,-131.516"/>
<polygon fill="midnightblue" stroke="midnightblue" points="4022.05,-162.733 4013.13,-168.444 4023.66,-169.545 4022.05,-162.733"/>
</g>
<!-- Node50 -->
<g id="node50" class="node"><title>Node50</title>
<g id="a_node50"><a xlink:href="_i_graphics_nano_v_g_8h_source.html" target="_top" xlink:title="IGraphicsNanoVG.h">
<polygon fill="white" stroke="black" points="3925,-112.5 3925,-131.5 4029,-131.5 4029,-112.5 3925,-112.5"/>
<text text-anchor="middle" x="3977" y="-119.5" font-family="Helvetica,sans-Serif" font-size="10.00">IGraphicsNanoVG.h</text>
</a>
</g>
</g>
<!-- Node46&#45;&gt;Node50 -->
<g id="edge67" class="edge"><title>Node46&#45;&gt;Node50</title>
<path fill="none" stroke="midnightblue" d="M3977,-157.805C3977,-148.91 3977,-138.78 3977,-131.751"/>
<polygon fill="midnightblue" stroke="midnightblue" points="3973.5,-158.083 3977,-168.083 3980.5,-158.083 3973.5,-158.083"/>
</g>
<!-- Node48&#45;&gt;Node23 -->
<g id="edge65" class="edge"><title>Node48&#45;&gt;Node23</title>
<path fill="none" stroke="midnightblue" d="M3846.92,-104.718C3838.11,-95.1997 3827.33,-83.5608 3820.1,-75.7511"/>
<polygon fill="midnightblue" stroke="midnightblue" points="3844.38,-107.123 3853.74,-112.083 3849.52,-102.367 3844.38,-107.123"/>
</g>
<!-- Node50&#45;&gt;Node24 -->
<g id="edge68" class="edge"><title>Node50&#45;&gt;Node24</title>
<path fill="none" stroke="midnightblue" d="M3974.2,-102.101C3972.87,-93.1357 3971.35,-82.8579 3970.3,-75.7511"/>
<polygon fill="midnightblue" stroke="midnightblue" points="3970.75,-102.704 3975.68,-112.083 3977.68,-101.678 3970.75,-102.704"/>
</g>
</g>
</svg>
