<?xml version="1.0" encoding="UTF-8" standalone="no"?>
<!DOCTYPE svg PUBLIC "-//W3C//DTD SVG 1.1//EN"
 "http://www.w3.org/Graphics/SVG/1.1/DTD/svg11.dtd">
<!-- Generated by graphviz version 2.36.0 (20140111.2315)
 -->
<!-- Title: IRTTextControl.h Pages: 1 -->
<svg width="2114pt" height="588pt"
 viewBox="0.00 0.00 2114.00 588.00" xmlns="http://www.w3.org/2000/svg" xmlns:xlink="http://www.w3.org/1999/xlink">
<g id="graph0" class="graph" transform="scale(1 1) rotate(0) translate(4 584)">
<title>IRTTextControl.h</title>
<polygon fill="white" stroke="none" points="-4,4 -4,-584 2110,-584 2110,4 -4,4"/>
<!-- Node1 -->
<g id="node1" class="node"><title>Node1</title>
<polygon fill="#bfbfbf" stroke="black" points="1825,-560.5 1825,-579.5 1917,-579.5 1917,-560.5 1825,-560.5"/>
<text text-anchor="middle" x="1871" y="-567.5" font-family="Helvetica,sans-Serif" font-size="10.00">IRTTextControl.h</text>
</g>
<!-- Node2 -->
<g id="node2" class="node"><title>Node2</title>
<g id="a_node2"><a xlink:href="_i_control_8h.html" target="_top" xlink:title="This file contains the base IControl implementation, along with some base classes for specific types ...">
<polygon fill="white" stroke="black" points="1841.5,-504.5 1841.5,-523.5 1900.5,-523.5 1900.5,-504.5 1841.5,-504.5"/>
<text text-anchor="middle" x="1871" y="-511.5" font-family="Helvetica,sans-Serif" font-size="10.00">IControl.h</text>
</a>
</g>
</g>
<!-- Node1&#45;&gt;Node2 -->
<g id="edge1" class="edge"><title>Node1&#45;&gt;Node2</title>
<path fill="none" stroke="midnightblue" d="M1871,-560.083C1871,-553.006 1871,-542.861 1871,-533.986"/>
<polygon fill="midnightblue" stroke="midnightblue" points="1874.5,-533.751 1871,-523.751 1867.5,-533.751 1874.5,-533.751"/>
</g>
<!-- Node36 -->
<g id="node36" class="node"><title>Node36</title>
<g id="a_node36"><a xlink:href="_i_plug_structs_8h_source.html" target="_top" xlink:title="IPlugStructs.h">
<polygon fill="white" stroke="black" points="1515.5,-280.5 1515.5,-299.5 1594.5,-299.5 1594.5,-280.5 1515.5,-280.5"/>
<text text-anchor="middle" x="1555" y="-287.5" font-family="Helvetica,sans-Serif" font-size="10.00">IPlugStructs.h</text>
</a>
</g>
</g>
<!-- Node1&#45;&gt;Node36 -->
<g id="edge86" class="edge"><title>Node1&#45;&gt;Node36</title>
<path fill="none" stroke="midnightblue" d="M1861.2,-560.375C1816.32,-520.892 1630.17,-357.135 1572.27,-306.193"/>
<polygon fill="midnightblue" stroke="midnightblue" points="1574.51,-303.502 1564.69,-299.524 1569.89,-308.757 1574.51,-303.502"/>
</g>
<!-- Node40 -->
<g id="node40" class="node"><title>Node40</title>
<g id="a_node40"><a xlink:href="_i_plug_queue_8h.html" target="_top" xlink:title="A lock&#45;free SPSC queue used to transfer data between threads based on MLQueue.h by Randy Jones based ...">
<polygon fill="white" stroke="black" points="1990,-504.5 1990,-523.5 2066,-523.5 2066,-504.5 1990,-504.5"/>
<text text-anchor="middle" x="2028" y="-511.5" font-family="Helvetica,sans-Serif" font-size="10.00">IPlugQueue.h</text>
</a>
</g>
</g>
<!-- Node1&#45;&gt;Node40 -->
<g id="edge87" class="edge"><title>Node1&#45;&gt;Node40</title>
<path fill="none" stroke="midnightblue" d="M1895.88,-560.444C1922.29,-551.359 1964.22,-536.939 1993.74,-526.783"/>
<polygon fill="midnightblue" stroke="midnightblue" points="1994.92,-530.079 2003.24,-523.516 1992.64,-523.459 1994.92,-530.079"/>
</g>
<!-- Node3 -->
<g id="node3" class="node"><title>Node3</title>
<polygon fill="white" stroke="#bfbfbf" points="611,-0.5 611,-19.5 657,-19.5 657,-0.5 611,-0.5"/>
<text text-anchor="middle" x="634" y="-7.5" font-family="Helvetica,sans-Serif" font-size="10.00">cstring</text>
</g>
<!-- Node2&#45;&gt;Node3 -->
<g id="edge2" class="edge"><title>Node2&#45;&gt;Node3</title>
<path fill="none" stroke="midnightblue" d="M1841.23,-512.863C1601.89,-511.574 0,-499.345 0,-403 0,-403 0,-403 0,-121 0,-83.1569 21.3128,-73.2415 55,-56 103.631,-31.1103 484.922,-16.1105 600.746,-12.0946"/>
<polygon fill="midnightblue" stroke="midnightblue" points="600.924,-15.5906 610.799,-11.7506 600.685,-8.59473 600.924,-15.5906"/>
</g>
<!-- Node4 -->
<g id="node4" class="node"><title>Node4</title>
<polygon fill="white" stroke="#bfbfbf" points="1761.5,-0.5 1761.5,-19.5 1806.5,-19.5 1806.5,-0.5 1761.5,-0.5"/>
<text text-anchor="middle" x="1784" y="-7.5" font-family="Helvetica,sans-Serif" font-size="10.00">cstdlib</text>
</g>
<!-- Node2&#45;&gt;Node4 -->
<g id="edge3" class="edge"><title>Node2&#45;&gt;Node4</title>
<path fill="none" stroke="midnightblue" d="M1889.63,-504.346C1931.21,-483.594 2028,-426.731 2028,-347 2028,-347 2028,-347 2028,-121 2028,-29.4458 1883.46,-13.6613 1816.88,-11.2473"/>
<polygon fill="midnightblue" stroke="midnightblue" points="1816.61,-7.73867 1806.52,-10.9577 1816.42,-14.7359 1816.61,-7.73867"/>
</g>
<!-- Node5 -->
<g id="node5" class="node"><title>Node5</title>
<g id="a_node5"><a xlink:href="_i_plug_platform_8h.html" target="_top" xlink:title="Include to get consistently named preprocessor macros for different platforms and logging functionali...">
<polygon fill="white" stroke="black" points="1742,-56.5 1742,-75.5 1826,-75.5 1826,-56.5 1742,-56.5"/>
<text text-anchor="middle" x="1784" y="-63.5" font-family="Helvetica,sans-Serif" font-size="10.00">IPlugPlatform.h</text>
</a>
</g>
</g>
<!-- Node2&#45;&gt;Node5 -->
<g id="edge4" class="edge"><title>Node2&#45;&gt;Node5</title>
<path fill="none" stroke="midnightblue" d="M1883.66,-504.35C1906.44,-487.643 1952,-448.535 1952,-403 1952,-403 1952,-403 1952,-233 1952,-178.563 2004.69,-154.759 1971,-112 1954.5,-91.0635 1885.86,-78.7394 1836.52,-72.4281"/>
<polygon fill="midnightblue" stroke="midnightblue" points="1836.67,-68.9194 1826.31,-71.1717 1835.81,-75.867 1836.67,-68.9194"/>
</g>
<!-- Node6 -->
<g id="node6" class="node"><title>Node6</title>
<polygon fill="white" stroke="#bfbfbf" points="902,-56.5 902,-75.5 966,-75.5 966,-56.5 902,-56.5"/>
<text text-anchor="middle" x="934" y="-63.5" font-family="Helvetica,sans-Serif" font-size="10.00">wdlstring.h</text>
</g>
<!-- Node2&#45;&gt;Node6 -->
<g id="edge7" class="edge"><title>Node2&#45;&gt;Node6</title>
<path fill="none" stroke="midnightblue" d="M1863.8,-504.057C1835.08,-469.066 1724.44,-340.407 1603,-280 1425.29,-191.606 1353.41,-253.361 1166,-188 1147.23,-181.455 1144.37,-175.581 1126,-168 1078.84,-148.541 1061.97,-156.086 1017,-132 991.719,-118.461 966.292,-97.1451 950.368,-82.6442"/>
<polygon fill="midnightblue" stroke="midnightblue" points="952.667,-80.0023 942.958,-75.7597 947.902,-85.1305 952.667,-80.0023"/>
</g>
<!-- Node7 -->
<g id="node7" class="node"><title>Node7</title>
<polygon fill="white" stroke="#bfbfbf" points="1528.5,-112.5 1528.5,-131.5 1577.5,-131.5 1577.5,-112.5 1528.5,-112.5"/>
<text text-anchor="middle" x="1553" y="-119.5" font-family="Helvetica,sans-Serif" font-size="10.00">ptrlist.h</text>
</g>
<!-- Node2&#45;&gt;Node7 -->
<g id="edge8" class="edge"><title>Node2&#45;&gt;Node7</title>
<path fill="none" stroke="midnightblue" d="M1875.05,-504.379C1883.23,-486.114 1901,-441.996 1901,-403 1901,-403 1901,-403 1901,-289 1901,-151.187 1675.92,-127.674 1587.79,-123.75"/>
<polygon fill="midnightblue" stroke="midnightblue" points="1587.88,-120.251 1577.75,-123.362 1587.61,-127.245 1587.88,-120.251"/>
</g>
<!-- Node8 -->
<g id="node8" class="node"><title>Node8</title>
<g id="a_node8"><a xlink:href="_i_graphics_8h.html" target="_top" xlink:title="The lowest level base class of an IGraphics context. ">
<polygon fill="white" stroke="black" points="937.5,-448.5 937.5,-467.5 1004.5,-467.5 1004.5,-448.5 937.5,-448.5"/>
<text text-anchor="middle" x="971" y="-455.5" font-family="Helvetica,sans-Serif" font-size="10.00">IGraphics.h</text>
</a>
</g>
</g>
<!-- Node2&#45;&gt;Node8 -->
<g id="edge9" class="edge"><title>Node2&#45;&gt;Node8</title>
<path fill="none" stroke="midnightblue" d="M1841.31,-511.219C1709.08,-503.285 1173.3,-471.138 1015.15,-461.649"/>
<polygon fill="midnightblue" stroke="midnightblue" points="1015.05,-458.137 1004.86,-461.032 1014.63,-465.124 1015.05,-458.137"/>
</g>
<!-- Node5&#45;&gt;Node3 -->
<g id="edge5" class="edge"><title>Node5&#45;&gt;Node3</title>
<path fill="none" stroke="midnightblue" d="M1741.91,-60.3399C1726.53,-58.7691 1708.99,-57.1299 1693,-56 1289.49,-27.4958 798.126,-14.7638 667.298,-11.7344"/>
<polygon fill="midnightblue" stroke="midnightblue" points="667.207,-8.23146 657.13,-11.5018 667.047,-15.2296 667.207,-8.23146"/>
</g>
<!-- Node5&#45;&gt;Node4 -->
<g id="edge6" class="edge"><title>Node5&#45;&gt;Node4</title>
<path fill="none" stroke="midnightblue" d="M1784,-56.083C1784,-49.0059 1784,-38.8611 1784,-29.9865"/>
<polygon fill="midnightblue" stroke="midnightblue" points="1787.5,-29.751 1784,-19.7511 1780.5,-29.7511 1787.5,-29.751"/>
</g>
<!-- Node9 -->
<g id="node9" class="node"><title>Node9</title>
<g id="a_node9"><a xlink:href="_i_plug_constants_8h.html" target="_top" xlink:title="IPlug Constant definitions, Types, magic numbers. ">
<polygon fill="white" stroke="black" points="1592,-56.5 1592,-75.5 1684,-75.5 1684,-56.5 1592,-56.5"/>
<text text-anchor="middle" x="1638" y="-63.5" font-family="Helvetica,sans-Serif" font-size="10.00">IPlugConstants.h</text>
</a>
</g>
</g>
<!-- Node8&#45;&gt;Node9 -->
<g id="edge10" class="edge"><title>Node8&#45;&gt;Node9</title>
<path fill="none" stroke="midnightblue" d="M1004.67,-455.297C1144.09,-447.807 1669,-415.085 1669,-347 1669,-347 1669,-347 1669,-289 1669,-210.051 1670.7,-189.163 1654,-112 1652.05,-102.984 1648.77,-93.3061 1645.69,-85.2439"/>
<polygon fill="midnightblue" stroke="midnightblue" points="1648.86,-83.7395 1641.88,-75.768 1642.36,-86.3518 1648.86,-83.7395"/>
</g>
<!-- Node10 -->
<g id="node10" class="node"><title>Node10</title>
<g id="a_node10"><a xlink:href="_i_plug_logger_8h.html" target="_top" xlink:title="IPlug logging a.k.a tracing functionality. ">
<polygon fill="white" stroke="black" points="334.5,-168.5 334.5,-187.5 411.5,-187.5 411.5,-168.5 334.5,-168.5"/>
<text text-anchor="middle" x="373" y="-175.5" font-family="Helvetica,sans-Serif" font-size="10.00">IPlugLogger.h</text>
</a>
</g>
</g>
<!-- Node8&#45;&gt;Node10 -->
<g id="edge11" class="edge"><title>Node8&#45;&gt;Node10</title>
<path fill="none" stroke="midnightblue" d="M937.279,-456.471C774.297,-453.48 76,-435.5 76,-347 76,-347 76,-347 76,-289 76,-236.678 240.138,-201.357 324.372,-186.676"/>
<polygon fill="midnightblue" stroke="midnightblue" points="325.21,-190.083 334.477,-184.947 324.03,-183.184 325.21,-190.083"/>
</g>
<!-- Node21 -->
<g id="node21" class="node"><title>Node21</title>
<g id="a_node21"><a xlink:href="_i_graphics_constants_8h_source.html" target="_top" xlink:title="IGraphicsConstants.h">
<polygon fill="white" stroke="black" points="1748,-112.5 1748,-131.5 1860,-131.5 1860,-112.5 1748,-112.5"/>
<text text-anchor="middle" x="1804" y="-119.5" font-family="Helvetica,sans-Serif" font-size="10.00">IGraphicsConstants.h</text>
</a>
</g>
</g>
<!-- Node8&#45;&gt;Node21 -->
<g id="edge32" class="edge"><title>Node8&#45;&gt;Node21</title>
<path fill="none" stroke="midnightblue" d="M1004.63,-456.717C1140.67,-455.335 1645.91,-447.812 1707,-412 1730.01,-398.512 1796.65,-279.701 1806,-244 1815.24,-208.734 1811.03,-165.684 1807.37,-141.605"/>
<polygon fill="midnightblue" stroke="midnightblue" points="1810.81,-140.989 1805.72,-131.699 1803.91,-142.137 1810.81,-140.989"/>
</g>
<!-- Node22 -->
<g id="node22" class="node"><title>Node22</title>
<g id="a_node22"><a xlink:href="_i_graphics_structs_8h_source.html" target="_top" xlink:title="IGraphicsStructs.h">
<polygon fill="white" stroke="black" points="1175,-168.5 1175,-187.5 1273,-187.5 1273,-168.5 1175,-168.5"/>
<text text-anchor="middle" x="1224" y="-175.5" font-family="Helvetica,sans-Serif" font-size="10.00">IGraphicsStructs.h</text>
</a>
</g>
</g>
<!-- Node8&#45;&gt;Node22 -->
<g id="edge34" class="edge"><title>Node8&#45;&gt;Node22</title>
<path fill="none" stroke="midnightblue" d="M1004.71,-451.672C1056.06,-441.423 1148,-413.752 1148,-347 1148,-347 1148,-347 1148,-289 1148,-249.276 1181.96,-213.504 1204.48,-194.154"/>
<polygon fill="midnightblue" stroke="midnightblue" points="1206.98,-196.634 1212.46,-187.567 1202.52,-191.236 1206.98,-196.634"/>
</g>
<!-- Node28 -->
<g id="node28" class="node"><title>Node28</title>
<g id="a_node28"><a xlink:href="_i_graphics_utilities_8h_source.html" target="_top" xlink:title="IGraphicsUtilities.h">
<polygon fill="white" stroke="black" points="1697,-224.5 1697,-243.5 1797,-243.5 1797,-224.5 1697,-224.5"/>
<text text-anchor="middle" x="1747" y="-231.5" font-family="Helvetica,sans-Serif" font-size="10.00">IGraphicsUtilities.h</text>
</a>
</g>
</g>
<!-- Node8&#45;&gt;Node28 -->
<g id="edge47" class="edge"><title>Node8&#45;&gt;Node28</title>
<path fill="none" stroke="midnightblue" d="M1004.67,-457.008C1138.52,-456.755 1628.32,-453.011 1683,-412 1733.95,-373.788 1744.42,-291.162 1746.51,-253.902"/>
<polygon fill="midnightblue" stroke="midnightblue" points="1750.02,-253.647 1746.94,-243.512 1743.03,-253.36 1750.02,-253.647"/>
</g>
<!-- Node29 -->
<g id="node29" class="node"><title>Node29</title>
<g id="a_node29"><a xlink:href="_i_graphics_popup_menu_8h.html" target="_top" xlink:title="A class for setting the contents of a pop up menu. ">
<polygon fill="white" stroke="black" points="650.5,-168.5 650.5,-187.5 769.5,-187.5 769.5,-168.5 650.5,-168.5"/>
<text text-anchor="middle" x="710" y="-175.5" font-family="Helvetica,sans-Serif" font-size="10.00">IGraphicsPopupMenu.h</text>
</a>
</g>
</g>
<!-- Node8&#45;&gt;Node29 -->
<g id="edge50" class="edge"><title>Node8&#45;&gt;Node29</title>
<path fill="none" stroke="midnightblue" d="M970.597,-448.424C969.273,-427.654 963.724,-373.602 941,-336 894.938,-259.779 796.07,-212.115 743.875,-191.265"/>
<polygon fill="midnightblue" stroke="midnightblue" points="744.98,-187.939 734.391,-187.567 742.437,-194.461 744.98,-187.939"/>
</g>
<!-- Node30 -->
<g id="node30" class="node"><title>Node30</title>
<g id="a_node30"><a xlink:href="_i_graphics_editor_delegate_8h.html" target="_top" xlink:title="An editor delgate base class for a SOMETHING that uses IGraphics for it&#39;s UI. ">
<polygon fill="white" stroke="black" points="811.5,-392.5 811.5,-411.5 942.5,-411.5 942.5,-392.5 811.5,-392.5"/>
<text text-anchor="middle" x="877" y="-399.5" font-family="Helvetica,sans-Serif" font-size="10.00">IGraphicsEditorDelegate.h</text>
</a>
</g>
</g>
<!-- Node8&#45;&gt;Node30 -->
<g id="edge57" class="edge"><title>Node8&#45;&gt;Node30</title>
<path fill="none" stroke="midnightblue" d="M955.897,-448.324C941.097,-439.822 918.306,-426.729 901.018,-416.797"/>
<polygon fill="midnightblue" stroke="midnightblue" points="902.48,-413.601 892.065,-411.655 898.993,-419.671 902.48,-413.601"/>
</g>
<!-- Node37 -->
<g id="node37" class="node"><title>Node37</title>
<polygon fill="white" stroke="#bfbfbf" points="604.5,-392.5 604.5,-411.5 663.5,-411.5 663.5,-392.5 604.5,-392.5"/>
<text text-anchor="middle" x="634" y="-399.5" font-family="Helvetica,sans-Serif" font-size="10.00">heapbuf.h</text>
</g>
<!-- Node8&#45;&gt;Node37 -->
<g id="edge83" class="edge"><title>Node8&#45;&gt;Node37</title>
<path fill="none" stroke="midnightblue" d="M937.214,-452.847C883.442,-446.035 774.897,-431.462 673.884,-412.245"/>
<polygon fill="midnightblue" stroke="midnightblue" points="674.301,-408.761 663.82,-410.31 672.979,-415.635 674.301,-408.761"/>
</g>
<!-- Node38 -->
<g id="node38" class="node"><title>Node38</title>
<polygon fill="white" stroke="#bfbfbf" points="681.5,-392.5 681.5,-411.5 722.5,-411.5 722.5,-392.5 681.5,-392.5"/>
<text text-anchor="middle" x="702" y="-399.5" font-family="Helvetica,sans-Serif" font-size="10.00">stack</text>
</g>
<!-- Node8&#45;&gt;Node38 -->
<g id="edge84" class="edge"><title>Node8&#45;&gt;Node38</title>
<path fill="none" stroke="midnightblue" d="M937.117,-451.776C892.488,-444.643 811.41,-430.82 732.666,-411.936"/>
<polygon fill="midnightblue" stroke="midnightblue" points="733.122,-408.445 722.579,-409.485 731.47,-415.247 733.122,-408.445"/>
</g>
<!-- Node39 -->
<g id="node39" class="node"><title>Node39</title>
<polygon fill="white" stroke="#bfbfbf" points="741,-392.5 741,-411.5 793,-411.5 793,-392.5 741,-392.5"/>
<text text-anchor="middle" x="767" y="-399.5" font-family="Helvetica,sans-Serif" font-size="10.00">memory</text>
</g>
<!-- Node8&#45;&gt;Node39 -->
<g id="edge85" class="edge"><title>Node8&#45;&gt;Node39</title>
<path fill="none" stroke="midnightblue" d="M938.676,-448.444C901.651,-438.643 841.165,-422.632 802.758,-412.465"/>
<polygon fill="midnightblue" stroke="midnightblue" points="803.586,-409.064 793.024,-409.889 801.795,-415.831 803.586,-409.064"/>
</g>
<!-- Node10&#45;&gt;Node3 -->
<g id="edge16" class="edge"><title>Node10&#45;&gt;Node3</title>
<path fill="none" stroke="midnightblue" d="M334.254,-177.9C262.654,-178.187 120.693,-171.538 164,-112 215.868,-40.6929 502.312,-18.2899 600.761,-12.6405"/>
<polygon fill="midnightblue" stroke="midnightblue" points="600.961,-16.1348 610.753,-12.0881 600.575,-9.14548 600.961,-16.1348"/>
</g>
<!-- Node10&#45;&gt;Node6 -->
<g id="edge19" class="edge"><title>Node10&#45;&gt;Node6</title>
<path fill="none" stroke="midnightblue" d="M379.404,-168.368C390.765,-153.806 416.003,-124.709 445,-112 455.209,-107.526 775.244,-80.3167 891.949,-70.5152"/>
<polygon fill="midnightblue" stroke="midnightblue" points="892.273,-74.0003 901.946,-69.6764 891.688,-67.0248 892.273,-74.0003"/>
</g>
<!-- Node10&#45;&gt;Node9 -->
<g id="edge21" class="edge"><title>Node10&#45;&gt;Node9</title>
<path fill="none" stroke="midnightblue" d="M411.574,-173.256C489.889,-165.638 673.152,-147.722 827,-132 911.471,-123.368 932.42,-119.488 1017,-112 1239.37,-92.3123 1295.36,-92.3481 1518,-76 1538.76,-74.4757 1561.54,-72.7747 1581.62,-71.2653"/>
<polygon fill="midnightblue" stroke="midnightblue" points="1582.14,-74.7362 1591.85,-70.4955 1581.61,-67.7559 1582.14,-74.7362"/>
</g>
<!-- Node11 -->
<g id="node11" class="node"><title>Node11</title>
<polygon fill="white" stroke="#bfbfbf" points="346.5,-56.5 346.5,-75.5 389.5,-75.5 389.5,-56.5 346.5,-56.5"/>
<text text-anchor="middle" x="368" y="-63.5" font-family="Helvetica,sans-Serif" font-size="10.00">cstdio</text>
</g>
<!-- Node10&#45;&gt;Node11 -->
<g id="edge12" class="edge"><title>Node10&#45;&gt;Node11</title>
<path fill="none" stroke="midnightblue" d="M334.265,-173.768C282.611,-168.564 195.411,-156.344 176,-132 132.565,-77.5244 271.142,-68.4317 336.189,-67.1084"/>
<polygon fill="midnightblue" stroke="midnightblue" points="336.379,-70.6059 346.325,-66.9531 336.272,-63.6068 336.379,-70.6059"/>
</g>
<!-- Node12 -->
<g id="node12" class="node"><title>Node12</title>
<polygon fill="white" stroke="#bfbfbf" points="700,-56.5 700,-75.5 746,-75.5 746,-56.5 700,-56.5"/>
<text text-anchor="middle" x="723" y="-63.5" font-family="Helvetica,sans-Serif" font-size="10.00">cctype</text>
</g>
<!-- Node10&#45;&gt;Node12 -->
<g id="edge13" class="edge"><title>Node10&#45;&gt;Node12</title>
<path fill="none" stroke="midnightblue" d="M334.288,-174.499C274.528,-169.282 170.515,-154.001 209,-112 241.504,-76.5262 581.474,-68.8999 689.94,-67.3647"/>
<polygon fill="midnightblue" stroke="midnightblue" points="690.034,-70.8638 699.986,-67.2307 689.94,-63.8644 690.034,-70.8638"/>
</g>
<!-- Node13 -->
<g id="node13" class="node"><title>Node13</title>
<polygon fill="white" stroke="#bfbfbf" points="348.5,-112.5 348.5,-131.5 397.5,-131.5 397.5,-112.5 348.5,-112.5"/>
<text text-anchor="middle" x="373" y="-119.5" font-family="Helvetica,sans-Serif" font-size="10.00">cstdarg</text>
</g>
<!-- Node10&#45;&gt;Node13 -->
<g id="edge14" class="edge"><title>Node10&#45;&gt;Node13</title>
<path fill="none" stroke="midnightblue" d="M373,-168.083C373,-161.006 373,-150.861 373,-141.986"/>
<polygon fill="midnightblue" stroke="midnightblue" points="376.5,-141.751 373,-131.751 369.5,-141.751 376.5,-141.751"/>
</g>
<!-- Node14 -->
<g id="node14" class="node"><title>Node14</title>
<polygon fill="white" stroke="#bfbfbf" points="454,-112.5 454,-131.5 500,-131.5 500,-112.5 454,-112.5"/>
<text text-anchor="middle" x="477" y="-119.5" font-family="Helvetica,sans-Serif" font-size="10.00">cstdint</text>
</g>
<!-- Node10&#45;&gt;Node14 -->
<g id="edge15" class="edge"><title>Node10&#45;&gt;Node14</title>
<path fill="none" stroke="midnightblue" d="M389.709,-168.324C406.312,-159.703 432.002,-146.364 451.22,-136.386"/>
<polygon fill="midnightblue" stroke="midnightblue" points="453.07,-139.369 460.332,-131.655 449.844,-133.156 453.07,-139.369"/>
</g>
<!-- Node15 -->
<g id="node15" class="node"><title>Node15</title>
<polygon fill="white" stroke="#bfbfbf" points="218.5,-112.5 218.5,-131.5 259.5,-131.5 259.5,-112.5 218.5,-112.5"/>
<text text-anchor="middle" x="239" y="-119.5" font-family="Helvetica,sans-Serif" font-size="10.00">ctime</text>
</g>
<!-- Node10&#45;&gt;Node15 -->
<g id="edge17" class="edge"><title>Node10&#45;&gt;Node15</title>
<path fill="none" stroke="midnightblue" d="M351.767,-168.444C329.486,-159.465 294.27,-145.273 269.122,-135.139"/>
<polygon fill="midnightblue" stroke="midnightblue" points="270.276,-131.83 259.693,-131.339 267.66,-138.323 270.276,-131.83"/>
</g>
<!-- Node16 -->
<g id="node16" class="node"><title>Node16</title>
<polygon fill="white" stroke="#bfbfbf" points="518.5,-112.5 518.5,-131.5 567.5,-131.5 567.5,-112.5 518.5,-112.5"/>
<text text-anchor="middle" x="543" y="-119.5" font-family="Helvetica,sans-Serif" font-size="10.00">cassert</text>
</g>
<!-- Node10&#45;&gt;Node16 -->
<g id="edge18" class="edge"><title>Node10&#45;&gt;Node16</title>
<path fill="none" stroke="midnightblue" d="M399.937,-168.444C429.336,-159.105 476.487,-144.128 508.556,-133.941"/>
<polygon fill="midnightblue" stroke="midnightblue" points="509.926,-137.178 518.397,-130.815 507.807,-130.507 509.926,-137.178"/>
</g>
<!-- Node17 -->
<g id="node17" class="node"><title>Node17</title>
<polygon fill="white" stroke="#bfbfbf" points="278,-112.5 278,-131.5 330,-131.5 330,-112.5 278,-112.5"/>
<text text-anchor="middle" x="304" y="-119.5" font-family="Helvetica,sans-Serif" font-size="10.00">mutex.h</text>
</g>
<!-- Node10&#45;&gt;Node17 -->
<g id="edge20" class="edge"><title>Node10&#45;&gt;Node17</title>
<path fill="none" stroke="midnightblue" d="M361.914,-168.324C351.514,-160.185 335.739,-147.839 323.278,-138.087"/>
<polygon fill="midnightblue" stroke="midnightblue" points="325.32,-135.241 315.288,-131.834 321.006,-140.753 325.32,-135.241"/>
</g>
<!-- Node18 -->
<g id="node18" class="node"><title>Node18</title>
<g id="a_node18"><a xlink:href="_i_plug_utilities_8h.html" target="_top" xlink:title="Utility functions and macros. ">
<polygon fill="white" stroke="black" points="738,-112.5 738,-131.5 818,-131.5 818,-112.5 738,-112.5"/>
<text text-anchor="middle" x="778" y="-119.5" font-family="Helvetica,sans-Serif" font-size="10.00">IPlugUtilities.h</text>
</a>
</g>
</g>
<!-- Node10&#45;&gt;Node18 -->
<g id="edge22" class="edge"><title>Node10&#45;&gt;Node18</title>
<path fill="none" stroke="midnightblue" d="M411.833,-171.822C485.595,-161.987 645.894,-140.614 727.733,-129.702"/>
<polygon fill="midnightblue" stroke="midnightblue" points="728.34,-133.152 737.79,-128.361 727.415,-126.214 728.34,-133.152"/>
</g>
<!-- Node18&#45;&gt;Node3 -->
<g id="edge27" class="edge"><title>Node18&#45;&gt;Node3</title>
<path fill="none" stroke="midnightblue" d="M789.629,-112.329C805.55,-99.409 830.585,-74.6299 816,-56 797.86,-32.8281 714.542,-19.9394 667.173,-14.3679"/>
<polygon fill="midnightblue" stroke="midnightblue" points="667.416,-10.8731 657.086,-13.228 666.63,-17.8289 667.416,-10.8731"/>
</g>
<!-- Node18&#45;&gt;Node4 -->
<g id="edge26" class="edge"><title>Node18&#45;&gt;Node4</title>
<path fill="none" stroke="midnightblue" d="M788.954,-112.456C808.529,-97.7524 851.373,-68.0809 893,-56 1058.63,-7.9319 1610.36,-9.44028 1751.1,-10.6461"/>
<polygon fill="midnightblue" stroke="midnightblue" points="1751.22,-14.1472 1761.25,-10.7389 1751.28,-7.14754 1751.22,-14.1472"/>
</g>
<!-- Node18&#45;&gt;Node5 -->
<g id="edge31" class="edge"><title>Node18&#45;&gt;Node5</title>
<path fill="none" stroke="midnightblue" d="M818.143,-119.291C971.302,-112.729 1519.02,-88.8736 1693,-76 1705.62,-75.0664 1719.2,-73.8418 1731.92,-72.5979"/>
<polygon fill="midnightblue" stroke="midnightblue" points="1732.3,-76.0774 1741.9,-71.6014 1731.61,-69.112 1732.3,-76.0774"/>
</g>
<!-- Node18&#45;&gt;Node6 -->
<g id="edge29" class="edge"><title>Node18&#45;&gt;Node6</title>
<path fill="none" stroke="midnightblue" d="M802.719,-112.444C828.848,-103.399 870.259,-89.064 899.576,-78.9158"/>
<polygon fill="midnightblue" stroke="midnightblue" points="901.092,-82.0951 909.397,-75.5164 898.802,-75.4801 901.092,-82.0951"/>
</g>
<!-- Node18&#45;&gt;Node9 -->
<g id="edge30" class="edge"><title>Node18&#45;&gt;Node9</title>
<path fill="none" stroke="midnightblue" d="M818.035,-113.812C822.732,-113.121 827.465,-112.495 832,-112 1135.5,-78.8512 1213.31,-95.4182 1518,-76 1538.77,-74.6761 1561.55,-73.0195 1581.63,-71.4897"/>
<polygon fill="midnightblue" stroke="midnightblue" points="1582.16,-74.9596 1591.86,-70.7036 1581.62,-67.9802 1582.16,-74.9596"/>
</g>
<!-- Node18&#45;&gt;Node11 -->
<g id="edge25" class="edge"><title>Node18&#45;&gt;Node11</title>
<path fill="none" stroke="midnightblue" d="M737.941,-115.724C656.703,-105.024 474.017,-80.9632 400.025,-71.218"/>
<polygon fill="midnightblue" stroke="midnightblue" points="400.294,-67.7232 389.922,-69.8873 399.38,-74.6632 400.294,-67.7232"/>
</g>
<!-- Node18&#45;&gt;Node12 -->
<g id="edge28" class="edge"><title>Node18&#45;&gt;Node12</title>
<path fill="none" stroke="midnightblue" d="M768.918,-112.083C760.829,-104.141 748.805,-92.3354 739.09,-82.7973"/>
<polygon fill="midnightblue" stroke="midnightblue" points="741.501,-80.2595 731.913,-75.7511 736.597,-85.2545 741.501,-80.2595"/>
</g>
<!-- Node19 -->
<g id="node19" class="node"><title>Node19</title>
<polygon fill="white" stroke="#bfbfbf" points="1454,-56.5 1454,-75.5 1510,-75.5 1510,-56.5 1454,-56.5"/>
<text text-anchor="middle" x="1482" y="-63.5" font-family="Helvetica,sans-Serif" font-size="10.00">algorithm</text>
</g>
<!-- Node18&#45;&gt;Node19 -->
<g id="edge23" class="edge"><title>Node18&#45;&gt;Node19</title>
<path fill="none" stroke="midnightblue" d="M818.043,-113.886C822.739,-113.183 827.469,-112.533 832,-112 1063.15,-84.8001 1342.62,-72.2539 1443.42,-68.3767"/>
<polygon fill="midnightblue" stroke="midnightblue" points="1443.86,-71.8628 1453.72,-67.9871 1443.59,-64.8678 1443.86,-71.8628"/>
</g>
<!-- Node20 -->
<g id="node20" class="node"><title>Node20</title>
<polygon fill="white" stroke="#bfbfbf" points="764,-56.5 764,-75.5 808,-75.5 808,-56.5 764,-56.5"/>
<text text-anchor="middle" x="786" y="-63.5" font-family="Helvetica,sans-Serif" font-size="10.00">cmath</text>
</g>
<!-- Node18&#45;&gt;Node20 -->
<g id="edge24" class="edge"><title>Node18&#45;&gt;Node20</title>
<path fill="none" stroke="midnightblue" d="M779.321,-112.083C780.381,-104.927 781.906,-94.6353 783.231,-85.6911"/>
<polygon fill="midnightblue" stroke="midnightblue" points="786.7,-86.1561 784.704,-75.7511 779.776,-85.1302 786.7,-86.1561"/>
</g>
<!-- Node21&#45;&gt;Node5 -->
<g id="edge33" class="edge"><title>Node21&#45;&gt;Node5</title>
<path fill="none" stroke="midnightblue" d="M1800.7,-112.083C1798.02,-104.849 1794.15,-94.4087 1790.81,-85.3968"/>
<polygon fill="midnightblue" stroke="midnightblue" points="1794,-83.9129 1787.24,-75.7511 1787.43,-86.3442 1794,-83.9129"/>
</g>
<!-- Node22&#45;&gt;Node5 -->
<g id="edge45" class="edge"><title>Node22&#45;&gt;Node5</title>
<path fill="none" stroke="midnightblue" d="M1273.11,-168.925C1332.96,-158.9 1430.5,-141.914 1466,-132 1490.25,-125.228 1494.7,-118.582 1519,-112 1591.57,-92.3429 1677.76,-79.6043 1731.68,-72.8619"/>
<polygon fill="midnightblue" stroke="midnightblue" points="1732.19,-76.3254 1741.69,-71.6327 1731.34,-69.3775 1732.19,-76.3254"/>
</g>
<!-- Node22&#45;&gt;Node6 -->
<g id="edge42" class="edge"><title>Node22&#45;&gt;Node6</title>
<path fill="none" stroke="midnightblue" d="M1214.09,-168.437C1197.44,-154.503 1162.31,-126.976 1128,-112 1078.15,-90.2428 1016.31,-78.233 976.043,-72.2066"/>
<polygon fill="midnightblue" stroke="midnightblue" points="976.435,-68.7271 966.039,-70.7664 975.438,-75.6557 976.435,-68.7271"/>
</g>
<!-- Node22&#45;&gt;Node7 -->
<g id="edge43" class="edge"><title>Node22&#45;&gt;Node7</title>
<path fill="none" stroke="midnightblue" d="M1273.01,-169.837C1343.2,-159.503 1468.85,-140.701 1514,-132 1515.45,-131.721 1516.93,-131.426 1518.42,-131.119"/>
<polygon fill="midnightblue" stroke="midnightblue" points="1519.26,-134.518 1528.3,-128.986 1517.79,-127.675 1519.26,-134.518"/>
</g>
<!-- Node22&#45;&gt;Node16 -->
<g id="edge36" class="edge"><title>Node22&#45;&gt;Node16</title>
<path fill="none" stroke="midnightblue" d="M1174.75,-173.095C1043.93,-162.721 690.071,-134.662 577.727,-125.754"/>
<polygon fill="midnightblue" stroke="midnightblue" points="577.87,-122.254 567.624,-124.953 577.316,-129.232 577.87,-122.254"/>
</g>
<!-- Node22&#45;&gt;Node19 -->
<g id="edge38" class="edge"><title>Node22&#45;&gt;Node19</title>
<path fill="none" stroke="midnightblue" d="M1273.05,-168.989C1333.02,-158.871 1428.27,-141.621 1442,-132 1458.24,-120.617 1469.16,-100.326 1475.44,-85.4338"/>
<polygon fill="midnightblue" stroke="midnightblue" points="1478.84,-86.338 1479.19,-75.749 1472.31,-83.8076 1478.84,-86.338"/>
</g>
<!-- Node22&#45;&gt;Node20 -->
<g id="edge35" class="edge"><title>Node22&#45;&gt;Node20</title>
<path fill="none" stroke="midnightblue" d="M1204.25,-168.391C1184.65,-159.7 1153.89,-145.645 1128,-132 1112.49,-123.826 1110.54,-117.82 1094,-112 1043.56,-94.2472 887.025,-77.0482 818.585,-70.1571"/>
<polygon fill="midnightblue" stroke="midnightblue" points="818.685,-66.6498 808.388,-69.1412 817.991,-73.6154 818.685,-66.6498"/>
</g>
<!-- Node22&#45;&gt;Node21 -->
<g id="edge46" class="edge"><title>Node22&#45;&gt;Node21</title>
<path fill="none" stroke="midnightblue" d="M1273.45,-172.396C1377.69,-162.691 1620.03,-140.128 1737.63,-129.18"/>
<polygon fill="midnightblue" stroke="midnightblue" points="1738.29,-132.633 1747.93,-128.221 1737.64,-125.663 1738.29,-132.633"/>
</g>
<!-- Node23 -->
<g id="node23" class="node"><title>Node23</title>
<polygon fill="white" stroke="#bfbfbf" points="1026.5,-112.5 1026.5,-131.5 1085.5,-131.5 1085.5,-112.5 1026.5,-112.5"/>
<text text-anchor="middle" x="1056" y="-119.5" font-family="Helvetica,sans-Serif" font-size="10.00">functional</text>
</g>
<!-- Node22&#45;&gt;Node23 -->
<g id="edge37" class="edge"><title>Node22&#45;&gt;Node23</title>
<path fill="none" stroke="midnightblue" d="M1197.38,-168.444C1168.99,-159.32 1123.86,-144.813 1092.25,-134.651"/>
<polygon fill="midnightblue" stroke="midnightblue" points="1093.09,-131.244 1082.5,-131.516 1090.94,-137.909 1093.09,-131.244"/>
</g>
<!-- Node24 -->
<g id="node24" class="node"><title>Node24</title>
<polygon fill="white" stroke="#bfbfbf" points="1384.5,-112.5 1384.5,-131.5 1433.5,-131.5 1433.5,-112.5 1384.5,-112.5"/>
<text text-anchor="middle" x="1409" y="-119.5" font-family="Helvetica,sans-Serif" font-size="10.00">random</text>
</g>
<!-- Node22&#45;&gt;Node24 -->
<g id="edge39" class="edge"><title>Node22&#45;&gt;Node24</title>
<path fill="none" stroke="midnightblue" d="M1253.31,-168.444C1286.23,-158.835 1339.61,-143.256 1374.51,-133.069"/>
<polygon fill="midnightblue" stroke="midnightblue" points="1375.65,-136.382 1384.26,-130.22 1373.68,-129.663 1375.65,-136.382"/>
</g>
<!-- Node25 -->
<g id="node25" class="node"><title>Node25</title>
<polygon fill="white" stroke="#bfbfbf" points="1180,-112.5 1180,-131.5 1226,-131.5 1226,-112.5 1180,-112.5"/>
<text text-anchor="middle" x="1203" y="-119.5" font-family="Helvetica,sans-Serif" font-size="10.00">chrono</text>
</g>
<!-- Node22&#45;&gt;Node25 -->
<g id="edge40" class="edge"><title>Node22&#45;&gt;Node25</title>
<path fill="none" stroke="midnightblue" d="M1220.53,-168.083C1217.69,-160.77 1213.57,-150.181 1210.04,-141.103"/>
<polygon fill="midnightblue" stroke="midnightblue" points="1213.29,-139.803 1206.4,-131.751 1206.77,-142.34 1213.29,-139.803"/>
</g>
<!-- Node26 -->
<g id="node26" class="node"><title>Node26</title>
<polygon fill="white" stroke="#bfbfbf" points="1244.5,-112.5 1244.5,-131.5 1285.5,-131.5 1285.5,-112.5 1244.5,-112.5"/>
<text text-anchor="middle" x="1265" y="-119.5" font-family="Helvetica,sans-Serif" font-size="10.00">string</text>
</g>
<!-- Node22&#45;&gt;Node26 -->
<g id="edge41" class="edge"><title>Node22&#45;&gt;Node26</title>
<path fill="none" stroke="midnightblue" d="M1230.77,-168.083C1236.56,-160.455 1245.06,-149.264 1252.14,-139.941"/>
<polygon fill="midnightblue" stroke="midnightblue" points="1255.1,-141.832 1258.36,-131.751 1249.52,-137.599 1255.1,-141.832"/>
</g>
<!-- Node27 -->
<g id="node27" class="node"><title>Node27</title>
<polygon fill="white" stroke="#bfbfbf" points="1304,-112.5 1304,-131.5 1366,-131.5 1366,-112.5 1304,-112.5"/>
<text text-anchor="middle" x="1335" y="-119.5" font-family="Helvetica,sans-Serif" font-size="10.00">nanosvg.h</text>
</g>
<!-- Node22&#45;&gt;Node27 -->
<g id="edge44" class="edge"><title>Node22&#45;&gt;Node27</title>
<path fill="none" stroke="midnightblue" d="M1241.83,-168.324C1259.72,-159.625 1287.48,-146.12 1308.05,-136.113"/>
<polygon fill="midnightblue" stroke="midnightblue" points="1309.75,-139.177 1317.21,-131.655 1306.69,-132.882 1309.75,-139.177"/>
</g>
<!-- Node28&#45;&gt;Node21 -->
<g id="edge48" class="edge"><title>Node28&#45;&gt;Node21</title>
<path fill="none" stroke="midnightblue" d="M1751.47,-224.368C1760.8,-206.376 1782.47,-164.55 1794.87,-140.627"/>
<polygon fill="midnightblue" stroke="midnightblue" points="1798.05,-142.081 1799.55,-131.591 1791.84,-138.86 1798.05,-142.081"/>
</g>
<!-- Node28&#45;&gt;Node22 -->
<g id="edge49" class="edge"><title>Node28&#45;&gt;Node22</title>
<path fill="none" stroke="midnightblue" d="M1696.85,-227.822C1599.86,-217.808 1387,-195.83 1283.23,-185.115"/>
<polygon fill="midnightblue" stroke="midnightblue" points="1283.54,-181.629 1273.23,-184.083 1282.82,-188.592 1283.54,-181.629"/>
</g>
<!-- Node29&#45;&gt;Node3 -->
<g id="edge52" class="edge"><title>Node29&#45;&gt;Node3</title>
<path fill="none" stroke="midnightblue" d="M695.267,-168.207C683.307,-160.27 667.001,-147.482 658,-132 639.136,-99.5541 634.852,-54.8277 634.027,-29.8388"/>
<polygon fill="midnightblue" stroke="midnightblue" points="637.522,-29.517 633.85,-19.5786 630.523,-29.6373 637.522,-29.517"/>
</g>
<!-- Node29&#45;&gt;Node6 -->
<g id="edge55" class="edge"><title>Node29&#45;&gt;Node6</title>
<path fill="none" stroke="midnightblue" d="M736.126,-168.458C760.217,-160.231 796.722,-146.871 827,-132 858.1,-116.726 891.958,-95.27 913.079,-81.2539"/>
<polygon fill="midnightblue" stroke="midnightblue" points="915.211,-84.0389 921.569,-75.5644 911.314,-78.2239 915.211,-84.0389"/>
</g>
<!-- Node29&#45;&gt;Node7 -->
<g id="edge56" class="edge"><title>Node29&#45;&gt;Node7</title>
<path fill="none" stroke="midnightblue" d="M769.803,-173.72C894.718,-166.781 1192.44,-149.786 1442,-132 1467.52,-130.181 1496.32,-127.837 1518.19,-125.998"/>
<polygon fill="midnightblue" stroke="midnightblue" points="1518.65,-129.471 1528.32,-125.14 1518.06,-122.496 1518.65,-129.471"/>
</g>
<!-- Node29&#45;&gt;Node11 -->
<g id="edge53" class="edge"><title>Node29&#45;&gt;Node11</title>
<path fill="none" stroke="midnightblue" d="M692.831,-168.388C659.427,-151.674 587.915,-116.113 576,-112 515.278,-91.0417 441.094,-77.7948 399.742,-71.452"/>
<polygon fill="midnightblue" stroke="midnightblue" points="400.128,-67.9709 389.72,-69.952 399.092,-74.8938 400.128,-67.9709"/>
</g>
<!-- Node29&#45;&gt;Node16 -->
<g id="edge54" class="edge"><title>Node29&#45;&gt;Node16</title>
<path fill="none" stroke="midnightblue" d="M683.538,-168.444C654.824,-159.159 608.871,-144.3 577.38,-134.117"/>
<polygon fill="midnightblue" stroke="midnightblue" points="578.296,-130.735 567.705,-130.988 576.143,-137.395 578.296,-130.735"/>
</g>
<!-- Node29&#45;&gt;Node20 -->
<g id="edge51" class="edge"><title>Node29&#45;&gt;Node20</title>
<path fill="none" stroke="midnightblue" d="M710.845,-168.293C712.479,-155.108 717.034,-129.739 729,-112 737.401,-99.5462 750.329,-88.9372 761.751,-81.1534"/>
<polygon fill="midnightblue" stroke="midnightblue" points="763.961,-83.8931 770.472,-75.5354 760.17,-78.0083 763.961,-83.8931"/>
</g>
<!-- Node31 -->
<g id="node31" class="node"><title>Node31</title>
<g id="a_node31"><a xlink:href="_i_plug_editor_delegate_8h.html" target="_top" xlink:title="This pure virtual interface delegates communication in both directions between a UI editor and someth...">
<polygon fill="white" stroke="black" points="821,-336.5 821,-355.5 933,-355.5 933,-336.5 821,-336.5"/>
<text text-anchor="middle" x="877" y="-343.5" font-family="Helvetica,sans-Serif" font-size="10.00">IPlugEditorDelegate.h</text>
</a>
</g>
</g>
<!-- Node30&#45;&gt;Node31 -->
<g id="edge58" class="edge"><title>Node30&#45;&gt;Node31</title>
<path fill="none" stroke="midnightblue" d="M877,-392.083C877,-385.006 877,-374.861 877,-365.986"/>
<polygon fill="midnightblue" stroke="midnightblue" points="880.5,-365.751 877,-355.751 873.5,-365.751 880.5,-365.751"/>
</g>
<!-- Node31&#45;&gt;Node3 -->
<g id="edge60" class="edge"><title>Node31&#45;&gt;Node3</title>
<path fill="none" stroke="midnightblue" d="M820.975,-345.861C633.224,-347.263 38,-339.084 38,-179 38,-179 38,-179 38,-121 38,-35.5256 135.707,-75.1859 219,-56 358.385,-23.894 529.52,-14.5458 600.599,-11.9478"/>
<polygon fill="midnightblue" stroke="midnightblue" points="600.863,-15.4409 610.737,-11.5989 600.622,-8.44505 600.863,-15.4409"/>
</g>
<!-- Node31&#45;&gt;Node7 -->
<g id="edge62" class="edge"><title>Node31&#45;&gt;Node7</title>
<path fill="none" stroke="midnightblue" d="M903.086,-336.433C1008.12,-301.939 1400.12,-173.205 1518.76,-134.243"/>
<polygon fill="midnightblue" stroke="midnightblue" points="1520.02,-137.515 1528.43,-131.07 1517.83,-130.865 1520.02,-137.515"/>
</g>
<!-- Node31&#45;&gt;Node16 -->
<g id="edge59" class="edge"><title>Node31&#45;&gt;Node16</title>
<path fill="none" stroke="midnightblue" d="M820.753,-343.914C749.16,-339.285 626.995,-319.903 562,-244 537.302,-215.157 537.815,-167.676 540.385,-141.594"/>
<polygon fill="midnightblue" stroke="midnightblue" points="543.874,-141.896 541.586,-131.551 536.923,-141.065 543.874,-141.896"/>
</g>
<!-- Node32 -->
<g id="node32" class="node"><title>Node32</title>
<polygon fill="white" stroke="#bfbfbf" points="799.5,-280.5 799.5,-299.5 848.5,-299.5 848.5,-280.5 799.5,-280.5"/>
<text text-anchor="middle" x="824" y="-287.5" font-family="Helvetica,sans-Serif" font-size="10.00">stdint.h</text>
</g>
<!-- Node31&#45;&gt;Node32 -->
<g id="edge61" class="edge"><title>Node31&#45;&gt;Node32</title>
<path fill="none" stroke="midnightblue" d="M868.248,-336.083C860.53,-328.22 849.095,-316.569 839.783,-307.081"/>
<polygon fill="midnightblue" stroke="midnightblue" points="842.092,-304.436 832.589,-299.751 837.096,-309.34 842.092,-304.436"/>
</g>
<!-- Node33 -->
<g id="node33" class="node"><title>Node33</title>
<g id="a_node33"><a xlink:href="_i_plug_parameter_8h.html" target="_top" xlink:title="IPlug&#39;s parameter class. ">
<polygon fill="white" stroke="black" points="989,-168.5 989,-187.5 1081,-187.5 1081,-168.5 989,-168.5"/>
<text text-anchor="middle" x="1035" y="-175.5" font-family="Helvetica,sans-Serif" font-size="10.00">IPlugParameter.h</text>
</a>
</g>
</g>
<!-- Node31&#45;&gt;Node33 -->
<g id="edge63" class="edge"><title>Node31&#45;&gt;Node33</title>
<path fill="none" stroke="midnightblue" d="M885.495,-336.075C911.011,-309.267 987.229,-229.19 1019.88,-194.885"/>
<polygon fill="midnightblue" stroke="midnightblue" points="1022.49,-197.225 1026.84,-187.568 1017.42,-192.399 1022.49,-197.225"/>
</g>
<!-- Node35 -->
<g id="node35" class="node"><title>Node35</title>
<g id="a_node35"><a xlink:href="_i_plug_midi_8h.html" target="_top" xlink:title="MIDI and sysex structs/utilites. ">
<polygon fill="white" stroke="black" points="571.5,-224.5 571.5,-243.5 636.5,-243.5 636.5,-224.5 571.5,-224.5"/>
<text text-anchor="middle" x="604" y="-231.5" font-family="Helvetica,sans-Serif" font-size="10.00">IPlugMidi.h</text>
</a>
</g>
</g>
<!-- Node31&#45;&gt;Node35 -->
<g id="edge69" class="edge"><title>Node31&#45;&gt;Node35</title>
<path fill="none" stroke="midnightblue" d="M877.021,-336.341C876.554,-322.27 873.45,-294.549 857,-280 826.453,-252.982 710.504,-241.603 646.712,-237.306"/>
<polygon fill="midnightblue" stroke="midnightblue" points="646.771,-233.802 636.566,-236.652 646.321,-240.788 646.771,-233.802"/>
</g>
<!-- Node31&#45;&gt;Node36 -->
<g id="edge75" class="edge"><title>Node31&#45;&gt;Node36</title>
<path fill="none" stroke="midnightblue" d="M933.06,-340.535C1062.69,-330.21 1381.51,-304.818 1505,-294.982"/>
<polygon fill="midnightblue" stroke="midnightblue" points="1505.6,-298.446 1515.29,-294.163 1505.05,-291.468 1505.6,-298.446"/>
</g>
<!-- Node33&#45;&gt;Node3 -->
<g id="edge65" class="edge"><title>Node33&#45;&gt;Node3</title>
<path fill="none" stroke="midnightblue" d="M988.864,-174.386C914.541,-169.491 772.255,-157.089 729,-132 686.594,-107.404 656.16,-55.8743 642.331,-28.6782"/>
<polygon fill="midnightblue" stroke="midnightblue" points="645.4,-26.9888 637.853,-19.5533 639.116,-30.0725 645.4,-26.9888"/>
</g>
<!-- Node33&#45;&gt;Node6 -->
<g id="edge67" class="edge"><title>Node33&#45;&gt;Node6</title>
<path fill="none" stroke="midnightblue" d="M1002.23,-168.432C982.931,-161.688 959.697,-150.296 946,-132 936.114,-118.794 933.547,-99.9243 933.196,-85.915"/>
<polygon fill="midnightblue" stroke="midnightblue" points="936.7,-85.5595 933.311,-75.5215 929.701,-85.4822 936.7,-85.5595"/>
</g>
<!-- Node33&#45;&gt;Node18 -->
<g id="edge68" class="edge"><title>Node33&#45;&gt;Node18</title>
<path fill="none" stroke="midnightblue" d="M994.278,-168.444C949.218,-158.976 876.576,-143.713 828.074,-133.521"/>
<polygon fill="midnightblue" stroke="midnightblue" points="828.615,-130.059 818.109,-131.428 827.175,-136.909 828.615,-130.059"/>
</g>
<!-- Node33&#45;&gt;Node23 -->
<g id="edge66" class="edge"><title>Node33&#45;&gt;Node23</title>
<path fill="none" stroke="midnightblue" d="M1038.47,-168.083C1041.31,-160.77 1045.43,-150.181 1048.96,-141.103"/>
<polygon fill="midnightblue" stroke="midnightblue" points="1052.23,-142.34 1052.6,-131.751 1045.71,-139.803 1052.23,-142.34"/>
</g>
<!-- Node34 -->
<g id="node34" class="node"><title>Node34</title>
<polygon fill="white" stroke="#bfbfbf" points="1916,-112.5 1916,-131.5 1962,-131.5 1962,-112.5 1916,-112.5"/>
<text text-anchor="middle" x="1939" y="-119.5" font-family="Helvetica,sans-Serif" font-size="10.00">atomic</text>
</g>
<!-- Node33&#45;&gt;Node34 -->
<g id="edge64" class="edge"><title>Node33&#45;&gt;Node34</title>
<path fill="none" stroke="midnightblue" d="M1081.06,-173.639C1106.17,-171.857 1137.78,-169.693 1166,-168 1477.85,-149.293 1556.82,-159.663 1868,-132 1880.35,-130.902 1893.86,-129.293 1905.74,-127.738"/>
<polygon fill="midnightblue" stroke="midnightblue" points="1906.26,-131.2 1915.7,-126.399 1905.33,-124.263 1906.26,-131.2"/>
</g>
<!-- Node35&#45;&gt;Node10 -->
<g id="edge74" class="edge"><title>Node35&#45;&gt;Node10</title>
<path fill="none" stroke="midnightblue" d="M571.393,-225.378C531.735,-216.107 464.519,-200.394 419.456,-189.86"/>
<polygon fill="midnightblue" stroke="midnightblue" points="420.168,-186.432 409.634,-187.564 418.574,-193.248 420.168,-186.432"/>
</g>
<!-- Node35&#45;&gt;Node11 -->
<g id="edge72" class="edge"><title>Node35&#45;&gt;Node11</title>
<path fill="none" stroke="midnightblue" d="M571.439,-230.91C477.85,-224.128 211.741,-199.152 164,-132 121.067,-71.6108 268.68,-65.8566 336.13,-66.2679"/>
<polygon fill="midnightblue" stroke="midnightblue" points="336.188,-69.7687 346.226,-66.3795 336.265,-62.7691 336.188,-69.7687"/>
</g>
<!-- Node35&#45;&gt;Node14 -->
<g id="edge71" class="edge"><title>Node35&#45;&gt;Node14</title>
<path fill="none" stroke="midnightblue" d="M594.035,-224.368C572.612,-205.814 521.927,-161.913 494.823,-138.438"/>
<polygon fill="midnightblue" stroke="midnightblue" points="496.77,-135.493 486.919,-131.591 492.187,-140.784 496.77,-135.493"/>
</g>
<!-- Node35&#45;&gt;Node16 -->
<g id="edge70" class="edge"><title>Node35&#45;&gt;Node16</title>
<path fill="none" stroke="midnightblue" d="M599.213,-224.368C589.236,-206.376 566.042,-164.55 552.775,-140.627"/>
<polygon fill="midnightblue" stroke="midnightblue" points="555.675,-138.639 547.764,-131.591 549.553,-142.034 555.675,-138.639"/>
</g>
<!-- Node35&#45;&gt;Node19 -->
<g id="edge73" class="edge"><title>Node35&#45;&gt;Node19</title>
<path fill="none" stroke="midnightblue" d="M636.553,-232.282C799.778,-228.343 1523.74,-206.726 1586,-132 1608.58,-104.895 1558.36,-85.6469 1520.12,-75.4401"/>
<polygon fill="midnightblue" stroke="midnightblue" points="1520.77,-71.9941 1510.22,-72.9213 1519.05,-78.7782 1520.77,-71.9941"/>
</g>
<!-- Node36&#45;&gt;Node5 -->
<g id="edge80" class="edge"><title>Node36&#45;&gt;Node5</title>
<path fill="none" stroke="midnightblue" d="M1594.53,-286.037C1656.45,-280.723 1772.7,-267.837 1806,-244 1858.7,-206.271 1901.3,-167.61 1868,-112 1858.85,-96.7189 1842.54,-86.332 1826.71,-79.4255"/>
<polygon fill="midnightblue" stroke="midnightblue" points="1827.57,-76.0012 1816.99,-75.5623 1824.99,-82.5068 1827.57,-76.0012"/>
</g>
<!-- Node36&#45;&gt;Node6 -->
<g id="edge77" class="edge"><title>Node36&#45;&gt;Node6</title>
<path fill="none" stroke="midnightblue" d="M1515.27,-282.244C1439.55,-268.77 1269.95,-235.695 1133,-188 1113.1,-181.068 1109.56,-175.845 1090,-168 1043.82,-149.482 1024.46,-160.959 984,-132 966.692,-119.611 952.548,-99.5247 943.774,-84.9562"/>
<polygon fill="midnightblue" stroke="midnightblue" points="946.598,-82.8457 938.586,-75.9143 940.527,-86.3297 946.598,-82.8457"/>
</g>
<!-- Node36&#45;&gt;Node7 -->
<g id="edge78" class="edge"><title>Node36&#45;&gt;Node7</title>
<path fill="none" stroke="midnightblue" d="M1554.89,-280.075C1554.58,-253.945 1553.65,-177.211 1553.22,-141.577"/>
<polygon fill="midnightblue" stroke="midnightblue" points="1556.72,-141.525 1553.1,-131.568 1549.72,-141.61 1556.72,-141.525"/>
</g>
<!-- Node36&#45;&gt;Node9 -->
<g id="edge79" class="edge"><title>Node36&#45;&gt;Node9</title>
<path fill="none" stroke="midnightblue" d="M1567.98,-280.431C1579.42,-272.282 1595.8,-259.055 1606,-244 1639.52,-194.525 1640.81,-120.111 1639.32,-85.6891"/>
<polygon fill="midnightblue" stroke="midnightblue" points="1642.81,-85.4294 1638.75,-75.6428 1635.82,-85.8243 1642.81,-85.4294"/>
</g>
<!-- Node36&#45;&gt;Node18 -->
<g id="edge82" class="edge"><title>Node36&#45;&gt;Node18</title>
<path fill="none" stroke="midnightblue" d="M1515.23,-286.523C1445.27,-281.678 1295.84,-269.152 1172,-244 1084.89,-226.308 1064.98,-214.061 980,-188 921.392,-170.027 853.63,-147.957 813.376,-134.709"/>
<polygon fill="midnightblue" stroke="midnightblue" points="814.35,-131.345 803.757,-131.539 812.159,-137.993 814.35,-131.345"/>
</g>
<!-- Node36&#45;&gt;Node19 -->
<g id="edge76" class="edge"><title>Node36&#45;&gt;Node19</title>
<path fill="none" stroke="midnightblue" d="M1561.88,-280.41C1582.77,-253.241 1641.7,-167.688 1603,-112 1584.43,-85.2823 1548.01,-74.3957 1519.96,-69.977"/>
<polygon fill="midnightblue" stroke="midnightblue" points="1520.43,-66.5092 1510.05,-68.6244 1519.48,-73.4449 1520.43,-66.5092"/>
</g>
<!-- Node36&#45;&gt;Node35 -->
<g id="edge81" class="edge"><title>Node36&#45;&gt;Node35</title>
<path fill="none" stroke="midnightblue" d="M1515.35,-286.748C1361.74,-278.026 806.537,-246.501 647.092,-237.447"/>
<polygon fill="midnightblue" stroke="midnightblue" points="646.92,-233.932 636.738,-236.859 646.523,-240.92 646.92,-233.932"/>
</g>
<!-- Node40&#45;&gt;Node34 -->
<g id="edge88" class="edge"><title>Node40&#45;&gt;Node34</title>
<path fill="none" stroke="midnightblue" d="M2024.49,-504.166C2015.09,-479.647 1990,-408.495 1990,-347 1990,-347 1990,-347 1990,-233 1990,-197.244 1967.55,-160.508 1952.44,-139.836"/>
<polygon fill="midnightblue" stroke="midnightblue" points="1955.14,-137.614 1946.31,-131.769 1949.57,-141.849 1955.14,-137.614"/>
</g>
<!-- Node41 -->
<g id="node41" class="node"><title>Node41</title>
<polygon fill="white" stroke="#bfbfbf" points="2056.5,-448.5 2056.5,-467.5 2105.5,-467.5 2105.5,-448.5 2056.5,-448.5"/>
<text text-anchor="middle" x="2081" y="-455.5" font-family="Helvetica,sans-Serif" font-size="10.00">cstddef</text>
</g>
<!-- Node40&#45;&gt;Node41 -->
<g id="edge89" class="edge"><title>Node40&#45;&gt;Node41</title>
<path fill="none" stroke="midnightblue" d="M2036.75,-504.083C2044.47,-496.22 2055.9,-484.569 2065.22,-475.081"/>
<polygon fill="midnightblue" stroke="midnightblue" points="2067.9,-477.34 2072.41,-467.751 2062.91,-472.436 2067.9,-477.34"/>
</g>
</g>
</svg>
