<?xml version="1.0" encoding="UTF-8" standalone="no"?>
<!DOCTYPE svg PUBLIC "-//W3C//DTD SVG 1.1//EN"
 "http://www.w3.org/Graphics/SVG/1.1/DTD/svg11.dtd">
<!-- Generated by graphviz version 2.36.0 (20140111.2315)
 -->
<!-- Title: IVKeyboardControl.h Pages: 1 -->
<svg width="2035pt" height="588pt"
 viewBox="0.00 0.00 2035.00 588.00" xmlns="http://www.w3.org/2000/svg" xmlns:xlink="http://www.w3.org/1999/xlink">
<g id="graph0" class="graph" transform="scale(1 1) rotate(0) translate(4 584)">
<title>IVKeyboardControl.h</title>
<polygon fill="white" stroke="none" points="-4,4 -4,-584 2031,-584 2031,4 -4,4"/>
<!-- Node1 -->
<g id="node1" class="node"><title>Node1</title>
<polygon fill="#bfbfbf" stroke="black" points="978.5,-560.5 978.5,-579.5 1085.5,-579.5 1085.5,-560.5 978.5,-560.5"/>
<text text-anchor="middle" x="1032" y="-567.5" font-family="Helvetica,sans-Serif" font-size="10.00">IVKeyboardControl.h</text>
</g>
<!-- Node2 -->
<g id="node2" class="node"><title>Node2</title>
<g id="a_node2"><a xlink:href="_i_control_8h.html" target="_top" xlink:title="This file contains the base IControl implementation, along with some base classes for specific types ...">
<polygon fill="white" stroke="black" points="84.5,-504.5 84.5,-523.5 143.5,-523.5 143.5,-504.5 84.5,-504.5"/>
<text text-anchor="middle" x="114" y="-511.5" font-family="Helvetica,sans-Serif" font-size="10.00">IControl.h</text>
</a>
</g>
</g>
<!-- Node1&#45;&gt;Node2 -->
<g id="edge1" class="edge"><title>Node1&#45;&gt;Node2</title>
<path fill="none" stroke="midnightblue" d="M978.34,-565.844C810.913,-555.995 300.574,-525.975 153.846,-517.344"/>
<polygon fill="midnightblue" stroke="midnightblue" points="153.713,-513.83 143.525,-516.737 153.302,-520.818 153.713,-513.83"/>
</g>
<!-- Node35 -->
<g id="node35" class="node"><title>Node35</title>
<g id="a_node35"><a xlink:href="_i_plug_midi_8h.html" target="_top" xlink:title="MIDI and sysex structs/utilites. ">
<polygon fill="white" stroke="black" points="1441.5,-224.5 1441.5,-243.5 1506.5,-243.5 1506.5,-224.5 1441.5,-224.5"/>
<text text-anchor="middle" x="1474" y="-231.5" font-family="Helvetica,sans-Serif" font-size="10.00">IPlugMidi.h</text>
</a>
</g>
</g>
<!-- Node1&#45;&gt;Node35 -->
<g id="edge86" class="edge"><title>Node1&#45;&gt;Node35</title>
<path fill="none" stroke="midnightblue" d="M1085.72,-568.255C1282.28,-564.829 1951,-546.725 1951,-459 1951,-459 1951,-459 1951,-345 1951,-256.317 1633.98,-239.122 1516.83,-235.795"/>
<polygon fill="midnightblue" stroke="midnightblue" points="1516.87,-232.295 1506.79,-235.531 1516.69,-239.293 1516.87,-232.295"/>
</g>
<!-- Node3 -->
<g id="node3" class="node"><title>Node3</title>
<polygon fill="white" stroke="#bfbfbf" points="1121,-0.5 1121,-19.5 1167,-19.5 1167,-0.5 1121,-0.5"/>
<text text-anchor="middle" x="1144" y="-7.5" font-family="Helvetica,sans-Serif" font-size="10.00">cstring</text>
</g>
<!-- Node2&#45;&gt;Node3 -->
<g id="edge2" class="edge"><title>Node2&#45;&gt;Node3</title>
<path fill="none" stroke="midnightblue" d="M109.696,-504.124C93.6188,-470.122 38,-344.577 38,-235 38,-235 38,-235 38,-121 38,-10.3224 926.33,-9.67438 1110.73,-10.7321"/>
<polygon fill="midnightblue" stroke="midnightblue" points="1110.88,-14.233 1120.9,-10.7965 1110.92,-7.23317 1110.88,-14.233"/>
</g>
<!-- Node4 -->
<g id="node4" class="node"><title>Node4</title>
<polygon fill="white" stroke="#bfbfbf" points="296.5,-0.5 296.5,-19.5 341.5,-19.5 341.5,-0.5 296.5,-0.5"/>
<text text-anchor="middle" x="319" y="-7.5" font-family="Helvetica,sans-Serif" font-size="10.00">cstdlib</text>
</g>
<!-- Node2&#45;&gt;Node4 -->
<g id="edge3" class="edge"><title>Node2&#45;&gt;Node4</title>
<path fill="none" stroke="midnightblue" d="M93.3555,-504.421C60.5038,-489.231 0,-454.293 0,-403 0,-403 0,-403 0,-121 0,-90.2048 0.136683,-75.465 24,-56 63.6316,-23.6729 217.602,-14.4432 285.972,-11.9122"/>
<polygon fill="midnightblue" stroke="midnightblue" points="286.306,-15.4028 296.179,-11.5609 286.065,-8.40698 286.306,-15.4028"/>
</g>
<!-- Node5 -->
<g id="node5" class="node"><title>Node5</title>
<g id="a_node5"><a xlink:href="_i_plug_platform_8h.html" target="_top" xlink:title="Include to get consistently named preprocessor macros for different platforms and logging functionali...">
<polygon fill="white" stroke="black" points="277,-56.5 277,-75.5 361,-75.5 361,-56.5 277,-56.5"/>
<text text-anchor="middle" x="319" y="-63.5" font-family="Helvetica,sans-Serif" font-size="10.00">IPlugPlatform.h</text>
</a>
</g>
</g>
<!-- Node2&#45;&gt;Node5 -->
<g id="edge4" class="edge"><title>Node2&#45;&gt;Node5</title>
<path fill="none" stroke="midnightblue" d="M98.2167,-504.467C85.7973,-496.769 69.3949,-484.179 62,-468 58.3048,-459.916 61.7083,-456.884 62,-448 65.1128,-353.18 76,-329.871 76,-235 76,-235 76,-235 76,-177 76,-146.205 76.6436,-132.07 100,-112 124.527,-90.9236 209.907,-78.2194 266.532,-71.9178"/>
<polygon fill="midnightblue" stroke="midnightblue" points="267.182,-75.368 276.749,-70.8151 266.431,-68.4084 267.182,-75.368"/>
</g>
<!-- Node6 -->
<g id="node6" class="node"><title>Node6</title>
<polygon fill="white" stroke="#bfbfbf" points="508,-56.5 508,-75.5 572,-75.5 572,-56.5 508,-56.5"/>
<text text-anchor="middle" x="540" y="-63.5" font-family="Helvetica,sans-Serif" font-size="10.00">wdlstring.h</text>
</g>
<!-- Node2&#45;&gt;Node6 -->
<g id="edge7" class="edge"><title>Node2&#45;&gt;Node6</title>
<path fill="none" stroke="midnightblue" d="M114,-504.442C114,-485.936 114,-440.812 114,-403 114,-403 114,-403 114,-177 114,-146.902 109.946,-131.35 133,-112 160.55,-88.8769 398.892,-74.1906 497.534,-69.0525"/>
<polygon fill="midnightblue" stroke="midnightblue" points="497.935,-72.5366 507.743,-68.5289 497.577,-65.5458 497.935,-72.5366"/>
</g>
<!-- Node7 -->
<g id="node7" class="node"><title>Node7</title>
<polygon fill="white" stroke="#bfbfbf" points="310.5,-112.5 310.5,-131.5 359.5,-131.5 359.5,-112.5 310.5,-112.5"/>
<text text-anchor="middle" x="335" y="-119.5" font-family="Helvetica,sans-Serif" font-size="10.00">ptrlist.h</text>
</g>
<!-- Node2&#45;&gt;Node7 -->
<g id="edge8" class="edge"><title>Node2&#45;&gt;Node7</title>
<path fill="none" stroke="midnightblue" d="M119.284,-504.231C129.725,-486.043 152,-442.601 152,-403 152,-403 152,-403 152,-289 152,-209.045 249.019,-157.517 301.774,-135.409"/>
<polygon fill="midnightblue" stroke="midnightblue" points="303.133,-138.635 311.076,-131.623 300.494,-132.151 303.133,-138.635"/>
</g>
<!-- Node8 -->
<g id="node8" class="node"><title>Node8</title>
<g id="a_node8"><a xlink:href="_i_graphics_8h.html" target="_top" xlink:title="The lowest level base class of an IGraphics context. ">
<polygon fill="white" stroke="black" points="385.5,-448.5 385.5,-467.5 452.5,-467.5 452.5,-448.5 385.5,-448.5"/>
<text text-anchor="middle" x="419" y="-455.5" font-family="Helvetica,sans-Serif" font-size="10.00">IGraphics.h</text>
</a>
</g>
</g>
<!-- Node2&#45;&gt;Node8 -->
<g id="edge9" class="edge"><title>Node2&#45;&gt;Node8</title>
<path fill="none" stroke="midnightblue" d="M143.522,-507.773C197.477,-498.22 312.247,-477.901 375.285,-466.74"/>
<polygon fill="midnightblue" stroke="midnightblue" points="376.076,-470.154 385.313,-464.964 374.856,-463.261 376.076,-470.154"/>
</g>
<!-- Node5&#45;&gt;Node3 -->
<g id="edge5" class="edge"><title>Node5&#45;&gt;Node3</title>
<path fill="none" stroke="midnightblue" d="M361.102,-60.6102C377.036,-59.0317 395.344,-57.3175 412,-56 681.388,-34.6913 1007.23,-17.7847 1110.76,-12.6273"/>
<polygon fill="midnightblue" stroke="midnightblue" points="1111.09,-16.1154 1120.9,-12.1242 1110.74,-9.12394 1111.09,-16.1154"/>
</g>
<!-- Node5&#45;&gt;Node4 -->
<g id="edge6" class="edge"><title>Node5&#45;&gt;Node4</title>
<path fill="none" stroke="midnightblue" d="M319,-56.083C319,-49.0059 319,-38.8611 319,-29.9865"/>
<polygon fill="midnightblue" stroke="midnightblue" points="322.5,-29.751 319,-19.7511 315.5,-29.7511 322.5,-29.751"/>
</g>
<!-- Node9 -->
<g id="node9" class="node"><title>Node9</title>
<g id="a_node9"><a xlink:href="_i_plug_constants_8h.html" target="_top" xlink:title="IPlug Constant definitions, Types, magic numbers. ">
<polygon fill="white" stroke="black" points="1869,-56.5 1869,-75.5 1961,-75.5 1961,-56.5 1869,-56.5"/>
<text text-anchor="middle" x="1915" y="-63.5" font-family="Helvetica,sans-Serif" font-size="10.00">IPlugConstants.h</text>
</a>
</g>
</g>
<!-- Node8&#45;&gt;Node9 -->
<g id="edge10" class="edge"><title>Node8&#45;&gt;Node9</title>
<path fill="none" stroke="midnightblue" d="M452.656,-457.047C570.645,-456.84 976.335,-452.99 1308,-412 1562.5,-380.547 1628.91,-375.424 1874,-300 1944.61,-278.269 2027,-308.882 2027,-235 2027,-235 2027,-235 2027,-177 2027,-130.614 1977.49,-97.2849 1944.31,-80.1547"/>
<polygon fill="midnightblue" stroke="midnightblue" points="1945.54,-76.8574 1935.02,-75.5583 1942.43,-83.131 1945.54,-76.8574"/>
</g>
<!-- Node10 -->
<g id="node10" class="node"><title>Node10</title>
<g id="a_node10"><a xlink:href="_i_plug_logger_8h.html" target="_top" xlink:title="IPlug logging a.k.a tracing functionality. ">
<polygon fill="white" stroke="black" points="1566.5,-168.5 1566.5,-187.5 1643.5,-187.5 1643.5,-168.5 1566.5,-168.5"/>
<text text-anchor="middle" x="1605" y="-175.5" font-family="Helvetica,sans-Serif" font-size="10.00">IPlugLogger.h</text>
</a>
</g>
</g>
<!-- Node8&#45;&gt;Node10 -->
<g id="edge11" class="edge"><title>Node8&#45;&gt;Node10</title>
<path fill="none" stroke="midnightblue" d="M452.776,-455.613C643.677,-447.558 1579,-405.127 1579,-347 1579,-347 1579,-347 1579,-289 1579,-255.929 1590.27,-218.729 1597.97,-197.168"/>
<polygon fill="midnightblue" stroke="midnightblue" points="1601.29,-198.268 1601.49,-187.675 1594.73,-195.831 1601.29,-198.268"/>
</g>
<!-- Node21 -->
<g id="node21" class="node"><title>Node21</title>
<g id="a_node21"><a xlink:href="_i_graphics_constants_8h_source.html" target="_top" xlink:title="IGraphicsConstants.h">
<polygon fill="white" stroke="black" points="142,-112.5 142,-131.5 254,-131.5 254,-112.5 142,-112.5"/>
<text text-anchor="middle" x="198" y="-119.5" font-family="Helvetica,sans-Serif" font-size="10.00">IGraphicsConstants.h</text>
</a>
</g>
</g>
<!-- Node8&#45;&gt;Node21 -->
<g id="edge32" class="edge"><title>Node8&#45;&gt;Node21</title>
<path fill="none" stroke="midnightblue" d="M385.21,-455.826C321.51,-451.616 190,-432.565 190,-347 190,-347 190,-347 190,-233 190,-200.863 193.439,-163.584 195.807,-141.719"/>
<polygon fill="midnightblue" stroke="midnightblue" points="199.312,-141.872 196.954,-131.542 192.356,-141.087 199.312,-141.872"/>
</g>
<!-- Node22 -->
<g id="node22" class="node"><title>Node22</title>
<g id="a_node22"><a xlink:href="_i_graphics_structs_8h_source.html" target="_top" xlink:title="IGraphicsStructs.h">
<polygon fill="white" stroke="black" points="620,-168.5 620,-187.5 718,-187.5 718,-168.5 620,-168.5"/>
<text text-anchor="middle" x="669" y="-175.5" font-family="Helvetica,sans-Serif" font-size="10.00">IGraphicsStructs.h</text>
</a>
</g>
</g>
<!-- Node8&#45;&gt;Node22 -->
<g id="edge34" class="edge"><title>Node8&#45;&gt;Node22</title>
<path fill="none" stroke="midnightblue" d="M434.192,-448.268C460.323,-431.983 511,-394.303 511,-347 511,-347 511,-347 511,-289 511,-234.393 575.353,-204.683 621.919,-190.334"/>
<polygon fill="midnightblue" stroke="midnightblue" points="622.949,-193.679 631.556,-187.501 620.975,-186.963 622.949,-193.679"/>
</g>
<!-- Node28 -->
<g id="node28" class="node"><title>Node28</title>
<g id="a_node28"><a xlink:href="_i_graphics_utilities_8h_source.html" target="_top" xlink:title="IGraphicsUtilities.h">
<polygon fill="white" stroke="black" points="218,-224.5 218,-243.5 318,-243.5 318,-224.5 218,-224.5"/>
<text text-anchor="middle" x="268" y="-231.5" font-family="Helvetica,sans-Serif" font-size="10.00">IGraphicsUtilities.h</text>
</a>
</g>
</g>
<!-- Node8&#45;&gt;Node28 -->
<g id="edge47" class="edge"><title>Node8&#45;&gt;Node28</title>
<path fill="none" stroke="midnightblue" d="M385.122,-453.018C339.955,-446.932 263.74,-433.684 247,-412 210.34,-364.514 241.246,-287.444 258.41,-252.828"/>
<polygon fill="midnightblue" stroke="midnightblue" points="261.547,-254.381 263.012,-243.888 255.323,-251.177 261.547,-254.381"/>
</g>
<!-- Node29 -->
<g id="node29" class="node"><title>Node29</title>
<g id="a_node29"><a xlink:href="_i_graphics_popup_menu_8h.html" target="_top" xlink:title="A class for setting the contents of a pop up menu. ">
<polygon fill="white" stroke="black" points="444.5,-168.5 444.5,-187.5 563.5,-187.5 563.5,-168.5 444.5,-168.5"/>
<text text-anchor="middle" x="504" y="-175.5" font-family="Helvetica,sans-Serif" font-size="10.00">IGraphicsPopupMenu.h</text>
</a>
</g>
</g>
<!-- Node8&#45;&gt;Node29 -->
<g id="edge50" class="edge"><title>Node8&#45;&gt;Node29</title>
<path fill="none" stroke="midnightblue" d="M427.556,-448.496C435.609,-439.993 447.393,-426.173 454,-412 472.044,-373.293 493.503,-245.484 501.133,-197.458"/>
<polygon fill="midnightblue" stroke="midnightblue" points="504.598,-197.955 502.693,-187.533 497.683,-196.868 504.598,-197.955"/>
</g>
<!-- Node30 -->
<g id="node30" class="node"><title>Node30</title>
<g id="a_node30"><a xlink:href="_i_graphics_editor_delegate_8h.html" target="_top" xlink:title="An editor delgate base class for a SOMETHING that uses IGraphics for it&#39;s UI. ">
<polygon fill="white" stroke="black" points="793.5,-392.5 793.5,-411.5 924.5,-411.5 924.5,-392.5 793.5,-392.5"/>
<text text-anchor="middle" x="859" y="-399.5" font-family="Helvetica,sans-Serif" font-size="10.00">IGraphicsEditorDelegate.h</text>
</a>
</g>
</g>
<!-- Node8&#45;&gt;Node30 -->
<g id="edge57" class="edge"><title>Node8&#45;&gt;Node30</title>
<path fill="none" stroke="midnightblue" d="M452.795,-452.852C523.055,-444.23 686.384,-424.185 783.178,-412.305"/>
<polygon fill="midnightblue" stroke="midnightblue" points="783.698,-415.768 793.197,-411.076 782.845,-408.82 783.698,-415.768"/>
</g>
<!-- Node37 -->
<g id="node37" class="node"><title>Node37</title>
<polygon fill="white" stroke="#bfbfbf" points="256.5,-392.5 256.5,-411.5 315.5,-411.5 315.5,-392.5 256.5,-392.5"/>
<text text-anchor="middle" x="286" y="-399.5" font-family="Helvetica,sans-Serif" font-size="10.00">heapbuf.h</text>
</g>
<!-- Node8&#45;&gt;Node37 -->
<g id="edge83" class="edge"><title>Node8&#45;&gt;Node37</title>
<path fill="none" stroke="midnightblue" d="M397.926,-448.444C375.94,-439.517 341.266,-425.439 316.336,-415.317"/>
<polygon fill="midnightblue" stroke="midnightblue" points="317.558,-412.035 306.976,-411.516 314.924,-418.521 317.558,-412.035"/>
</g>
<!-- Node38 -->
<g id="node38" class="node"><title>Node38</title>
<polygon fill="white" stroke="#bfbfbf" points="333.5,-392.5 333.5,-411.5 374.5,-411.5 374.5,-392.5 333.5,-392.5"/>
<text text-anchor="middle" x="354" y="-399.5" font-family="Helvetica,sans-Serif" font-size="10.00">stack</text>
</g>
<!-- Node8&#45;&gt;Node38 -->
<g id="edge84" class="edge"><title>Node8&#45;&gt;Node38</title>
<path fill="none" stroke="midnightblue" d="M408.557,-448.324C398.854,-440.263 384.185,-428.077 372.5,-418.369"/>
<polygon fill="midnightblue" stroke="midnightblue" points="374.562,-415.532 364.633,-411.834 370.089,-420.916 374.562,-415.532"/>
</g>
<!-- Node39 -->
<g id="node39" class="node"><title>Node39</title>
<polygon fill="white" stroke="#bfbfbf" points="393,-392.5 393,-411.5 445,-411.5 445,-392.5 393,-392.5"/>
<text text-anchor="middle" x="419" y="-399.5" font-family="Helvetica,sans-Serif" font-size="10.00">memory</text>
</g>
<!-- Node8&#45;&gt;Node39 -->
<g id="edge85" class="edge"><title>Node8&#45;&gt;Node39</title>
<path fill="none" stroke="midnightblue" d="M419,-448.083C419,-441.006 419,-430.861 419,-421.986"/>
<polygon fill="midnightblue" stroke="midnightblue" points="422.5,-421.751 419,-411.751 415.5,-421.751 422.5,-421.751"/>
</g>
<!-- Node10&#45;&gt;Node3 -->
<g id="edge16" class="edge"><title>Node10&#45;&gt;Node3</title>
<path fill="none" stroke="midnightblue" d="M1643.58,-175.896C1707.1,-173.175 1829.37,-163.832 1856,-132 1861.7,-125.183 1861.46,-119.012 1856,-112 1813.56,-57.522 1312.62,-21.7669 1177.44,-13.0656"/>
<polygon fill="midnightblue" stroke="midnightblue" points="1177.48,-9.56114 1167.27,-12.4183 1177.03,-16.547 1177.48,-9.56114"/>
</g>
<!-- Node10&#45;&gt;Node6 -->
<g id="edge19" class="edge"><title>Node10&#45;&gt;Node6</title>
<path fill="none" stroke="midnightblue" d="M1566.48,-171.354C1515.56,-163.656 1423.14,-148.879 1345,-132 1310.44,-124.534 1302.94,-117.402 1268,-112 967.592,-65.5549 886.604,-113.907 585,-76 584.101,-75.887 583.193,-75.7662 582.278,-75.6387"/>
<polygon fill="midnightblue" stroke="midnightblue" points="582.78,-72.1746 572.353,-74.0526 581.676,-79.0869 582.78,-72.1746"/>
</g>
<!-- Node10&#45;&gt;Node9 -->
<g id="edge21" class="edge"><title>Node10&#45;&gt;Node9</title>
<path fill="none" stroke="midnightblue" d="M1643.69,-175.509C1712.36,-172.126 1851.79,-161.705 1889,-132 1903.08,-120.761 1909.57,-100.747 1912.54,-85.8868"/>
<polygon fill="midnightblue" stroke="midnightblue" points="1916.04,-86.1916 1914.19,-75.7584 1909.13,-85.0641 1916.04,-86.1916"/>
</g>
<!-- Node11 -->
<g id="node11" class="node"><title>Node11</title>
<polygon fill="white" stroke="#bfbfbf" points="1459.5,-56.5 1459.5,-75.5 1502.5,-75.5 1502.5,-56.5 1459.5,-56.5"/>
<text text-anchor="middle" x="1481" y="-63.5" font-family="Helvetica,sans-Serif" font-size="10.00">cstdio</text>
</g>
<!-- Node10&#45;&gt;Node11 -->
<g id="edge12" class="edge"><title>Node10&#45;&gt;Node11</title>
<path fill="none" stroke="midnightblue" d="M1604.27,-168.306C1602.69,-154.678 1597.79,-128.176 1583,-112 1564.42,-91.6879 1535.01,-80.0561 1512.53,-73.7288"/>
<polygon fill="midnightblue" stroke="midnightblue" points="1513.31,-70.3161 1502.75,-71.1828 1511.55,-77.0902 1513.31,-70.3161"/>
</g>
<!-- Node12 -->
<g id="node12" class="node"><title>Node12</title>
<polygon fill="white" stroke="#bfbfbf" points="1579,-56.5 1579,-75.5 1625,-75.5 1625,-56.5 1579,-56.5"/>
<text text-anchor="middle" x="1602" y="-63.5" font-family="Helvetica,sans-Serif" font-size="10.00">cctype</text>
</g>
<!-- Node10&#45;&gt;Node12 -->
<g id="edge13" class="edge"><title>Node10&#45;&gt;Node12</title>
<path fill="none" stroke="midnightblue" d="M1608.29,-168.184C1612.55,-155.698 1619.06,-132.141 1616,-112 1614.63,-103.001 1611.81,-93.3251 1609.05,-85.2601"/>
<polygon fill="midnightblue" stroke="midnightblue" points="1612.31,-83.9759 1605.6,-75.7782 1605.73,-86.3722 1612.31,-83.9759"/>
</g>
<!-- Node13 -->
<g id="node13" class="node"><title>Node13</title>
<polygon fill="white" stroke="#bfbfbf" points="1668.5,-112.5 1668.5,-131.5 1717.5,-131.5 1717.5,-112.5 1668.5,-112.5"/>
<text text-anchor="middle" x="1693" y="-119.5" font-family="Helvetica,sans-Serif" font-size="10.00">cstdarg</text>
</g>
<!-- Node10&#45;&gt;Node13 -->
<g id="edge14" class="edge"><title>Node10&#45;&gt;Node13</title>
<path fill="none" stroke="midnightblue" d="M1619.14,-168.324C1632.87,-159.9 1653.94,-146.971 1670.06,-137.074"/>
<polygon fill="midnightblue" stroke="midnightblue" points="1672.2,-139.868 1678.9,-131.655 1668.54,-133.902 1672.2,-139.868"/>
</g>
<!-- Node14 -->
<g id="node14" class="node"><title>Node14</title>
<polygon fill="white" stroke="#bfbfbf" points="1528,-112.5 1528,-131.5 1574,-131.5 1574,-112.5 1528,-112.5"/>
<text text-anchor="middle" x="1551" y="-119.5" font-family="Helvetica,sans-Serif" font-size="10.00">cstdint</text>
</g>
<!-- Node10&#45;&gt;Node14 -->
<g id="edge15" class="edge"><title>Node10&#45;&gt;Node14</title>
<path fill="none" stroke="midnightblue" d="M1596.08,-168.083C1588.22,-160.22 1576.57,-148.569 1567.08,-139.081"/>
<polygon fill="midnightblue" stroke="midnightblue" points="1569.3,-136.347 1559.75,-131.751 1564.35,-141.297 1569.3,-136.347"/>
</g>
<!-- Node15 -->
<g id="node15" class="node"><title>Node15</title>
<polygon fill="white" stroke="#bfbfbf" points="1735.5,-112.5 1735.5,-131.5 1776.5,-131.5 1776.5,-112.5 1735.5,-112.5"/>
<text text-anchor="middle" x="1756" y="-119.5" font-family="Helvetica,sans-Serif" font-size="10.00">ctime</text>
</g>
<!-- Node10&#45;&gt;Node15 -->
<g id="edge17" class="edge"><title>Node10&#45;&gt;Node15</title>
<path fill="none" stroke="midnightblue" d="M1628.93,-168.444C1655.11,-159.079 1697.15,-144.046 1725.64,-133.857"/>
<polygon fill="midnightblue" stroke="midnightblue" points="1726.87,-137.136 1735.1,-130.473 1724.51,-130.545 1726.87,-137.136"/>
</g>
<!-- Node16 -->
<g id="node16" class="node"><title>Node16</title>
<polygon fill="white" stroke="#bfbfbf" points="1210.5,-112.5 1210.5,-131.5 1259.5,-131.5 1259.5,-112.5 1210.5,-112.5"/>
<text text-anchor="middle" x="1235" y="-119.5" font-family="Helvetica,sans-Serif" font-size="10.00">cassert</text>
</g>
<!-- Node10&#45;&gt;Node16 -->
<g id="edge18" class="edge"><title>Node10&#45;&gt;Node16</title>
<path fill="none" stroke="midnightblue" d="M1566.45,-171.374C1494.09,-160.814 1339,-138.178 1269.7,-128.064"/>
<polygon fill="midnightblue" stroke="midnightblue" points="1270.13,-124.589 1259.72,-126.608 1269.11,-131.516 1270.13,-124.589"/>
</g>
<!-- Node17 -->
<g id="node17" class="node"><title>Node17</title>
<polygon fill="white" stroke="#bfbfbf" points="1795,-112.5 1795,-131.5 1847,-131.5 1847,-112.5 1795,-112.5"/>
<text text-anchor="middle" x="1821" y="-119.5" font-family="Helvetica,sans-Serif" font-size="10.00">mutex.h</text>
</g>
<!-- Node10&#45;&gt;Node17 -->
<g id="edge20" class="edge"><title>Node10&#45;&gt;Node17</title>
<path fill="none" stroke="midnightblue" d="M1639.23,-168.444C1679.03,-158.492 1744.46,-142.136 1785.01,-131.999"/>
<polygon fill="midnightblue" stroke="midnightblue" points="1785.9,-135.384 1794.75,-129.563 1784.2,-128.593 1785.9,-135.384"/>
</g>
<!-- Node18 -->
<g id="node18" class="node"><title>Node18</title>
<g id="a_node18"><a xlink:href="_i_plug_utilities_8h.html" target="_top" xlink:title="Utility functions and macros. ">
<polygon fill="white" stroke="black" points="1354,-112.5 1354,-131.5 1434,-131.5 1434,-112.5 1354,-112.5"/>
<text text-anchor="middle" x="1394" y="-119.5" font-family="Helvetica,sans-Serif" font-size="10.00">IPlugUtilities.h</text>
</a>
</g>
</g>
<!-- Node10&#45;&gt;Node18 -->
<g id="edge22" class="edge"><title>Node10&#45;&gt;Node18</title>
<path fill="none" stroke="midnightblue" d="M1571.57,-168.444C1535.14,-159.122 1476.77,-144.183 1436.97,-133.997"/>
<polygon fill="midnightblue" stroke="midnightblue" points="1437.83,-130.605 1427.28,-131.516 1436.1,-137.387 1437.83,-130.605"/>
</g>
<!-- Node18&#45;&gt;Node3 -->
<g id="edge27" class="edge"><title>Node18&#45;&gt;Node3</title>
<path fill="none" stroke="midnightblue" d="M1392.14,-112.285C1388.65,-98.1319 1379.7,-70.2973 1361,-56 1332.56,-34.2562 1230.8,-20.3457 1177.34,-14.3699"/>
<polygon fill="midnightblue" stroke="midnightblue" points="1177.65,-10.883 1167.33,-13.2806 1176.9,-17.8419 1177.65,-10.883"/>
</g>
<!-- Node18&#45;&gt;Node4 -->
<g id="edge26" class="edge"><title>Node18&#45;&gt;Node4</title>
<path fill="none" stroke="midnightblue" d="M1383.16,-112.44C1363.78,-97.7117 1321.35,-68.003 1280,-56 1189.35,-29.688 509.46,-14.7562 351.648,-11.623"/>
<polygon fill="midnightblue" stroke="midnightblue" points="351.677,-8.12302 341.61,-11.4257 351.539,-15.1217 351.677,-8.12302"/>
</g>
<!-- Node18&#45;&gt;Node5 -->
<g id="edge31" class="edge"><title>Node18&#45;&gt;Node5</title>
<path fill="none" stroke="midnightblue" d="M1353.73,-117.871C1329,-116.012 1296.68,-113.695 1268,-112 926.444,-91.8098 840.752,-92.5432 499,-76 456.049,-73.9209 407.337,-71.4802 371.428,-69.6654"/>
<polygon fill="midnightblue" stroke="midnightblue" points="371.351,-66.1571 361.187,-69.1473 370.997,-73.1482 371.351,-66.1571"/>
</g>
<!-- Node18&#45;&gt;Node6 -->
<g id="edge29" class="edge"><title>Node18&#45;&gt;Node6</title>
<path fill="none" stroke="midnightblue" d="M1353.97,-113.79C1349.27,-113.104 1344.54,-112.484 1340,-112 1005.96,-76.3246 918.419,-117.056 585,-76 584.101,-75.8892 583.192,-75.7706 582.277,-75.6449"/>
<polygon fill="midnightblue" stroke="midnightblue" points="582.775,-72.1802 572.351,-74.0723 581.68,-79.094 582.775,-72.1802"/>
</g>
<!-- Node18&#45;&gt;Node9 -->
<g id="edge30" class="edge"><title>Node18&#45;&gt;Node9</title>
<path fill="none" stroke="midnightblue" d="M1434.02,-116.852C1526.03,-107.316 1752.83,-83.8083 1858.78,-72.8274"/>
<polygon fill="midnightblue" stroke="midnightblue" points="1859.36,-76.2855 1868.95,-71.7731 1858.64,-69.3228 1859.36,-76.2855"/>
</g>
<!-- Node18&#45;&gt;Node11 -->
<g id="edge25" class="edge"><title>Node18&#45;&gt;Node11</title>
<path fill="none" stroke="midnightblue" d="M1407.98,-112.324C1421.55,-103.9 1442.38,-90.9709 1458.32,-81.0741"/>
<polygon fill="midnightblue" stroke="midnightblue" points="1460.41,-83.9019 1467.06,-75.6545 1456.71,-77.9544 1460.41,-83.9019"/>
</g>
<!-- Node18&#45;&gt;Node12 -->
<g id="edge28" class="edge"><title>Node18&#45;&gt;Node12</title>
<path fill="none" stroke="midnightblue" d="M1426.96,-112.444C1465.87,-102.343 1530.18,-85.6449 1569.08,-75.5478"/>
<polygon fill="midnightblue" stroke="midnightblue" points="1570.06,-78.909 1578.86,-73.0084 1568.3,-72.1336 1570.06,-78.909"/>
</g>
<!-- Node19 -->
<g id="node19" class="node"><title>Node19</title>
<polygon fill="white" stroke="#bfbfbf" points="1216,-56.5 1216,-75.5 1272,-75.5 1272,-56.5 1216,-56.5"/>
<text text-anchor="middle" x="1244" y="-63.5" font-family="Helvetica,sans-Serif" font-size="10.00">algorithm</text>
</g>
<!-- Node18&#45;&gt;Node19 -->
<g id="edge23" class="edge"><title>Node18&#45;&gt;Node19</title>
<path fill="none" stroke="midnightblue" d="M1370.23,-112.444C1345.11,-103.399 1305.29,-89.064 1277.1,-78.9158"/>
<polygon fill="midnightblue" stroke="midnightblue" points="1278.25,-75.6106 1267.66,-75.5164 1275.88,-82.1968 1278.25,-75.6106"/>
</g>
<!-- Node20 -->
<g id="node20" class="node"><title>Node20</title>
<polygon fill="white" stroke="#bfbfbf" points="594,-56.5 594,-75.5 638,-75.5 638,-56.5 594,-56.5"/>
<text text-anchor="middle" x="616" y="-63.5" font-family="Helvetica,sans-Serif" font-size="10.00">cmath</text>
</g>
<!-- Node18&#45;&gt;Node20 -->
<g id="edge24" class="edge"><title>Node18&#45;&gt;Node20</title>
<path fill="none" stroke="midnightblue" d="M1353.96,-113.855C1349.26,-113.157 1344.53,-112.517 1340,-112 1074.1,-81.6601 750.76,-70.6824 648.567,-67.8281"/>
<polygon fill="midnightblue" stroke="midnightblue" points="648.383,-64.3219 638.291,-67.5479 648.192,-71.3193 648.383,-64.3219"/>
</g>
<!-- Node21&#45;&gt;Node5 -->
<g id="edge33" class="edge"><title>Node21&#45;&gt;Node5</title>
<path fill="none" stroke="midnightblue" d="M217.173,-112.444C236.909,-103.636 267.885,-89.8116 290.493,-79.722"/>
<polygon fill="midnightblue" stroke="midnightblue" points="292.211,-82.788 299.917,-75.5164 289.359,-76.3957 292.211,-82.788"/>
</g>
<!-- Node22&#45;&gt;Node5 -->
<g id="edge45" class="edge"><title>Node22&#45;&gt;Node5</title>
<path fill="none" stroke="midnightblue" d="M641.827,-168.46C579.675,-148.926 427.063,-100.963 356.233,-78.7018"/>
<polygon fill="midnightblue" stroke="midnightblue" points="356.986,-75.2697 346.397,-75.6104 354.887,-81.9477 356.986,-75.2697"/>
</g>
<!-- Node22&#45;&gt;Node6 -->
<g id="edge42" class="edge"><title>Node22&#45;&gt;Node6</title>
<path fill="none" stroke="midnightblue" d="M658.878,-168.368C637.024,-149.733 585.188,-105.532 557.748,-82.1338"/>
<polygon fill="midnightblue" stroke="midnightblue" points="559.956,-79.4167 550.075,-75.5914 555.414,-84.7431 559.956,-79.4167"/>
</g>
<!-- Node22&#45;&gt;Node7 -->
<g id="edge43" class="edge"><title>Node22&#45;&gt;Node7</title>
<path fill="none" stroke="midnightblue" d="M619.741,-170.643C561.012,-162.797 459.994,-148.457 374,-132 372.55,-131.722 371.071,-131.429 369.58,-131.124"/>
<polygon fill="midnightblue" stroke="midnightblue" points="370.211,-127.68 359.698,-128.995 368.737,-134.523 370.211,-127.68"/>
</g>
<!-- Node22&#45;&gt;Node16 -->
<g id="edge36" class="edge"><title>Node22&#45;&gt;Node16</title>
<path fill="none" stroke="midnightblue" d="M718.239,-172.302C830.488,-161.593 1103.11,-135.583 1200.06,-126.333"/>
<polygon fill="midnightblue" stroke="midnightblue" points="1200.58,-129.8 1210.21,-125.366 1199.92,-122.831 1200.58,-129.8"/>
</g>
<!-- Node22&#45;&gt;Node19 -->
<g id="edge38" class="edge"><title>Node22&#45;&gt;Node19</title>
<path fill="none" stroke="midnightblue" d="M666.427,-168.442C662.827,-154.515 658.258,-126.997 673,-112 710.258,-74.096 1083.54,-68.1166 1205.6,-67.1753"/>
<polygon fill="midnightblue" stroke="midnightblue" points="1205.97,-70.6729 1215.95,-67.1031 1205.93,-63.6731 1205.97,-70.6729"/>
</g>
<!-- Node22&#45;&gt;Node20 -->
<g id="edge35" class="edge"><title>Node22&#45;&gt;Node20</title>
<path fill="none" stroke="midnightblue" d="M662.627,-168.375C656.31,-159.557 646.643,-145.305 640,-132 632.443,-116.865 625.947,-98.7444 621.626,-85.485"/>
<polygon fill="midnightblue" stroke="midnightblue" points="624.875,-84.1494 618.532,-75.6627 618.198,-86.2522 624.875,-84.1494"/>
</g>
<!-- Node22&#45;&gt;Node21 -->
<g id="edge46" class="edge"><title>Node22&#45;&gt;Node21</title>
<path fill="none" stroke="midnightblue" d="M619.928,-171.374C534.906,-161.626 360.146,-141.59 264.374,-130.61"/>
<polygon fill="midnightblue" stroke="midnightblue" points="264.561,-127.108 254.227,-129.446 263.763,-134.063 264.561,-127.108"/>
</g>
<!-- Node23 -->
<g id="node23" class="node"><title>Node23</title>
<polygon fill="white" stroke="#bfbfbf" points="954.5,-112.5 954.5,-131.5 1013.5,-131.5 1013.5,-112.5 954.5,-112.5"/>
<text text-anchor="middle" x="984" y="-119.5" font-family="Helvetica,sans-Serif" font-size="10.00">functional</text>
</g>
<!-- Node22&#45;&gt;Node23 -->
<g id="edge37" class="edge"><title>Node22&#45;&gt;Node23</title>
<path fill="none" stroke="midnightblue" d="M718.086,-169.863C773.217,-161.639 865.283,-147.282 944,-132 944.105,-131.98 944.21,-131.959 944.315,-131.939"/>
<polygon fill="midnightblue" stroke="midnightblue" points="945.243,-135.321 954.334,-129.88 943.834,-128.464 945.243,-135.321"/>
</g>
<!-- Node24 -->
<g id="node24" class="node"><title>Node24</title>
<polygon fill="white" stroke="#bfbfbf" points="682.5,-112.5 682.5,-131.5 731.5,-131.5 731.5,-112.5 682.5,-112.5"/>
<text text-anchor="middle" x="707" y="-119.5" font-family="Helvetica,sans-Serif" font-size="10.00">random</text>
</g>
<!-- Node22&#45;&gt;Node24 -->
<g id="edge39" class="edge"><title>Node22&#45;&gt;Node24</title>
<path fill="none" stroke="midnightblue" d="M675.275,-168.083C680.642,-160.455 688.518,-149.264 695.079,-139.941"/>
<polygon fill="midnightblue" stroke="midnightblue" points="697.949,-141.943 700.842,-131.751 692.225,-137.915 697.949,-141.943"/>
</g>
<!-- Node25 -->
<g id="node25" class="node"><title>Node25</title>
<polygon fill="white" stroke="#bfbfbf" points="750,-112.5 750,-131.5 796,-131.5 796,-112.5 750,-112.5"/>
<text text-anchor="middle" x="773" y="-119.5" font-family="Helvetica,sans-Serif" font-size="10.00">chrono</text>
</g>
<!-- Node22&#45;&gt;Node25 -->
<g id="edge40" class="edge"><title>Node22&#45;&gt;Node25</title>
<path fill="none" stroke="midnightblue" d="M685.709,-168.324C702.312,-159.703 728.002,-146.364 747.22,-136.386"/>
<polygon fill="midnightblue" stroke="midnightblue" points="749.07,-139.369 756.332,-131.655 745.844,-133.156 749.07,-139.369"/>
</g>
<!-- Node26 -->
<g id="node26" class="node"><title>Node26</title>
<polygon fill="white" stroke="#bfbfbf" points="814.5,-112.5 814.5,-131.5 855.5,-131.5 855.5,-112.5 814.5,-112.5"/>
<text text-anchor="middle" x="835" y="-119.5" font-family="Helvetica,sans-Serif" font-size="10.00">string</text>
</g>
<!-- Node22&#45;&gt;Node26 -->
<g id="edge41" class="edge"><title>Node22&#45;&gt;Node26</title>
<path fill="none" stroke="midnightblue" d="M695.303,-168.444C725.001,-158.783 773.248,-143.088 804.552,-132.905"/>
<polygon fill="midnightblue" stroke="midnightblue" points="805.649,-136.228 814.076,-129.807 803.484,-129.572 805.649,-136.228"/>
</g>
<!-- Node27 -->
<g id="node27" class="node"><title>Node27</title>
<polygon fill="white" stroke="#bfbfbf" points="874,-112.5 874,-131.5 936,-131.5 936,-112.5 874,-112.5"/>
<text text-anchor="middle" x="905" y="-119.5" font-family="Helvetica,sans-Serif" font-size="10.00">nanosvg.h</text>
</g>
<!-- Node22&#45;&gt;Node27 -->
<g id="edge44" class="edge"><title>Node22&#45;&gt;Node27</title>
<path fill="none" stroke="midnightblue" d="M706.395,-168.444C749.321,-158.621 819.508,-142.562 863.924,-132.399"/>
<polygon fill="midnightblue" stroke="midnightblue" points="864.842,-135.779 873.809,-130.137 863.281,-128.956 864.842,-135.779"/>
</g>
<!-- Node28&#45;&gt;Node21 -->
<g id="edge48" class="edge"><title>Node28&#45;&gt;Node21</title>
<path fill="none" stroke="midnightblue" d="M262.507,-224.368C251.006,-206.296 224.203,-164.176 209.014,-140.307"/>
<polygon fill="midnightblue" stroke="midnightblue" points="211.789,-138.149 203.467,-131.591 205.883,-141.907 211.789,-138.149"/>
</g>
<!-- Node28&#45;&gt;Node22 -->
<g id="edge49" class="edge"><title>Node28&#45;&gt;Node22</title>
<path fill="none" stroke="midnightblue" d="M318.381,-226.216C392.464,-216.239 530.528,-197.647 609.498,-187.013"/>
<polygon fill="midnightblue" stroke="midnightblue" points="610.323,-190.433 619.767,-185.63 609.389,-183.496 610.323,-190.433"/>
</g>
<!-- Node29&#45;&gt;Node3 -->
<g id="edge52" class="edge"><title>Node29&#45;&gt;Node3</title>
<path fill="none" stroke="midnightblue" d="M497.895,-168.191C492.245,-159.46 484.245,-145.478 481,-132 472.875,-98.252 471.679,-77.412 499,-56 547.398,-18.0706 985.466,-12.1033 1110.7,-11.1712"/>
<polygon fill="midnightblue" stroke="midnightblue" points="1110.86,-14.6702 1120.84,-11.1018 1110.81,-7.6704 1110.86,-14.6702"/>
</g>
<!-- Node29&#45;&gt;Node6 -->
<g id="edge55" class="edge"><title>Node29&#45;&gt;Node6</title>
<path fill="none" stroke="midnightblue" d="M498.308,-168.246C490.747,-155.431 479.304,-131.026 488,-112 493.777,-99.3602 505.052,-88.911 515.631,-81.2737"/>
<polygon fill="midnightblue" stroke="midnightblue" points="517.849,-84.0009 524.217,-75.5333 513.958,-78.1817 517.849,-84.0009"/>
</g>
<!-- Node29&#45;&gt;Node7 -->
<g id="edge56" class="edge"><title>Node29&#45;&gt;Node7</title>
<path fill="none" stroke="midnightblue" d="M477.221,-168.444C448.079,-159.132 401.391,-144.214 369.516,-134.029"/>
<polygon fill="midnightblue" stroke="midnightblue" points="370.32,-130.611 359.729,-130.902 368.189,-137.279 370.32,-130.611"/>
</g>
<!-- Node29&#45;&gt;Node11 -->
<g id="edge53" class="edge"><title>Node29&#45;&gt;Node11</title>
<path fill="none" stroke="midnightblue" d="M563.675,-171.548C579.083,-170.259 595.651,-168.977 611,-168 703.344,-162.121 1363.75,-179.772 1443,-132 1460.1,-121.691 1470.32,-100.543 1475.79,-85.1606"/>
<polygon fill="midnightblue" stroke="midnightblue" points="1479.12,-86.2276 1478.84,-75.6366 1472.45,-84.0934 1479.12,-86.2276"/>
</g>
<!-- Node29&#45;&gt;Node16 -->
<g id="edge54" class="edge"><title>Node29&#45;&gt;Node16</title>
<path fill="none" stroke="midnightblue" d="M563.695,-171.83C579.103,-170.537 595.666,-169.182 611,-168 839.327,-150.402 896.653,-149.337 1125,-132 1150.12,-130.093 1178.46,-127.77 1200.07,-125.963"/>
<polygon fill="midnightblue" stroke="midnightblue" points="1200.43,-129.445 1210.1,-125.121 1199.85,-122.469 1200.43,-129.445"/>
</g>
<!-- Node29&#45;&gt;Node20 -->
<g id="edge51" class="edge"><title>Node29&#45;&gt;Node20</title>
<path fill="none" stroke="midnightblue" d="M512.788,-168.368C531.599,-149.894 575.993,-106.293 599.97,-82.7436"/>
<polygon fill="midnightblue" stroke="midnightblue" points="602.57,-85.0956 607.252,-75.5914 597.665,-80.1015 602.57,-85.0956"/>
</g>
<!-- Node31 -->
<g id="node31" class="node"><title>Node31</title>
<g id="a_node31"><a xlink:href="_i_plug_editor_delegate_8h.html" target="_top" xlink:title="This pure virtual interface delegates communication in both directions between a UI editor and someth...">
<polygon fill="white" stroke="black" points="1063,-336.5 1063,-355.5 1175,-355.5 1175,-336.5 1063,-336.5"/>
<text text-anchor="middle" x="1119" y="-343.5" font-family="Helvetica,sans-Serif" font-size="10.00">IPlugEditorDelegate.h</text>
</a>
</g>
</g>
<!-- Node30&#45;&gt;Node31 -->
<g id="edge58" class="edge"><title>Node30&#45;&gt;Node31</title>
<path fill="none" stroke="midnightblue" d="M900.198,-392.444C945.649,-383.004 1018.84,-367.802 1067.91,-357.611"/>
<polygon fill="midnightblue" stroke="midnightblue" points="1068.92,-360.977 1077.99,-355.516 1067.49,-354.123 1068.92,-360.977"/>
</g>
<!-- Node31&#45;&gt;Node3 -->
<g id="edge60" class="edge"><title>Node31&#45;&gt;Node3</title>
<path fill="none" stroke="midnightblue" d="M1175.08,-343.829C1367.48,-339.077 1989,-317.355 1989,-235 1989,-235 1989,-235 1989,-121 1989,-90.9022 1993.58,-74.7002 1970,-56 1938.44,-30.9748 1327.73,-15.2495 1177.28,-11.7452"/>
<polygon fill="midnightblue" stroke="midnightblue" points="1177.33,-8.24567 1167.25,-11.5141 1177.17,-15.2438 1177.33,-8.24567"/>
</g>
<!-- Node31&#45;&gt;Node7 -->
<g id="edge62" class="edge"><title>Node31&#45;&gt;Node7</title>
<path fill="none" stroke="midnightblue" d="M1062.67,-341.581C952.989,-333.658 704.18,-309.443 506,-244 454.283,-226.922 440.626,-220.604 397,-188 378.172,-173.929 360.024,-153.896 348.28,-139.799"/>
<polygon fill="midnightblue" stroke="midnightblue" points="350.874,-137.441 341.848,-131.894 345.445,-141.86 350.874,-137.441"/>
</g>
<!-- Node31&#45;&gt;Node16 -->
<g id="edge59" class="edge"><title>Node31&#45;&gt;Node16</title>
<path fill="none" stroke="midnightblue" d="M1152.42,-336.428C1171.7,-329.72 1194.69,-318.367 1208,-300 1242.9,-251.83 1240.71,-176.769 1237.38,-141.939"/>
<polygon fill="midnightblue" stroke="midnightblue" points="1240.83,-141.322 1236.26,-131.766 1233.88,-142.089 1240.83,-141.322"/>
</g>
<!-- Node32 -->
<g id="node32" class="node"><title>Node32</title>
<polygon fill="white" stroke="#bfbfbf" points="1053.5,-280.5 1053.5,-299.5 1102.5,-299.5 1102.5,-280.5 1053.5,-280.5"/>
<text text-anchor="middle" x="1078" y="-287.5" font-family="Helvetica,sans-Serif" font-size="10.00">stdint.h</text>
</g>
<!-- Node31&#45;&gt;Node32 -->
<g id="edge61" class="edge"><title>Node31&#45;&gt;Node32</title>
<path fill="none" stroke="midnightblue" d="M1112.23,-336.083C1106.44,-328.455 1097.94,-317.264 1090.86,-307.941"/>
<polygon fill="midnightblue" stroke="midnightblue" points="1093.48,-305.599 1084.64,-299.751 1087.9,-309.832 1093.48,-305.599"/>
</g>
<!-- Node33 -->
<g id="node33" class="node"><title>Node33</title>
<g id="a_node33"><a xlink:href="_i_plug_parameter_8h.html" target="_top" xlink:title="IPlug&#39;s parameter class. ">
<polygon fill="white" stroke="black" points="1021,-168.5 1021,-187.5 1113,-187.5 1113,-168.5 1021,-168.5"/>
<text text-anchor="middle" x="1067" y="-175.5" font-family="Helvetica,sans-Serif" font-size="10.00">IPlugParameter.h</text>
</a>
</g>
</g>
<!-- Node31&#45;&gt;Node33 -->
<g id="edge63" class="edge"><title>Node31&#45;&gt;Node33</title>
<path fill="none" stroke="midnightblue" d="M1091.72,-336.453C1074.71,-329.548 1054.17,-317.971 1044,-300 1025.2,-266.801 1043.78,-221.104 1056.76,-196.456"/>
<polygon fill="midnightblue" stroke="midnightblue" points="1059.91,-197.997 1061.7,-187.554 1053.79,-194.602 1059.91,-197.997"/>
</g>
<!-- Node31&#45;&gt;Node35 -->
<g id="edge69" class="edge"><title>Node31&#45;&gt;Node35</title>
<path fill="none" stroke="midnightblue" d="M1146.56,-336.46C1209.6,-316.926 1364.39,-268.963 1436.24,-246.702"/>
<polygon fill="midnightblue" stroke="midnightblue" points="1437.7,-249.913 1446.21,-243.61 1435.62,-243.227 1437.7,-249.913"/>
</g>
<!-- Node36 -->
<g id="node36" class="node"><title>Node36</title>
<g id="a_node36"><a xlink:href="_i_plug_structs_8h_source.html" target="_top" xlink:title="IPlugStructs.h">
<polygon fill="white" stroke="black" points="1120.5,-280.5 1120.5,-299.5 1199.5,-299.5 1199.5,-280.5 1120.5,-280.5"/>
<text text-anchor="middle" x="1160" y="-287.5" font-family="Helvetica,sans-Serif" font-size="10.00">IPlugStructs.h</text>
</a>
</g>
</g>
<!-- Node31&#45;&gt;Node36 -->
<g id="edge75" class="edge"><title>Node31&#45;&gt;Node36</title>
<path fill="none" stroke="midnightblue" d="M1125.77,-336.083C1131.56,-328.455 1140.06,-317.264 1147.14,-307.941"/>
<polygon fill="midnightblue" stroke="midnightblue" points="1150.1,-309.832 1153.36,-299.751 1144.52,-305.599 1150.1,-309.832"/>
</g>
<!-- Node33&#45;&gt;Node3 -->
<g id="edge65" class="edge"><title>Node33&#45;&gt;Node3</title>
<path fill="none" stroke="midnightblue" d="M1084.14,-168.403C1097.52,-160.745 1115.41,-148.242 1125,-132 1143.95,-99.9108 1145.86,-55.0528 1145.18,-29.9453"/>
<polygon fill="midnightblue" stroke="midnightblue" points="1148.66,-29.4656 1144.72,-19.6318 1141.67,-29.778 1148.66,-29.4656"/>
</g>
<!-- Node33&#45;&gt;Node6 -->
<g id="edge67" class="edge"><title>Node33&#45;&gt;Node6</title>
<path fill="none" stroke="midnightblue" d="M1063.89,-168.409C1058.14,-153.91 1044.34,-124.904 1022,-112 937.62,-63.2695 681.49,-89.5773 585,-76 584.103,-75.8737 583.196,-75.7409 582.283,-75.6024"/>
<polygon fill="midnightblue" stroke="midnightblue" points="582.81,-72.142 572.369,-73.9371 581.651,-79.0453 582.81,-72.142"/>
</g>
<!-- Node33&#45;&gt;Node18 -->
<g id="edge68" class="edge"><title>Node33&#45;&gt;Node18</title>
<path fill="none" stroke="midnightblue" d="M1113.16,-169.378C1174.03,-159.326 1280.76,-141.7 1343.65,-131.314"/>
<polygon fill="midnightblue" stroke="midnightblue" points="1344.44,-134.732 1353.73,-129.65 1343.3,-127.826 1344.44,-134.732"/>
</g>
<!-- Node33&#45;&gt;Node23 -->
<g id="edge66" class="edge"><title>Node33&#45;&gt;Node23</title>
<path fill="none" stroke="midnightblue" d="M1053.66,-168.324C1040.84,-159.979 1021.22,-147.212 1006.06,-137.352"/>
<polygon fill="midnightblue" stroke="midnightblue" points="1007.59,-134.174 997.302,-131.655 1003.78,-140.042 1007.59,-134.174"/>
</g>
<!-- Node34 -->
<g id="node34" class="node"><title>Node34</title>
<polygon fill="white" stroke="#bfbfbf" points="1070,-112.5 1070,-131.5 1116,-131.5 1116,-112.5 1070,-112.5"/>
<text text-anchor="middle" x="1093" y="-119.5" font-family="Helvetica,sans-Serif" font-size="10.00">atomic</text>
</g>
<!-- Node33&#45;&gt;Node34 -->
<g id="edge64" class="edge"><title>Node33&#45;&gt;Node34</title>
<path fill="none" stroke="midnightblue" d="M1071.29,-168.083C1074.85,-160.691 1080.02,-149.953 1084.42,-140.811"/>
<polygon fill="midnightblue" stroke="midnightblue" points="1087.6,-142.279 1088.79,-131.751 1081.29,-139.243 1087.6,-142.279"/>
</g>
<!-- Node35&#45;&gt;Node10 -->
<g id="edge74" class="edge"><title>Node35&#45;&gt;Node10</title>
<path fill="none" stroke="midnightblue" d="M1494.76,-224.444C1516.32,-215.557 1550.26,-201.563 1574.79,-191.451"/>
<polygon fill="midnightblue" stroke="midnightblue" points="1576.43,-194.563 1584.34,-187.516 1573.76,-188.092 1576.43,-194.563"/>
</g>
<!-- Node35&#45;&gt;Node11 -->
<g id="edge72" class="edge"><title>Node35&#45;&gt;Node11</title>
<path fill="none" stroke="midnightblue" d="M1474.38,-224.075C1475.48,-197.945 1478.71,-121.211 1480.22,-85.577"/>
<polygon fill="midnightblue" stroke="midnightblue" points="1483.71,-85.7067 1480.64,-75.5681 1476.72,-85.4117 1483.71,-85.7067"/>
</g>
<!-- Node35&#45;&gt;Node14 -->
<g id="edge71" class="edge"><title>Node35&#45;&gt;Node14</title>
<path fill="none" stroke="midnightblue" d="M1482.54,-224.496C1491.07,-215.772 1504.25,-201.592 1514,-188 1524.85,-172.864 1535.16,-154.283 1542.13,-140.87"/>
<polygon fill="midnightblue" stroke="midnightblue" points="1545.34,-142.263 1546.75,-131.763 1539.1,-139.091 1545.34,-142.263"/>
</g>
<!-- Node35&#45;&gt;Node16 -->
<g id="edge70" class="edge"><title>Node35&#45;&gt;Node16</title>
<path fill="none" stroke="midnightblue" d="M1441.41,-231.106C1402.69,-227.551 1337.4,-217.335 1290,-188 1270.82,-176.13 1254.97,-155.32 1245.29,-140.442"/>
<polygon fill="midnightblue" stroke="midnightblue" points="1248.09,-138.326 1239.84,-131.676 1242.14,-142.018 1248.09,-138.326"/>
</g>
<!-- Node35&#45;&gt;Node19 -->
<g id="edge73" class="edge"><title>Node35&#45;&gt;Node19</title>
<path fill="none" stroke="midnightblue" d="M1461.96,-224.309C1424.7,-197.416 1310.99,-115.352 1264.32,-81.6665"/>
<polygon fill="midnightblue" stroke="midnightblue" points="1266.08,-78.6195 1255.92,-75.6051 1261.98,-84.2955 1266.08,-78.6195"/>
</g>
<!-- Node36&#45;&gt;Node5 -->
<g id="edge80" class="edge"><title>Node36&#45;&gt;Node5</title>
<path fill="none" stroke="midnightblue" d="M1120.48,-281.313C1117.28,-280.822 1114.09,-280.374 1111,-280 843.59,-247.609 765.819,-315.073 506,-244 405.857,-216.606 352.71,-222.029 301,-132 292.459,-117.13 299.581,-98.0002 307.241,-84.3517"/>
<polygon fill="midnightblue" stroke="midnightblue" points="310.418,-85.8682 312.697,-75.5214 304.463,-82.1888 310.418,-85.8682"/>
</g>
<!-- Node36&#45;&gt;Node6 -->
<g id="edge77" class="edge"><title>Node36&#45;&gt;Node6</title>
<path fill="none" stroke="midnightblue" d="M1120.1,-281.674C993.85,-258.49 611.331,-188.232 611,-188 574.881,-162.7 554.338,-112.663 545.406,-85.534"/>
<polygon fill="midnightblue" stroke="midnightblue" points="548.675,-84.2603 542.364,-75.75 541.991,-86.3382 548.675,-84.2603"/>
</g>
<!-- Node36&#45;&gt;Node7 -->
<g id="edge78" class="edge"><title>Node36&#45;&gt;Node7</title>
<path fill="none" stroke="midnightblue" d="M1120.48,-281.341C1117.28,-280.843 1114.09,-280.387 1111,-280 875.41,-250.506 809.688,-295.894 578,-244 511.395,-229.082 495.705,-219.204 435,-188 405.775,-172.977 374.355,-151.602 354.693,-137.522"/>
<polygon fill="midnightblue" stroke="midnightblue" points="356.688,-134.646 346.536,-131.616 352.583,-140.316 356.688,-134.646"/>
</g>
<!-- Node36&#45;&gt;Node9 -->
<g id="edge79" class="edge"><title>Node36&#45;&gt;Node9</title>
<path fill="none" stroke="midnightblue" d="M1199.72,-285.926C1265.68,-280.383 1401.78,-267.092 1515,-244 1693.8,-207.535 1794.46,-273.239 1910,-132 1920.4,-119.281 1920.62,-100.082 1918.85,-85.8439"/>
<polygon fill="midnightblue" stroke="midnightblue" points="1922.26,-84.9987 1917.17,-75.7075 1915.35,-86.1459 1922.26,-84.9987"/>
</g>
<!-- Node36&#45;&gt;Node18 -->
<g id="edge82" class="edge"><title>Node36&#45;&gt;Node18</title>
<path fill="none" stroke="midnightblue" d="M1172.25,-280.309C1210.24,-253.36 1326.32,-171.01 1373.62,-137.457"/>
<polygon fill="midnightblue" stroke="midnightblue" points="1375.74,-140.246 1381.87,-131.605 1371.69,-134.536 1375.74,-140.246"/>
</g>
<!-- Node36&#45;&gt;Node19 -->
<g id="edge76" class="edge"><title>Node36&#45;&gt;Node19</title>
<path fill="none" stroke="midnightblue" d="M1160.49,-280.341C1162.33,-253.671 1170.37,-171.015 1202,-112 1207.97,-100.865 1217.38,-90.4174 1225.78,-82.3973"/>
<polygon fill="midnightblue" stroke="midnightblue" points="1228.33,-84.817 1233.39,-75.5085 1223.63,-79.6299 1228.33,-84.817"/>
</g>
<!-- Node36&#45;&gt;Node35 -->
<g id="edge81" class="edge"><title>Node36&#45;&gt;Node35</title>
<path fill="none" stroke="midnightblue" d="M1199.77,-282.161C1259.05,-271.966 1370.14,-252.862 1431.15,-242.369"/>
<polygon fill="midnightblue" stroke="midnightblue" points="1431.96,-245.782 1441.22,-240.637 1430.77,-238.883 1431.96,-245.782"/>
</g>
</g>
</svg>
