<?xml version="1.0" encoding="UTF-8" standalone="no"?>
<!DOCTYPE svg PUBLIC "-//W3C//DTD SVG 1.1//EN"
 "http://www.w3.org/Graphics/SVG/1.1/DTD/svg11.dtd">
<!-- Generated by graphviz version 2.36.0 (20140111.2315)
 -->
<!-- Title: IControl Pages: 1 -->
<svg width="394pt" height="1199pt"
 viewBox="0.00 0.00 394.00 1199.00" xmlns="http://www.w3.org/2000/svg" xmlns:xlink="http://www.w3.org/1999/xlink">
<g id="graph0" class="graph" transform="scale(1 1) rotate(0) translate(4 1195)">
<title>IControl</title>
<polygon fill="white" stroke="none" points="-4,4 -4,-1195 390,-1195 390,4 -4,4"/>
<!-- Node1 -->
<g id="node1" class="node"><title>Node1</title>
<polygon fill="#bfbfbf" stroke="black" points="0.5,-544.5 0.5,-563.5 51.5,-563.5 51.5,-544.5 0.5,-544.5"/>
<text text-anchor="middle" x="26" y="-551.5" font-family="Helvetica,sans-Serif" font-size="10.00">IControl</text>
</g>
<!-- Node2 -->
<g id="node2" class="node"><title>Node2</title>
<g id="a_node2"><a xlink:href="class_i_bitmap_control.html" target="_top" xlink:title="A basic control to draw a bitmap, or one frame of a stacked bitmap depending on the current value...">
<polygon fill="white" stroke="black" points="114,-1152.5 114,-1171.5 196,-1171.5 196,-1152.5 114,-1152.5"/>
<text text-anchor="middle" x="155" y="-1159.5" font-family="Helvetica,sans-Serif" font-size="10.00">IBitmapControl</text>
</a>
</g>
</g>
<!-- Node1&#45;&gt;Node2 -->
<g id="edge1" class="edge"><title>Node1&#45;&gt;Node2</title>
<path fill="none" stroke="midnightblue" d="M26.7702,-573.905C26.082,-663.678 27.0997,-1030.54 88,-1124 96.6619,-1137.29 111.705,-1146.47 125.244,-1152.48"/>
<polygon fill="midnightblue" stroke="midnightblue" points="30.2715,-573.776 26.8656,-563.744 23.2718,-573.71 30.2715,-573.776"/>
</g>
<!-- Node4 -->
<g id="node4" class="node"><title>Node4</title>
<g id="a_node4"><a xlink:href="class_i_button_control_base.html" target="_top" xlink:title="A base class for buttons/momentary switches &#45; cannot be linked to parameters. ">
<polygon fill="white" stroke="black" points="104,-1095.5 104,-1114.5 206,-1114.5 206,-1095.5 104,-1095.5"/>
<text text-anchor="middle" x="155" y="-1102.5" font-family="Helvetica,sans-Serif" font-size="10.00">IButtonControlBase</text>
</a>
</g>
</g>
<!-- Node1&#45;&gt;Node4 -->
<g id="edge3" class="edge"><title>Node1&#45;&gt;Node4</title>
<path fill="none" stroke="midnightblue" d="M28.022,-573.884C32.3215,-653.012 50.4798,-945.298 88,-1029 100.509,-1056.91 126.758,-1082.17 142.116,-1095.37"/>
<polygon fill="midnightblue" stroke="midnightblue" points="31.5123,-573.607 27.4875,-563.806 24.5221,-573.977 31.5123,-573.607"/>
</g>
<!-- Node7 -->
<g id="node7" class="node"><title>Node7</title>
<g id="a_node7"><a xlink:href="class_i_color_picker_control.html" target="_top" xlink:title="A control for choosing a color. ">
<polygon fill="white" stroke="black" points="104,-1000.5 104,-1019.5 206,-1019.5 206,-1000.5 104,-1000.5"/>
<text text-anchor="middle" x="155" y="-1007.5" font-family="Helvetica,sans-Serif" font-size="10.00">IColorPickerControl</text>
</a>
</g>
</g>
<!-- Node1&#45;&gt;Node7 -->
<g id="edge6" class="edge"><title>Node1&#45;&gt;Node7</title>
<path fill="none" stroke="midnightblue" d="M27.0053,-574.012C27.4333,-651.066 32.851,-927.431 88,-991 92.2975,-995.954 97.7949,-999.656 103.778,-1002.42"/>
<polygon fill="midnightblue" stroke="midnightblue" points="30.5046,-573.765 26.9728,-563.777 23.5047,-573.788 30.5046,-573.765"/>
</g>
<!-- Node8 -->
<g id="node8" class="node"><title>Node8</title>
<g id="a_node8"><a xlink:href="class_i_corner_resizer_control.html" target="_top" xlink:title="A control for resizing the plug&#45;in window by clicking and dragging in the bottom right&#45;hand corner Th...">
<polygon fill="white" stroke="black" points="98,-962.5 98,-981.5 212,-981.5 212,-962.5 98,-962.5"/>
<text text-anchor="middle" x="155" y="-969.5" font-family="Helvetica,sans-Serif" font-size="10.00">ICornerResizerControl</text>
</a>
</g>
</g>
<!-- Node1&#45;&gt;Node8 -->
<g id="edge7" class="edge"><title>Node1&#45;&gt;Node8</title>
<path fill="none" stroke="midnightblue" d="M27.2932,-573.653C28.7686,-645.898 37.4972,-895.546 88,-953 91.385,-956.851 95.495,-959.944 99.9909,-962.426"/>
<polygon fill="midnightblue" stroke="midnightblue" points="30.7925,-573.574 27.1134,-563.638 23.7936,-573.699 30.7925,-573.574"/>
</g>
<!-- Node9 -->
<g id="node9" class="node"><title>Node9</title>
<g id="a_node9"><a xlink:href="class_i_dir_browse_control_base.html" target="_top" xlink:title="An abstract IControl base class that you can inherit from in order to make a control that pops up a m...">
<polygon fill="white" stroke="black" points="95.5,-924.5 95.5,-943.5 214.5,-943.5 214.5,-924.5 95.5,-924.5"/>
<text text-anchor="middle" x="155" y="-931.5" font-family="Helvetica,sans-Serif" font-size="10.00">IDirBrowseControlBase</text>
</a>
</g>
</g>
<!-- Node1&#45;&gt;Node9 -->
<g id="edge8" class="edge"><title>Node1&#45;&gt;Node9</title>
<path fill="none" stroke="midnightblue" d="M27.6533,-573.932C30.2839,-641.99 42.2745,-863.797 88,-915 91.4151,-918.824 95.5451,-921.9 100.053,-924.37"/>
<polygon fill="midnightblue" stroke="midnightblue" points="31.1435,-573.595 27.286,-563.727 24.148,-573.847 31.1435,-573.595"/>
</g>
<!-- Node11 -->
<g id="node11" class="node"><title>Node11</title>
<g id="a_node11"><a xlink:href="class_i_f_p_s_display_control.html" target="_top" xlink:title="Performance display meter, based on code from NanoVG This is a special control that lives outside the...">
<polygon fill="white" stroke="black" points="103,-886.5 103,-905.5 207,-905.5 207,-886.5 103,-886.5"/>
<text text-anchor="middle" x="155" y="-893.5" font-family="Helvetica,sans-Serif" font-size="10.00">IFPSDisplayControl</text>
</a>
</g>
</g>
<!-- Node1&#45;&gt;Node11 -->
<g id="edge10" class="edge"><title>Node1&#45;&gt;Node11</title>
<path fill="none" stroke="midnightblue" d="M28.0836,-573.849C31.9269,-637.024 46.9484,-831.912 88,-877 92.094,-881.497 97.1762,-884.956 102.69,-887.612"/>
<polygon fill="midnightblue" stroke="midnightblue" points="31.5654,-573.433 27.4923,-563.652 24.5771,-573.838 31.5654,-573.433"/>
</g>
<!-- Node12 -->
<g id="node12" class="node"><title>Node12</title>
<g id="a_node12"><a xlink:href="class_i_graphics_live_edit.html" target="_top" xlink:title="A control to enable live modification of control layout in an IGraphics context in debug builds This ...">
<polygon fill="white" stroke="black" points="108,-848.5 108,-867.5 202,-867.5 202,-848.5 108,-848.5"/>
<text text-anchor="middle" x="155" y="-855.5" font-family="Helvetica,sans-Serif" font-size="10.00">IGraphicsLiveEdit</text>
</a>
</g>
</g>
<!-- Node1&#45;&gt;Node12 -->
<g id="edge11" class="edge"><title>Node1&#45;&gt;Node12</title>
<path fill="none" stroke="midnightblue" d="M28.621,-573.756C33.7692,-631.766 51.5966,-799.977 88,-839 93.3681,-844.754 100.355,-848.805 107.77,-851.647"/>
<polygon fill="midnightblue" stroke="midnightblue" points="32.0999,-573.359 27.7586,-563.694 25.1254,-573.957 32.0999,-573.359"/>
</g>
<!-- Node13 -->
<g id="node13" class="node"><title>Node13</title>
<g id="a_node13"><a xlink:href="class_i_knob_control_base.html" target="_top" xlink:title="A base class for knob/dial controls, to handle mouse action and ballistics. ">
<polygon fill="white" stroke="black" points="107,-810.5 107,-829.5 203,-829.5 203,-810.5 107,-810.5"/>
<text text-anchor="middle" x="155" y="-817.5" font-family="Helvetica,sans-Serif" font-size="10.00">IKnobControlBase</text>
</a>
</g>
</g>
<!-- Node1&#45;&gt;Node13 -->
<g id="edge12" class="edge"><title>Node1&#45;&gt;Node13</title>
<path fill="none" stroke="midnightblue" d="M29.3367,-573.842C35.9234,-626.501 56.2523,-768.016 88,-801 93.2094,-806.412 99.8518,-810.311 106.907,-813.114"/>
<polygon fill="midnightblue" stroke="midnightblue" points="32.7927,-573.267 28.1097,-563.763 25.844,-574.113 32.7927,-573.267"/>
</g>
<!-- Node24 -->
<g id="node24" class="node"><title>Node24</title>
<g id="a_node24"><a xlink:href="class_i_lambda_control.html" target="_top" xlink:title="A control that can be specialised with a lamda function, for quick experiments without making a custo...">
<polygon fill="white" stroke="black" points="112,-772.5 112,-791.5 198,-791.5 198,-772.5 112,-772.5"/>
<text text-anchor="middle" x="155" y="-779.5" font-family="Helvetica,sans-Serif" font-size="10.00">ILambdaControl</text>
</a>
</g>
</g>
<!-- Node1&#45;&gt;Node24 -->
<g id="edge23" class="edge"><title>Node1&#45;&gt;Node24</title>
<path fill="none" stroke="midnightblue" d="M26.8266,-574.112C27.6,-615.471 35.3774,-710.571 88,-763 94.504,-769.48 103.066,-773.781 111.861,-776.627"/>
<polygon fill="midnightblue" stroke="midnightblue" points="30.3256,-573.929 26.7628,-563.952 23.3258,-573.973 30.3256,-573.929"/>
</g>
<!-- Node25 -->
<g id="node25" class="node"><title>Node25</title>
<g id="a_node25"><a xlink:href="class_i_panel_control.html" target="_top" xlink:title="A basic control to fill a rectangle with a color or gradient. ">
<polygon fill="white" stroke="black" points="117,-734.5 117,-753.5 193,-753.5 193,-734.5 117,-734.5"/>
<text text-anchor="middle" x="155" y="-741.5" font-family="Helvetica,sans-Serif" font-size="10.00">IPanelControl</text>
</a>
</g>
</g>
<!-- Node1&#45;&gt;Node25 -->
<g id="edge24" class="edge"><title>Node1&#45;&gt;Node25</title>
<path fill="none" stroke="midnightblue" d="M28.3479,-573.839C31.8418,-609.353 44.2629,-683.908 88,-725 95.9079,-732.43 106.533,-736.978 116.945,-739.755"/>
<polygon fill="midnightblue" stroke="midnightblue" points="31.827,-573.443 27.4988,-563.772 24.8517,-574.031 31.827,-573.443"/>
</g>
<!-- Node26 -->
<g id="node26" class="node"><title>Node26</title>
<g id="a_node26"><a xlink:href="class_i_popup_menu_control.html" target="_top" xlink:title="A base control for a pop&#45;up menu/drop&#45;down list that stays within the bounds of the IGraphics context...">
<polygon fill="white" stroke="black" points="103.5,-696.5 103.5,-715.5 206.5,-715.5 206.5,-696.5 103.5,-696.5"/>
<text text-anchor="middle" x="155" y="-703.5" font-family="Helvetica,sans-Serif" font-size="10.00">IPopupMenuControl</text>
</a>
</g>
</g>
<!-- Node1&#45;&gt;Node26 -->
<g id="edge25" class="edge"><title>Node1&#45;&gt;Node26</title>
<path fill="none" stroke="midnightblue" d="M30.6674,-573.847C37.089,-602.956 53.1515,-657.014 88,-687 92.5191,-690.889 97.7907,-693.983 103.348,-696.445"/>
<polygon fill="midnightblue" stroke="midnightblue" points="34.0237,-572.789 28.5983,-563.688 27.1646,-574.186 34.0237,-572.789"/>
</g>
<!-- Node27 -->
<g id="node27" class="node"><title>Node27</title>
<g id="a_node27"><a xlink:href="class_i_slider_control_base.html" target="_top" xlink:title="A base class for slider/fader controls, to handle mouse action and ballistics. ">
<polygon fill="white" stroke="black" points="106,-658.5 106,-677.5 204,-677.5 204,-658.5 106,-658.5"/>
<text text-anchor="middle" x="155" y="-665.5" font-family="Helvetica,sans-Serif" font-size="10.00">ISliderControlBase</text>
</a>
</g>
</g>
<!-- Node1&#45;&gt;Node27 -->
<g id="edge26" class="edge"><title>Node1&#45;&gt;Node27</title>
<path fill="none" stroke="midnightblue" d="M34.3767,-573.15C43.6638,-594.739 61.6573,-629.381 88,-649 93.3552,-652.988 99.5257,-656.141 105.899,-658.633"/>
<polygon fill="midnightblue" stroke="midnightblue" points="37.5455,-571.652 30.5185,-563.723 31.0671,-574.303 37.5455,-571.652"/>
</g>
<!-- Node30 -->
<g id="node30" class="node"><title>Node30</title>
<g id="a_node30"><a xlink:href="class_i_s_v_g_control.html" target="_top" xlink:title="A basic control to draw an SVG image to the screen. ">
<polygon fill="white" stroke="black" points="119,-620.5 119,-639.5 191,-639.5 191,-620.5 119,-620.5"/>
<text text-anchor="middle" x="155" y="-627.5" font-family="Helvetica,sans-Serif" font-size="10.00">ISVGControl</text>
</a>
</g>
</g>
<!-- Node1&#45;&gt;Node30 -->
<g id="edge29" class="edge"><title>Node1&#45;&gt;Node30</title>
<path fill="none" stroke="midnightblue" d="M41.2969,-571.173C52.7248,-583.868 69.7976,-600.677 88,-611 97.4383,-616.353 108.506,-620.301 118.853,-623.167"/>
<polygon fill="midnightblue" stroke="midnightblue" points="43.8527,-568.778 34.6471,-563.533 38.5728,-573.374 43.8527,-568.778"/>
</g>
<!-- Node31 -->
<g id="node31" class="node"><title>Node31</title>
<g id="a_node31"><a xlink:href="class_i_switch_control_base.html" target="_top" xlink:title="A base class for switch controls. ">
<polygon fill="white" stroke="black" points="103,-582.5 103,-601.5 207,-601.5 207,-582.5 103,-582.5"/>
<text text-anchor="middle" x="155" y="-589.5" font-family="Helvetica,sans-Serif" font-size="10.00">ISwitchControlBase</text>
</a>
</g>
</g>
<!-- Node1&#45;&gt;Node31 -->
<g id="edge30" class="edge"><title>Node1&#45;&gt;Node31</title>
<path fill="none" stroke="midnightblue" d="M61.4083,-564.86C70.0763,-567.557 79.3702,-570.414 88,-573 98.5082,-576.149 109.988,-579.488 120.383,-582.475"/>
<polygon fill="midnightblue" stroke="midnightblue" points="62.1864,-561.436 51.5976,-561.795 60.0985,-568.118 62.1864,-561.436"/>
</g>
<!-- Node34 -->
<g id="node34" class="node"><title>Node34</title>
<g id="a_node34"><a xlink:href="class_i_text_control.html" target="_top" xlink:title="A basic control to display some text. ">
<polygon fill="white" stroke="red" points="119.5,-544.5 119.5,-563.5 190.5,-563.5 190.5,-544.5 119.5,-544.5"/>
<text text-anchor="middle" x="155" y="-551.5" font-family="Helvetica,sans-Serif" font-size="10.00">ITextControl</text>
</a>
</g>
</g>
<!-- Node1&#45;&gt;Node34 -->
<g id="edge33" class="edge"><title>Node1&#45;&gt;Node34</title>
<path fill="none" stroke="midnightblue" d="M61.7978,-554C79.6486,-554 101.332,-554 119.185,-554"/>
<polygon fill="midnightblue" stroke="midnightblue" points="61.7884,-550.5 51.7884,-554 61.7883,-557.5 61.7884,-550.5"/>
</g>
<!-- Node36 -->
<g id="node36" class="node"><title>Node36</title>
<g id="a_node36"><a xlink:href="class_i_text_entry_control.html" target="_top" xlink:title="A Text entry widget drawn by IGraphics. ">
<polygon fill="white" stroke="black" points="108,-506.5 108,-525.5 202,-525.5 202,-506.5 108,-506.5"/>
<text text-anchor="middle" x="155" y="-513.5" font-family="Helvetica,sans-Serif" font-size="10.00">ITextEntryControl</text>
</a>
</g>
</g>
<!-- Node1&#45;&gt;Node36 -->
<g id="edge35" class="edge"><title>Node1&#45;&gt;Node36</title>
<path fill="none" stroke="midnightblue" d="M61.4083,-543.14C70.0763,-540.443 79.3702,-537.586 88,-535 98.5082,-531.851 109.988,-528.512 120.383,-525.525"/>
<polygon fill="midnightblue" stroke="midnightblue" points="60.0985,-539.882 51.5976,-546.205 62.1864,-546.564 60.0985,-539.882"/>
</g>
<!-- Node37 -->
<g id="node37" class="node"><title>Node37</title>
<g id="a_node37"><a xlink:href="class_i_v_keyboard_control.html" target="_top" xlink:title="Vectorial keyboard control. ">
<polygon fill="white" stroke="black" points="105.5,-468.5 105.5,-487.5 204.5,-487.5 204.5,-468.5 105.5,-468.5"/>
<text text-anchor="middle" x="155" y="-475.5" font-family="Helvetica,sans-Serif" font-size="10.00">IVKeyboardControl</text>
</a>
</g>
</g>
<!-- Node1&#45;&gt;Node37 -->
<g id="edge36" class="edge"><title>Node1&#45;&gt;Node37</title>
<path fill="none" stroke="midnightblue" d="M41.2969,-536.827C52.7248,-524.132 69.7976,-507.323 88,-497 94.7416,-493.177 102.315,-490.07 109.862,-487.562"/>
<polygon fill="midnightblue" stroke="midnightblue" points="38.5728,-534.626 34.6471,-544.467 43.8527,-539.222 38.5728,-534.626"/>
</g>
<!-- Node38 -->
<g id="node38" class="node"><title>Node38</title>
<g id="a_node38"><a xlink:href="class_i_v_scope_control.html" target="_top" xlink:title="Vectorial multichannel capable oscilloscope control. ">
<polygon fill="white" stroke="black" points="88,-419 88,-449 222,-449 222,-419 88,-419"/>
<text text-anchor="start" x="96" y="-437" font-family="Helvetica,sans-Serif" font-size="10.00">IVScopeControl&lt; MAXNC,</text>
<text text-anchor="middle" x="155" y="-426" font-family="Helvetica,sans-Serif" font-size="10.00"> MAXBUF &gt;</text>
</a>
</g>
</g>
<!-- Node1&#45;&gt;Node38 -->
<g id="edge37" class="edge"><title>Node1&#45;&gt;Node38</title>
<path fill="none" stroke="midnightblue" d="M34.6716,-535.23C44.2331,-513.993 62.4814,-479.68 88,-459 92.7597,-455.143 98.1779,-451.839 103.816,-449.019"/>
<polygon fill="midnightblue" stroke="midnightblue" points="31.4255,-533.919 30.6818,-544.488 37.8539,-536.689 31.4255,-533.919"/>
</g>
<!-- Node39 -->
<g id="node39" class="node"><title>Node39</title>
<g id="a_node39"><a xlink:href="class_i_v_track_control_base.html" target="_top" xlink:title="A base class for mult&#45;strip/track controls, such as multi&#45;sliders, meters. ">
<polygon fill="white" stroke="red" points="102.5,-380.5 102.5,-399.5 207.5,-399.5 207.5,-380.5 102.5,-380.5"/>
<text text-anchor="middle" x="155" y="-387.5" font-family="Helvetica,sans-Serif" font-size="10.00">IVTrackControlBase</text>
</a>
</g>
</g>
<!-- Node1&#45;&gt;Node39 -->
<g id="edge38" class="edge"><title>Node1&#45;&gt;Node39</title>
<path fill="none" stroke="midnightblue" d="M29.9115,-534.341C35.5284,-503.409 50.773,-443.461 88,-410 92.8085,-405.678 98.525,-402.289 104.553,-399.633"/>
<polygon fill="midnightblue" stroke="midnightblue" points="26.4397,-533.884 28.2549,-544.322 33.3452,-535.03 26.4397,-533.884"/>
</g>
<!-- Node40 -->
<g id="node40" class="node"><title>Node40</title>
<g id="a_node40"><a xlink:href="class_test_animation_control.html" target="_top" xlink:title="Control to test animation. ">
<polygon fill="white" stroke="black" points="99.5,-342.5 99.5,-361.5 210.5,-361.5 210.5,-342.5 99.5,-342.5"/>
<text text-anchor="middle" x="155" y="-349.5" font-family="Helvetica,sans-Serif" font-size="10.00">TestAnimationControl</text>
</a>
</g>
</g>
<!-- Node1&#45;&gt;Node40 -->
<g id="edge39" class="edge"><title>Node1&#45;&gt;Node40</title>
<path fill="none" stroke="midnightblue" d="M27.7893,-534.354C30.3695,-497.063 41.3516,-415.754 88,-371 92.044,-367.12 96.8277,-364.025 101.943,-361.556"/>
<polygon fill="midnightblue" stroke="midnightblue" points="24.29,-534.246 27.2281,-544.425 31.2792,-534.635 24.29,-534.246"/>
</g>
<!-- Node41 -->
<g id="node41" class="node"><title>Node41</title>
<g id="a_node41"><a xlink:href="class_test_color_control.html" target="_top" xlink:title="Control to colors. ">
<polygon fill="white" stroke="black" points="109.5,-304.5 109.5,-323.5 200.5,-323.5 200.5,-304.5 109.5,-304.5"/>
<text text-anchor="middle" x="155" y="-311.5" font-family="Helvetica,sans-Serif" font-size="10.00">TestColorControl</text>
</a>
</g>
</g>
<!-- Node1&#45;&gt;Node41 -->
<g id="edge40" class="edge"><title>Node1&#45;&gt;Node41</title>
<path fill="none" stroke="midnightblue" d="M26.4413,-534.241C26.3497,-491.389 32.3632,-389.251 88,-333 93.8694,-327.066 101.464,-322.956 109.401,-320.117"/>
<polygon fill="midnightblue" stroke="midnightblue" points="22.9446,-534.502 26.5869,-544.451 29.9439,-534.402 22.9446,-534.502"/>
</g>
<!-- Node42 -->
<g id="node42" class="node"><title>Node42</title>
<g id="a_node42"><a xlink:href="class_test_cursor_control.html" target="_top" xlink:title="Control to test changing the platform cursor. ">
<polygon fill="white" stroke="black" points="106.5,-266.5 106.5,-285.5 203.5,-285.5 203.5,-266.5 106.5,-266.5"/>
<text text-anchor="middle" x="155" y="-273.5" font-family="Helvetica,sans-Serif" font-size="10.00">TestCursorControl</text>
</a>
</g>
</g>
<!-- Node1&#45;&gt;Node42 -->
<g id="edge41" class="edge"><title>Node1&#45;&gt;Node42</title>
<path fill="none" stroke="midnightblue" d="M29.0771,-534.285C35.1832,-479.974 54.7657,-329.904 88,-295 93.0156,-289.732 99.3883,-285.896 106.187,-283.109"/>
<polygon fill="midnightblue" stroke="midnightblue" points="25.5848,-534.024 27.9786,-544.345 32.5435,-534.784 25.5848,-534.024"/>
</g>
<!-- Node43 -->
<g id="node43" class="node"><title>Node43</title>
<g id="a_node43"><a xlink:href="class_test_draw_context_control.html" target="_top" xlink:title="Control to test obtaining a drawing API (NanoVG, LICE, Cairo, AGG etc) context and using that API wit...">
<polygon fill="white" stroke="black" points="92.5,-228.5 92.5,-247.5 217.5,-247.5 217.5,-228.5 92.5,-228.5"/>
<text text-anchor="middle" x="155" y="-235.5" font-family="Helvetica,sans-Serif" font-size="10.00">TestDrawContextControl</text>
</a>
</g>
</g>
<!-- Node1&#45;&gt;Node43 -->
<g id="edge42" class="edge"><title>Node1&#45;&gt;Node43</title>
<path fill="none" stroke="midnightblue" d="M28.4387,-534.195C33.166,-474.504 50.1357,-297.928 88,-257 91.5628,-253.149 95.8507,-250.06 100.509,-247.586"/>
<polygon fill="midnightblue" stroke="midnightblue" points="24.9454,-533.975 27.675,-544.212 31.9252,-534.507 24.9454,-533.975"/>
</g>
<!-- Node44 -->
<g id="node44" class="node"><title>Node44</title>
<g id="a_node44"><a xlink:href="class_test_drop_shadow_control.html" target="_top" xlink:title="Control to test layer drop shadows. ">
<polygon fill="white" stroke="black" points="93,-190.5 93,-209.5 217,-209.5 217,-190.5 93,-190.5"/>
<text text-anchor="middle" x="155" y="-197.5" font-family="Helvetica,sans-Serif" font-size="10.00">TestDropShadowControl</text>
</a>
</g>
</g>
<!-- Node1&#45;&gt;Node44 -->
<g id="edge43" class="edge"><title>Node1&#45;&gt;Node44</title>
<path fill="none" stroke="midnightblue" d="M27.9308,-534.254C31.37,-469.652 45.4464,-266.046 88,-219 91.5194,-215.109 95.7787,-211.994 100.42,-209.504"/>
<polygon fill="midnightblue" stroke="midnightblue" points="24.4312,-534.159 27.4225,-544.323 31.4223,-534.512 24.4312,-534.159"/>
</g>
<!-- Node45 -->
<g id="node45" class="node"><title>Node45</title>
<g id="a_node45"><a xlink:href="class_test_image_control.html" target="_top" xlink:title="Control to test drawing bitmaps. ">
<polygon fill="white" stroke="black" points="107.5,-152.5 107.5,-171.5 202.5,-171.5 202.5,-152.5 107.5,-152.5"/>
<text text-anchor="middle" x="155" y="-159.5" font-family="Helvetica,sans-Serif" font-size="10.00">TestImageControl</text>
</a>
</g>
</g>
<!-- Node1&#45;&gt;Node45 -->
<g id="edge44" class="edge"><title>Node1&#45;&gt;Node45</title>
<path fill="none" stroke="midnightblue" d="M27.5262,-534.3C29.772,-465.064 40.7356,-234.209 88,-181 93.1471,-175.206 99.9354,-171.129 107.2,-168.271"/>
<polygon fill="midnightblue" stroke="midnightblue" points="24.0277,-534.202 27.2274,-544.302 31.0246,-534.411 24.0277,-534.202"/>
</g>
<!-- Node46 -->
<g id="node46" class="node"><title>Node46</title>
<g id="a_node46"><a xlink:href="class_test_keyboard_control.html" target="_top" xlink:title="Control to test keyboard input. ">
<polygon fill="white" stroke="black" points="100.5,-114.5 100.5,-133.5 209.5,-133.5 209.5,-114.5 100.5,-114.5"/>
<text text-anchor="middle" x="155" y="-121.5" font-family="Helvetica,sans-Serif" font-size="10.00">TestKeyboardControl</text>
</a>
</g>
</g>
<!-- Node1&#45;&gt;Node46 -->
<g id="edge45" class="edge"><title>Node1&#45;&gt;Node46</title>
<path fill="none" stroke="midnightblue" d="M27.1976,-534.243C28.336,-460.479 36.029,-202.385 88,-143 91.4551,-139.052 95.6723,-135.9 100.287,-133.387"/>
<polygon fill="midnightblue" stroke="midnightblue" points="23.6954,-534.396 27.0654,-544.441 30.6949,-534.487 23.6954,-534.396"/>
</g>
<!-- Node47 -->
<g id="node47" class="node"><title>Node47</title>
<g id="a_node47"><a xlink:href="class_test_size_control.html" target="_top" xlink:title="Control to display the size of a region. ">
<polygon fill="white" stroke="black" points="111.5,-76.5 111.5,-95.5 198.5,-95.5 198.5,-76.5 111.5,-76.5"/>
<text text-anchor="middle" x="155" y="-83.5" font-family="Helvetica,sans-Serif" font-size="10.00">TestSizeControl</text>
</a>
</g>
</g>
<!-- Node1&#45;&gt;Node47 -->
<g id="edge46" class="edge"><title>Node1&#45;&gt;Node47</title>
<path fill="none" stroke="midnightblue" d="M26.9222,-533.954C27.0271,-455.519 31.3624,-170.527 88,-105 94.0818,-97.9637 102.585,-93.4512 111.468,-90.5779"/>
<polygon fill="midnightblue" stroke="midnightblue" points="23.4225,-534.346 26.933,-544.343 30.4225,-534.339 23.4225,-534.346"/>
</g>
<!-- Node48 -->
<g id="node48" class="node"><title>Node48</title>
<g id="a_node48"><a xlink:href="class_test_s_v_g_control.html" target="_top" xlink:title="Control to test drawing SVGs. ">
<polygon fill="white" stroke="black" points="110.5,-38.5 110.5,-57.5 199.5,-57.5 199.5,-38.5 110.5,-38.5"/>
<text text-anchor="middle" x="155" y="-45.5" font-family="Helvetica,sans-Serif" font-size="10.00">TestSVGControl</text>
</a>
</g>
</g>
<!-- Node1&#45;&gt;Node48 -->
<g id="edge47" class="edge"><title>Node1&#45;&gt;Node48</title>
<path fill="none" stroke="midnightblue" d="M26.6842,-533.871C25.8003,-451.199 26.6342,-138.749 88,-67 93.8126,-60.2039 101.884,-55.7591 110.392,-52.8712"/>
<polygon fill="midnightblue" stroke="midnightblue" points="23.1906,-534.391 26.8201,-544.345 30.19,-534.301 23.1906,-534.391"/>
</g>
<!-- Node49 -->
<g id="node49" class="node"><title>Node49</title>
<g id="a_node49"><a xlink:href="class_test_text_control.html" target="_top" xlink:title="Control to test drawing text. ">
<polygon fill="white" stroke="black" points="111.5,-0.5 111.5,-19.5 198.5,-19.5 198.5,-0.5 111.5,-0.5"/>
<text text-anchor="middle" x="155" y="-7.5" font-family="Helvetica,sans-Serif" font-size="10.00">TestTextControl</text>
</a>
</g>
</g>
<!-- Node1&#45;&gt;Node49 -->
<g id="edge48" class="edge"><title>Node1&#45;&gt;Node49</title>
<path fill="none" stroke="midnightblue" d="M28.0063,-534.359C32.8195,-443.691 54.645,-68.3535 88,-29 94.0134,-21.9051 102.49,-17.3698 111.369,-14.493"/>
<polygon fill="midnightblue" stroke="midnightblue" points="24.5093,-534.212 27.4825,-544.381 31.4997,-534.578 24.5093,-534.212"/>
</g>
<!-- Node3 -->
<g id="node3" class="node"><title>Node3</title>
<g id="a_node3"><a xlink:href="class_i_b_switch_control.html" target="_top" xlink:title="A bitmap switch control. ">
<polygon fill="white" stroke="black" points="278,-1171.5 278,-1190.5 366,-1190.5 366,-1171.5 278,-1171.5"/>
<text text-anchor="middle" x="322" y="-1178.5" font-family="Helvetica,sans-Serif" font-size="10.00">IBSwitchControl</text>
</a>
</g>
</g>
<!-- Node2&#45;&gt;Node3 -->
<g id="edge2" class="edge"><title>Node2&#45;&gt;Node3</title>
<path fill="none" stroke="midnightblue" d="M206.543,-1167.82C229.356,-1170.45 256.025,-1173.52 277.878,-1176.03"/>
<polygon fill="midnightblue" stroke="midnightblue" points="206.698,-1164.31 196.364,-1166.65 205.897,-1171.27 206.698,-1164.31"/>
</g>
<!-- Node5 -->
<g id="node5" class="node"><title>Node5</title>
<g id="a_node5"><a xlink:href="class_i_b_button_control.html" target="_top" xlink:title="A bitmap button/momentary switch control. ">
<polygon fill="white" stroke="black" points="279,-1133.5 279,-1152.5 365,-1152.5 365,-1133.5 279,-1133.5"/>
<text text-anchor="middle" x="322" y="-1140.5" font-family="Helvetica,sans-Serif" font-size="10.00">IBButtonControl</text>
</a>
</g>
</g>
<!-- Node4&#45;&gt;Node5 -->
<g id="edge4" class="edge"><title>Node4&#45;&gt;Node5</title>
<path fill="none" stroke="midnightblue" d="M207.654,-1116.9C230.846,-1122.24 257.838,-1128.45 279.663,-1133.48"/>
<polygon fill="midnightblue" stroke="midnightblue" points="208.167,-1113.42 197.636,-1114.59 206.596,-1120.24 208.167,-1113.42"/>
</g>
<!-- Node6 -->
<g id="node6" class="node"><title>Node6</title>
<g id="a_node6"><a xlink:href="class_i_v_button_control.html" target="_top" xlink:title="A vector button/momentary switch control. ">
<polygon fill="white" stroke="black" points="279,-1095.5 279,-1114.5 365,-1114.5 365,-1095.5 279,-1095.5"/>
<text text-anchor="middle" x="322" y="-1102.5" font-family="Helvetica,sans-Serif" font-size="10.00">IVButtonControl</text>
</a>
</g>
</g>
<!-- Node4&#45;&gt;Node6 -->
<g id="edge5" class="edge"><title>Node4&#45;&gt;Node6</title>
<path fill="none" stroke="midnightblue" d="M216.411,-1105C237.18,-1105 259.966,-1105 278.953,-1105"/>
<polygon fill="midnightblue" stroke="midnightblue" points="216.402,-1101.5 206.402,-1105 216.402,-1108.5 216.402,-1101.5"/>
</g>
<!-- Node10 -->
<g id="node10" class="node"><title>Node10</title>
<g id="a_node10"><a xlink:href="class_test_dir_browse_control.html" target="_top" xlink:title="Control to test IDirBrowseControlBase. ">
<polygon fill="white" stroke="black" points="265.5,-1057.5 265.5,-1076.5 378.5,-1076.5 378.5,-1057.5 265.5,-1057.5"/>
<text text-anchor="middle" x="322" y="-1064.5" font-family="Helvetica,sans-Serif" font-size="10.00">TestDirBrowseControl</text>
</a>
</g>
</g>
<!-- Node9&#45;&gt;Node10 -->
<g id="edge9" class="edge"><title>Node9&#45;&gt;Node10</title>
<path fill="none" stroke="midnightblue" d="M216.531,-948.652C218.457,-949.979 220.29,-951.425 222,-953 255.208,-983.593 224.985,-1017.2 258,-1048 262.177,-1051.9 267.125,-1055 272.384,-1057.46"/>
<polygon fill="midnightblue" stroke="midnightblue" points="217.997,-945.46 207.573,-943.567 214.541,-951.547 217.997,-945.46"/>
</g>
<!-- Node14 -->
<g id="node14" class="node"><title>Node14</title>
<g id="a_node14"><a xlink:href="class_i_b_knob_control.html" target="_top" xlink:title="A bitmap knob/dial control that draws a frame from a stacked bitmap. ">
<polygon fill="white" stroke="red" points="282,-1019.5 282,-1038.5 362,-1038.5 362,-1019.5 282,-1019.5"/>
<text text-anchor="middle" x="322" y="-1026.5" font-family="Helvetica,sans-Serif" font-size="10.00">IBKnobControl</text>
</a>
</g>
</g>
<!-- Node13&#45;&gt;Node14 -->
<g id="edge13" class="edge"><title>Node13&#45;&gt;Node14</title>
<path fill="none" stroke="midnightblue" d="M212.451,-831.3C215.963,-833.448 219.203,-835.991 222,-839 274.883,-895.88 205.477,-952.787 258,-1010 264.258,-1016.82 272.863,-1021.22 281.703,-1024.06"/>
<polygon fill="midnightblue" stroke="midnightblue" points="213.768,-828.047 203.254,-826.734 210.654,-834.316 213.768,-828.047"/>
</g>
<!-- Node15 -->
<g id="node15" class="node"><title>Node15</title>
<g id="a_node15"><a xlink:href="class_i_s_v_g_knob.html" target="_top" xlink:title="A vector knob/dial control which rotates an SVG image. ">
<polygon fill="white" stroke="black" points="290.5,-981.5 290.5,-1000.5 353.5,-1000.5 353.5,-981.5 290.5,-981.5"/>
<text text-anchor="middle" x="322" y="-988.5" font-family="Helvetica,sans-Serif" font-size="10.00">ISVGKnob</text>
</a>
</g>
</g>
<!-- Node13&#45;&gt;Node15 -->
<g id="edge14" class="edge"><title>Node13&#45;&gt;Node15</title>
<path fill="none" stroke="midnightblue" d="M212.43,-831.582C215.922,-833.667 219.164,-836.119 222,-839 264.955,-882.646 215.321,-928.084 258,-972 266.519,-980.766 278.923,-985.524 290.475,-988.092"/>
<polygon fill="midnightblue" stroke="midnightblue" points="213.847,-828.379 203.328,-827.119 210.765,-834.664 213.847,-828.379"/>
</g>
<!-- Node16 -->
<g id="node16" class="node"><title>Node16</title>
<g id="a_node16"><a xlink:href="class_i_v_knob_control.html" target="_top" xlink:title="A vector knob control drawn using graphics primitves. ">
<polygon fill="white" stroke="black" points="282,-943.5 282,-962.5 362,-962.5 362,-943.5 282,-943.5"/>
<text text-anchor="middle" x="322" y="-950.5" font-family="Helvetica,sans-Serif" font-size="10.00">IVKnobControl</text>
</a>
</g>
</g>
<!-- Node13&#45;&gt;Node16 -->
<g id="edge15" class="edge"><title>Node13&#45;&gt;Node16</title>
<path fill="none" stroke="midnightblue" d="M212.292,-832.001C215.791,-833.99 219.075,-836.305 222,-839 255.208,-869.593 224.985,-903.198 258,-934 264.599,-940.157 273.125,-944.323 281.759,-947.141"/>
<polygon fill="midnightblue" stroke="midnightblue" points="213.767,-828.827 203.232,-827.7 210.765,-835.15 213.767,-828.827"/>
</g>
<!-- Node17 -->
<g id="node17" class="node"><title>Node17</title>
<g id="a_node17"><a xlink:href="class_test_arc_control.html" target="_top" xlink:title="Control to test drawing arcs. ">
<polygon fill="white" stroke="black" points="280.5,-905.5 280.5,-924.5 363.5,-924.5 363.5,-905.5 280.5,-905.5"/>
<text text-anchor="middle" x="322" y="-912.5" font-family="Helvetica,sans-Serif" font-size="10.00">TestArcControl</text>
</a>
</g>
</g>
<!-- Node13&#45;&gt;Node17 -->
<g id="edge16" class="edge"><title>Node13&#45;&gt;Node17</title>
<path fill="none" stroke="midnightblue" d="M212.368,-833.032C215.765,-834.777 219.011,-836.756 222,-839 245.963,-856.987 234.151,-877.862 258,-896 264.547,-900.979 272.395,-904.66 280.294,-907.38"/>
<polygon fill="midnightblue" stroke="midnightblue" points="213.665,-829.778 203.104,-828.935 210.834,-836.18 213.665,-829.778"/>
</g>
<!-- Node18 -->
<g id="node18" class="node"><title>Node18</title>
<g id="a_node18"><a xlink:href="class_test_blend_control.html" target="_top" xlink:title="Control to test blend methods. ">
<polygon fill="white" stroke="black" points="276,-867.5 276,-886.5 368,-886.5 368,-867.5 276,-867.5"/>
<text text-anchor="middle" x="322" y="-874.5" font-family="Helvetica,sans-Serif" font-size="10.00">TestBlendControl</text>
</a>
</g>
</g>
<!-- Node13&#45;&gt;Node18 -->
<g id="edge17" class="edge"><title>Node13&#45;&gt;Node18</title>
<path fill="none" stroke="midnightblue" d="M203.804,-832.496C209.993,-834.482 216.194,-836.661 222,-839 238.781,-845.76 241.262,-851.134 258,-858 266.561,-861.512 276.012,-864.703 284.932,-867.426"/>
<polygon fill="midnightblue" stroke="midnightblue" points="204.733,-829.12 194.146,-829.539 202.683,-835.814 204.733,-829.12"/>
</g>
<!-- Node19 -->
<g id="node19" class="node"><title>Node19</title>
<g id="a_node19"><a xlink:href="class_test_gradient_control.html" target="_top" xlink:title="Control to test drawing gradients with path based drawing backends. ">
<polygon fill="white" stroke="black" points="270,-829.5 270,-848.5 374,-848.5 374,-829.5 270,-829.5"/>
<text text-anchor="middle" x="322" y="-836.5" font-family="Helvetica,sans-Serif" font-size="10.00">TestGradientControl</text>
</a>
</g>
</g>
<!-- Node13&#45;&gt;Node19 -->
<g id="edge18" class="edge"><title>Node13&#45;&gt;Node19</title>
<path fill="none" stroke="midnightblue" d="M213.302,-826.598C231.73,-828.72 252.012,-831.056 269.959,-833.123"/>
<polygon fill="midnightblue" stroke="midnightblue" points="213.617,-823.112 203.282,-825.445 212.816,-830.066 213.617,-823.112"/>
</g>
<!-- Node20 -->
<g id="node20" class="node"><title>Node20</title>
<g id="a_node20"><a xlink:href="class_test_layer_control.html" target="_top" xlink:title="Control to test IGraphics layers. ">
<polygon fill="white" stroke="black" points="276,-791.5 276,-810.5 368,-810.5 368,-791.5 276,-791.5"/>
<text text-anchor="middle" x="322" y="-798.5" font-family="Helvetica,sans-Serif" font-size="10.00">TestLayerControl</text>
</a>
</g>
</g>
<!-- Node13&#45;&gt;Node20 -->
<g id="edge19" class="edge"><title>Node13&#45;&gt;Node20</title>
<path fill="none" stroke="midnightblue" d="M213.443,-813.385C233.928,-811.026 256.691,-808.405 275.981,-806.184"/>
<polygon fill="midnightblue" stroke="midnightblue" points="212.816,-809.934 203.282,-814.555 213.617,-816.888 212.816,-809.934"/>
</g>
<!-- Node21 -->
<g id="node21" class="node"><title>Node21</title>
<g id="a_node21"><a xlink:href="class_test_multi_path_control.html" target="_top" xlink:title="Control to test drawing paths in path&#45;based drawing backends. ">
<polygon fill="white" stroke="black" points="267.5,-753.5 267.5,-772.5 376.5,-772.5 376.5,-753.5 267.5,-753.5"/>
<text text-anchor="middle" x="322" y="-760.5" font-family="Helvetica,sans-Serif" font-size="10.00">TestMultiPathControl</text>
</a>
</g>
</g>
<!-- Node13&#45;&gt;Node21 -->
<g id="edge20" class="edge"><title>Node13&#45;&gt;Node21</title>
<path fill="none" stroke="midnightblue" d="M203.804,-807.504C209.993,-805.518 216.194,-803.339 222,-801 238.781,-794.24 241.262,-788.866 258,-782 266.561,-778.488 276.012,-775.297 284.932,-772.574"/>
<polygon fill="midnightblue" stroke="midnightblue" points="202.683,-804.186 194.146,-810.461 204.733,-810.88 202.683,-804.186"/>
</g>
<!-- Node22 -->
<g id="node22" class="node"><title>Node22</title>
<g id="a_node22"><a xlink:href="class_test_poly_control.html" target="_top" xlink:title="Control to test drawing polygons. ">
<polygon fill="white" stroke="black" points="278.5,-715.5 278.5,-734.5 365.5,-734.5 365.5,-715.5 278.5,-715.5"/>
<text text-anchor="middle" x="322" y="-722.5" font-family="Helvetica,sans-Serif" font-size="10.00">TestPolyControl</text>
</a>
</g>
</g>
<!-- Node13&#45;&gt;Node22 -->
<g id="edge21" class="edge"><title>Node13&#45;&gt;Node22</title>
<path fill="none" stroke="midnightblue" d="M212.368,-806.968C215.765,-805.223 219.011,-803.244 222,-801 245.963,-783.013 234.151,-762.138 258,-744 264.001,-739.436 271.096,-735.962 278.321,-733.32"/>
<polygon fill="midnightblue" stroke="midnightblue" points="210.834,-803.82 203.104,-811.065 213.665,-810.222 210.834,-803.82"/>
</g>
<!-- Node23 -->
<g id="node23" class="node"><title>Node23</title>
<g id="a_node23"><a xlink:href="class_test_rotating_mask_control.html" target="_top" xlink:title="TestRotatingMaskControl">
<polygon fill="white" stroke="black" points="258,-677.5 258,-696.5 386,-696.5 386,-677.5 258,-677.5"/>
<text text-anchor="middle" x="322" y="-684.5" font-family="Helvetica,sans-Serif" font-size="10.00">TestRotatingMaskControl</text>
</a>
</g>
</g>
<!-- Node13&#45;&gt;Node23 -->
<g id="edge22" class="edge"><title>Node13&#45;&gt;Node23</title>
<path fill="none" stroke="midnightblue" d="M212.292,-807.999C215.791,-806.01 219.075,-803.695 222,-801 255.208,-770.407 224.985,-736.802 258,-706 262.177,-702.103 267.125,-699.004 272.384,-696.539"/>
<polygon fill="midnightblue" stroke="midnightblue" points="210.765,-804.85 203.232,-812.3 213.767,-811.173 210.765,-804.85"/>
</g>
<!-- Node28 -->
<g id="node28" class="node"><title>Node28</title>
<g id="a_node28"><a xlink:href="class_i_b_slider_control.html" target="_top" xlink:title="A bitmap slider/fader control. ">
<polygon fill="white" stroke="black" points="280.5,-639.5 280.5,-658.5 363.5,-658.5 363.5,-639.5 280.5,-639.5"/>
<text text-anchor="middle" x="322" y="-646.5" font-family="Helvetica,sans-Serif" font-size="10.00">IBSliderControl</text>
</a>
</g>
</g>
<!-- Node27&#45;&gt;Node28 -->
<g id="edge27" class="edge"><title>Node27&#45;&gt;Node28</title>
<path fill="none" stroke="midnightblue" d="M214.319,-661.284C236.133,-658.773 260.42,-655.976 280.304,-653.686"/>
<polygon fill="midnightblue" stroke="midnightblue" points="213.702,-657.832 204.168,-662.453 214.503,-664.786 213.702,-657.832"/>
</g>
<!-- Node29 -->
<g id="node29" class="node"><title>Node29</title>
<g id="a_node29"><a xlink:href="class_i_v_slider_control.html" target="_top" xlink:title="A vector slider control. ">
<polygon fill="white" stroke="black" points="280.5,-601.5 280.5,-620.5 363.5,-620.5 363.5,-601.5 280.5,-601.5"/>
<text text-anchor="middle" x="322" y="-608.5" font-family="Helvetica,sans-Serif" font-size="10.00">IVSliderControl</text>
</a>
</g>
</g>
<!-- Node27&#45;&gt;Node29 -->
<g id="edge28" class="edge"><title>Node27&#45;&gt;Node29</title>
<path fill="none" stroke="midnightblue" d="M203.804,-655.504C209.993,-653.518 216.194,-651.339 222,-649 238.781,-642.24 241.262,-636.866 258,-630 266.561,-626.488 276.012,-623.297 284.932,-620.574"/>
<polygon fill="midnightblue" stroke="midnightblue" points="202.683,-652.186 194.146,-658.461 204.733,-658.88 202.683,-652.186"/>
</g>
<!-- Node32 -->
<g id="node32" class="node"><title>Node32</title>
<g id="a_node32"><a xlink:href="class_i_v_radio_button_control.html" target="_top" xlink:title="A vector switch control. ">
<polygon fill="white" stroke="black" points="266,-563.5 266,-582.5 378,-582.5 378,-563.5 266,-563.5"/>
<text text-anchor="middle" x="322" y="-570.5" font-family="Helvetica,sans-Serif" font-size="10.00">IVRadioButtonControl</text>
</a>
</g>
</g>
<!-- Node31&#45;&gt;Node32 -->
<g id="edge31" class="edge"><title>Node31&#45;&gt;Node32</title>
<path fill="none" stroke="midnightblue" d="M217.51,-584.917C233.325,-583.096 250.243,-581.148 265.72,-579.366"/>
<polygon fill="midnightblue" stroke="midnightblue" points="216.837,-581.471 207.303,-586.092 217.637,-588.425 216.837,-581.471"/>
</g>
<!-- Node33 -->
<g id="node33" class="node"><title>Node33</title>
<g id="a_node33"><a xlink:href="class_i_v_switch_control.html" target="_top" xlink:title="A vector switch control. ">
<polygon fill="white" stroke="black" points="278,-525.5 278,-544.5 366,-544.5 366,-525.5 278,-525.5"/>
<text text-anchor="middle" x="322" y="-532.5" font-family="Helvetica,sans-Serif" font-size="10.00">IVSwitchControl</text>
</a>
</g>
</g>
<!-- Node31&#45;&gt;Node33 -->
<g id="edge32" class="edge"><title>Node31&#45;&gt;Node33</title>
<path fill="none" stroke="midnightblue" d="M203.804,-579.504C209.993,-577.518 216.194,-575.339 222,-573 238.781,-566.24 241.262,-560.866 258,-554 266.561,-550.488 276.012,-547.297 284.932,-544.574"/>
<polygon fill="midnightblue" stroke="midnightblue" points="202.683,-576.186 194.146,-582.461 204.733,-582.88 202.683,-576.186"/>
</g>
<!-- Node35 -->
<g id="node35" class="node"><title>Node35</title>
<g id="a_node35"><a xlink:href="class_i_b_text_control.html" target="_top" xlink:title="A control to display text using a monospace bitmap font. ">
<polygon fill="white" stroke="black" points="283.5,-487.5 283.5,-506.5 360.5,-506.5 360.5,-487.5 283.5,-487.5"/>
<text text-anchor="middle" x="322" y="-494.5" font-family="Helvetica,sans-Serif" font-size="10.00">IBTextControl</text>
</a>
</g>
</g>
<!-- Node34&#45;&gt;Node35 -->
<g id="edge34" class="edge"><title>Node34&#45;&gt;Node35</title>
<path fill="none" stroke="midnightblue" d="M200.492,-542.549C207.766,-540.291 215.157,-537.757 222,-535 238.781,-528.24 241.262,-522.866 258,-516 266.561,-512.488 276.012,-509.297 284.932,-506.574"/>
<polygon fill="midnightblue" stroke="midnightblue" points="199.299,-539.252 190.708,-545.452 201.29,-545.963 199.299,-539.252"/>
</g>
</g>
</svg>
